<svg id="Capa_7" data-name="Capa 7" xmlns="http://www.w3.org/2000/svg" viewBox="0 0 154 150"><defs><style>.cls-1{fill:#662d91;opacity:0.8;}</style></defs><title>iconos</title><path class="cls-1" d="M110.29,62l-.11-.13V48.48h3.95l-8.95-15L96.5,48.6h3.29V53l-.71-.41a42.84,42.84,0,0,0-13.69-5.11L85,47.42V32.25h6L77.4,9.4l-13.18,23h5V47.51l-.38.07a43.16,43.16,0,0,0-13.43,5.15l-.71.42V48.6h3.95l-8.95-15L41,48.71h3.28V62.1l-.11.13A43.31,43.31,0,1,0,110.29,62ZM97.67,121.77a37.49,37.49,0,0,1-40.55,0l-.24-.14,0-.28a58.14,58.14,0,0,1,2.19-12.23c1.43-4.94,4.39-9.18,9.07-13A1.7,1.7,0,0,1,69.47,96,4,4,0,0,1,72,97.26c.47.65.92,1.33,1.37,2s.89,1.36,1.37,2a1.68,1.68,0,0,1,0,1.83l-.07.17-.95,2.4c-1.17,2.91-2.37,5.92-3.59,8.87a1.35,1.35,0,0,0,.19,1.6c2,2.65,4.18,5.47,6.68,8.87a2.23,2.23,0,0,0,.36.41s.1-.1.28-.36c2-2.79,4.25-5.73,6.77-9a1.23,1.23,0,0,0,.16-1.46c-.68-1.66-1.35-3.31-2-5-.82-2.06-1.64-4.11-2.5-6.15a2.52,2.52,0,0,1,.33-2.82A15,15,0,0,0,82.23,98a3.8,3.8,0,0,1,2.36-1.82l.67-.28a1.11,1.11,0,0,1,1.42.39,1,1,0,0,0,.18.18c7.91,6,9.88,14.57,10.76,22.22q.16,1.33.27,2.67l0,.28ZM64.81,77.85A12.6,12.6,0,0,1,77.36,65.43h0a12.54,12.54,0,0,1,0,25.08h-.1a12.51,12.51,0,0,1-8.89-3.81A12.37,12.37,0,0,1,64.81,77.85Zm40.32,37.66-.65.71-.25-1.51c-.08-.55-.17-1.11-.27-1.66-1.67-9.07-5.07-15.57-10.71-20.44C92,91.54,92.19,90.8,93,89.74a19.43,19.43,0,0,0-1.25-25.19,19.65,19.65,0,0,0-25.37-2.88,19.38,19.38,0,0,0-8.42,13,19.63,19.63,0,0,0,3.84,15.2,2.39,2.39,0,0,0,.22.23A1.23,1.23,0,0,1,62,92.21c-5.7,4.79-9.29,11.37-11,20.12-.19,1-.37,2-.53,3l-.16.94-.65-.7a37.69,37.69,0,1,1,55.48,0Z"/></svg>