<svg id="Capa_7" data-name="Capa 7" xmlns="http://www.w3.org/2000/svg" viewBox="0 0 154 150"><defs><style>.cls-1{opacity:0.8;}.cls-2{fill:#662d91;}</style></defs><title>iconos</title><g class="cls-1"><path class="cls-2" d="M148.35,64.91a107.07,107.07,0,0,0-9.77-9.72,3.12,3.12,0,0,0-4.27.61,3.32,3.32,0,0,0-.12,4.32c.2.27.44.51.69.79l.44.48.76.83-.94.62a3.17,3.17,0,0,1-2.1.46c-.1,0-.17,0-.31,0h-2.62c-4.4,0-9,0-13.44,0a1.52,1.52,0,0,0-.62.06,3.92,3.92,0,0,0,0,.57,46.13,46.13,0,0,1,0,5.52,1.53,1.53,0,0,0,0,.67s.15,0,.58,0h.08c4.77-.07,9.61-.05,14.29,0h2.27s.12,0,.18,0a3,3,0,0,1,.48,0,1.66,1.66,0,0,1,1.49.83l.4.63-.82.87-.58.61a3.35,3.35,0,0,0,0,4.73,3.28,3.28,0,0,0,4.69.15c2.82-2.7,5.73-5.6,8.9-8.87A3,3,0,0,0,148.35,64.91Z"/><path class="cls-2" d="M97.17,48.17c-1.59-1.37-1.28-2.48-.33-3.72a20.49,20.49,0,0,0-1.31-26.57,20.71,20.71,0,0,0-26.76-3,20.43,20.43,0,0,0-8.88,13.73,20.72,20.72,0,0,0,4.06,16,1.8,1.8,0,0,0,.19.21A1.76,1.76,0,0,1,64,47.74C58,52.84,54.15,59.85,52.36,69.17c-1.1,5.72-2.16,12.38-.87,19,.79,4,3.08,6.49,6.83,7.36A2.8,2.8,0,0,1,60.61,98l.2,1c1,5.14,2,10.46,3.14,15.67a22.17,22.17,0,0,0,6.48,12,14.15,14.15,0,0,0,20-.11,22.68,22.68,0,0,0,6.42-12C97.92,109.31,99,104,100,98.83l.16-.83a2.78,2.78,0,0,1,2.3-2.48A8.45,8.45,0,0,0,109,89a27.86,27.86,0,0,0,.77-6.34l0-.32A61.11,61.11,0,0,0,108.56,70C106.79,60.27,103.17,53.35,97.17,48.17ZM80.35,18.06h0a14,14,0,0,1,0,28h-.11a13.94,13.94,0,0,1-9.9-4.25,13.78,13.78,0,0,1-4-9.87A14,14,0,0,1,80.35,18.06Zm22.65,64c0,.44,0,.88,0,1.32a17.61,17.61,0,0,1-.19,3,3.21,3.21,0,0,1-3.22,2.86c-.37,0-.74,0-1.11,0H98c-2.17,0-3.23.91-3.66,3q-1.18,5.78-2.33,11.53l-1.86,9.17a16.68,16.68,0,0,1-3.54,7.65A8.26,8.26,0,0,1,80.39,124h0a8.26,8.26,0,0,1-6.26-3.24,16.42,16.42,0,0,1-3.56-7.64c-.54-2.66-1.07-5.32-1.61-8q-1.26-6.28-2.55-12.56c-.49-2.4-1.46-3.19-4-3.22-3.5-.06-4.5-1-4.66-4.42a59.41,59.41,0,0,1,2.45-19.4C61.77,60.1,65,55.45,70.13,51.31A2.29,2.29,0,0,1,71.9,51a4.82,4.82,0,0,1,3,1.6c.51.71,1,1.45,1.48,2.18s1,1.45,1.47,2.15A2.28,2.28,0,0,1,78,59.32l-1.14,2.83c-1.24,3.12-2.53,6.34-3.84,9.5a1,1,0,0,0,.15,1.26c2.19,2.83,4.55,6,7.2,9.57,2.19-3,4.56-6.15,7.26-9.65a.9.9,0,0,0,.11-1.12c-.74-1.78-1.46-3.58-2.17-5.37-.89-2.21-1.77-4.42-2.69-6.61a3.16,3.16,0,0,1,.42-3.5,16.71,16.71,0,0,0,1.89-2.82A4.49,4.49,0,0,1,88,51.22c.24-.09.47-.18.7-.29a1.66,1.66,0,0,1,2,.52.92.92,0,0,0,.14.14c8.67,6.52,10.82,15.93,11.78,24.28l0,.29A33.08,33.08,0,0,1,103,82.08Z"/><path class="cls-2" d="M124.61,31.71l1.31-1.31a2.84,2.84,0,0,0,.23-.25,2.63,2.63,0,0,1,1.72-1.09l.68-.1.31.62a3.6,3.6,0,0,1,.28,1.92,4.87,4.87,0,0,0,0,.54,3.36,3.36,0,0,0,3.33,3.37,3.55,3.55,0,0,0,2.39-.94,3.45,3.45,0,0,0,1-2.46c0-4.4,0-8.75,0-12.93a3.17,3.17,0,0,0-3.23-3.39c-4.31-.09-8.76-.09-13.24,0A3.26,3.26,0,0,0,116.08,19a3.43,3.43,0,0,0,3.34,3.4,12.16,12.16,0,0,0,1.36,0H122l1.23,1.75-.8.55-.51.33a5,5,0,0,0-.81.58l-5.53,5.5c-3,3-6.06,6.06-9.12,9.05a2.44,2.44,0,0,0-.38.45s.12.13.35.35a56.87,56.87,0,0,1,4.07,4.18,2.83,2.83,0,0,0,.31.31,2.14,2.14,0,0,0,.3-.26C115.55,40.69,120.15,36.13,124.61,31.71Z"/><path class="cls-2" d="M54.49,40.43s-.11-.13-.34-.35c-4.68-4.6-9.39-9.32-13.94-13.88l-.69-.69a2.09,2.09,0,0,0-.22-.2,2.72,2.72,0,0,1-1.1-1.78l-.14-1.09H40a14,14,0,0,0,1.46,0A3.41,3.41,0,0,0,44.64,19,3.23,3.23,0,0,0,41.5,15.7c-4.53-.1-9.08-.1-13.55,0a3,3,0,0,0-3,3.05c-.08,4.53-.08,9.09,0,13.57a3.2,3.2,0,0,0,3.32,3.08h0a3.32,3.32,0,0,0,3.3-3c0-.5,0-1,0-1.55,0-.27,0-.54,0-.81V28.92l1.07.12a2.83,2.83,0,0,1,2,1.14c.06.07.12.15.19.22l.86.85c4.6,4.56,9.35,9.28,14,14a3.86,3.86,0,0,0,.3.27,1.77,1.77,0,0,0,.25-.27,59.13,59.13,0,0,1,4-4.44A2.82,2.82,0,0,0,54.49,40.43Z"/><path class="cls-2" d="M26.38,73.08h0a2.5,2.5,0,0,0-.24-.22,2.23,2.23,0,0,1-.95-1.55l-.06-.55.45-.33a2.23,2.23,0,0,1,1.61-.35l.22,0h3.18c4.44,0,9,0,13.54,0a2.21,2.21,0,0,0,.53,0,2,2,0,0,0,0-.5,42.31,42.31,0,0,1,0-5.52,1.77,1.77,0,0,0,0-.75,2.56,2.56,0,0,0-.63-.06H43.9c-4.47.09-9,.07-13.42,0H27.84l-.29,0a2.23,2.23,0,0,1-2.12-.7L24.9,62l.75-.85a5.52,5.52,0,0,1,.38-.43c1.55-1.7,1.63-3.69.21-5.06a3.21,3.21,0,0,0-2.26-1A4.08,4.08,0,0,0,21.17,56c-2.66,2.63-5.51,5.45-8.32,8.32a3.11,3.11,0,0,0-.32,4.44c3,3.2,6.16,6.34,9.34,9.32a2.8,2.8,0,0,0,2.07.76,3.63,3.63,0,0,0,2.46-1.17A3.38,3.38,0,0,0,26.38,73.08Z"/><path class="cls-2" d="M45.7,92.47l-.15-.18-.24.22c-3.38,3.45-6.87,6.9-10.25,10.24l-.43.42c-.05.06-.11.12-.16.19a2.47,2.47,0,0,1-1.89,1l-1,0v-1c0-.26,0-.53,0-.79,0-.54,0-1.06,0-1.55A3.38,3.38,0,0,0,28.24,98h-.08A3.27,3.27,0,0,0,24.91,101c-.08,4.33-.08,8.77,0,13.57a3,3,0,0,0,3,3c4.38.08,8.94.08,13.56,0a3.21,3.21,0,0,0,3.16-3.28A3.36,3.36,0,0,0,41.35,111c-.48,0-1,0-1.47,0h-2l.26-1.17a3,3,0,0,1,1.09-1.7l.21-.18,1.18-1.19c2.88-2.89,5.84-5.88,8.81-8.77a2,2,0,0,0,.39-.45s-.07-.11-.26-.32A59.17,59.17,0,0,1,45.7,92.47Z"/><path class="cls-2" d="M135.58,99.91a3.43,3.43,0,0,0-3.73-1.86,3.21,3.21,0,0,0-2.7,3.28,2.48,2.48,0,0,0,0,.38,1.92,1.92,0,0,1-1,2.26,2,2,0,0,1-2.27-1c-.09-.1-.17-.21-.26-.3-2.72-2.68-5.53-5.45-8.24-8.24a1.42,1.42,0,0,0-.46-.37,2.28,2.28,0,0,0-.39.36c-1.33,1.44-2.72,2.82-4.13,4.1a1.23,1.23,0,0,0-.28.31,1.54,1.54,0,0,0,.33.37c2.33,2.27,4.65,4.61,6.9,6.87l1.7,1.71.17.15A1.82,1.82,0,0,1,122,110a1.71,1.71,0,0,1-1.94,1l-.2,0h0c-2.32.1-3.66,1.31-3.68,3.3a3.41,3.41,0,0,0,3.5,3.51c4.41.08,8.69.08,12.75,0,2.23,0,3.47-1.35,3.49-3.67,0-1.4,0-2.81,0-4.21v-8.5A3.57,3.57,0,0,0,135.58,99.91Z"/></g></svg>