<svg id="Capa_1" data-name="Capa 1" xmlns="http://www.w3.org/2000/svg" viewBox="0 0 545 213"><defs><style>.cls-1{fill:#d58c34;}.cls-2{fill:#f1d8bb;}.cls-3{fill:#385eb2;}</style></defs><title>imagenes todoooo</title><path class="cls-1" d="M60.25,106.77a1.61,1.61,0,0,0,.46-1.09l6-28.62a3.53,3.53,0,0,0,.13-.54c0-.64.36-.79.94-.78,1.41,0,2.81,0,4.22,0h28.52c1.11,0,1.15,0,.93,1.12q-1.11,5.2-2.21,10.41-2,9.31-4,18.64c-.06.25-.14.5-.18.75a.51.51,0,0,1-.61.49H61.46c-.4,0-.81,0-1.21.06Z"/><path class="cls-2" d="M123.1,45.32l0-.26H148.6c0,.24,0,.5-.19.68-5.1-.23-10.19-.05-15.29-.1-2.81,0-5.62,0-8.42,0A2.26,2.26,0,0,1,123.1,45.32Z"/><path class="cls-3" d="M122.84,131a2.3,2.3,0,0,0,.92-1,27.39,27.39,0,0,1,7.82-7.46,20.24,20.24,0,0,1,11-3.11,14.55,14.55,0,0,1,4.58.75c4.07,1.41,6.36,4.38,7.37,8.46.11.43.17.87.25,1.31s.16.84.26,1.42l1-1.47a24.73,24.73,0,0,1,9.6-8.35,21.88,21.88,0,0,1,9.23-2.12,12.7,12.7,0,0,1,13.19,12.13,48.11,48.11,0,0,1-1,12.67c-1.35,7.26-2.74,14.52-4.11,21.78-.53,2.8-1,5.59-1.58,8.39-.15.81-.16.83-1,.83-2.47,0-5,0-7.43,0-.85,0-.87-.17-.73-.88,1.43-7.52,2.82-15,4.22-22.55.66-3.6,1.36-7.19,1.94-10.8a20.39,20.39,0,0,0-.06-8.05c-.83-3.42-2.9-5.2-6.41-5.64a11,11,0,0,0-7,1.58,20.21,20.21,0,0,0-6.38,6.07,31.77,31.77,0,0,0-5.09,12.65q-2.16,11.49-4.36,23c-.24,1.31-.53,2.61-.72,3.92-.09.59-.36.72-.88.72-2.52,0-5,0-7.55,0-.72,0-.75-.07-.61-.79q2.1-11.1,4.22-22.21c.68-3.59,1.4-7.18,2-10.79a24.23,24.23,0,0,0,.12-8.06c-.62-3.62-2.82-5.64-6.47-6.07a10.18,10.18,0,0,0-5.8,1.06,20.32,20.32,0,0,0-7.23,6.27,31.37,31.37,0,0,0-5.83,13.51c-1.19,6.55-2.42,13.08-3.63,19.62q-.62,3.27-1.22,6.54c-.17.9-.17.92-1,.92-2.48,0-5,0-7.44,0-.81,0-.86-.14-.71-.9,1-5,1.91-9.94,2.85-14.91,1.37-7.26,2.72-14.53,4.11-21.78,1-5.37,1.88-10.77,2.59-16.2.08-.62.3-.79.89-.78,2.19,0,4.37,0,6.55,0,.9,0,.92,0,.79,1-.32,2.27-.67,4.54-1,6.8C123,129.27,123,130.06,122.84,131Z"/><path class="cls-1" d="M485.58,176.28H478a43.59,43.59,0,0,1-11.33-2.49,21.34,21.34,0,0,1-4.43-2.28.7.7,0,0,1-.32-1c1.4-3.3,2.77-6.62,4.15-9.92a.8.8,0,0,1,.15-.18c.29-.09.47.15.67.27A32.27,32.27,0,0,0,480.76,165a20.94,20.94,0,0,0,8.86-1,13.86,13.86,0,0,0,4.05-2.24,10,10,0,0,0,.78-14.91,29.94,29.94,0,0,0-6.77-4.78,62.09,62.09,0,0,1-6.45-3.9,27.2,27.2,0,0,1-7.06-7,17.37,17.37,0,0,1-2.68-12.51c1.25-9,6.57-14.7,14.64-18.16a35,35,0,0,1,16.63-2.38,32.67,32.67,0,0,1,11.78,2.88c1.74.83,1.72.57,1,2.41q-1.65,4.24-3.32,8.47a1.76,1.76,0,0,1-.39.77c-.33,0-.56-.18-.82-.3a28.39,28.39,0,0,0-13.51-2.94,14.6,14.6,0,0,0-9,3,8.54,8.54,0,0,0-.94,12.89,27.93,27.93,0,0,0,5.23,4.09c2.11,1.36,4.37,2.49,6.51,3.8a28.28,28.28,0,0,1,8,6.9,18.21,18.21,0,0,1,3.81,10.68A23,23,0,0,1,507,165.51a24.83,24.83,0,0,1-12.12,8.77A40.53,40.53,0,0,1,485.58,176.28Z"/><path class="cls-1" d="M146.11,75.9c-.29,1.41-.58,2.85-.88,4.28q-2.86,13.5-5.72,27a4.86,4.86,0,0,0-.11.55.78.78,0,0,1-1,.76,5,5,0,0,0-.55,0H104.48c-1.41,0-1.4,0-1.11-1.37q3.19-15.12,6.38-30.24c.23-1.09.22-1.1,1.35-1.1H145A1.9,1.9,0,0,1,146.11,75.9Z"/><path class="cls-3" d="M265,165.1c.28,0,.31-.28.38-.48a180.45,180.45,0,0,1,9.32-19.37c4.12-7.85,8.26-15.7,12.35-23.57a1.54,1.54,0,0,1,1.6-1c3,0,6,0,9,0,.12.47-.19.74-.35,1l-25.05,45.07c-1.38,2.48-2.78,5-4.13,7.47a1.57,1.57,0,0,1-1.62,1c-2.37,0-4.74,0-7.1,0-1.1,0-1.11,0-1.29-1-.55-3.13-1.08-6.26-1.62-9.39q-1.49-8.62-3-17.25t-3-17.36q-.71-4.09-1.42-8.18a3.77,3.77,0,0,1-.12-1.2.79.79,0,0,1,.63-.15h8c.83,0,.85,0,1,.8q.87,5.58,1.72,11.17c.72,4.68,1.45,9.35,2.14,14,.58,3.88,1.1,7.76,1.64,11.63.28,2,.58,4,.74,6.06A.88.88,0,0,0,265,165.1Z"/><path class="cls-3" d="M319.06,175.27h-3.89c-.75,0-.79-.06-.65-.75q1.77-9.36,3.56-18.72l4.11-21.67q2.18-11.37,4.33-22.75c.93-4.9,1.84-9.8,2.8-14.69.34-1.74,0-1.42,1.69-1.44,2.29,0,4.59,0,6.88,0,1.07,0,1.09,0,.9,1-.54,2.79-1.09,5.58-1.63,8.37l-4.53,23.73q-2.29,11.91-4.58,23.83c-1.37,7.18-2.72,14.37-4.12,21.55-.33,1.67.12,1.49-1.77,1.5Z"/><path class="cls-1" d="M181.61,84.16c-.45,2.15-.86,4.17-1.29,6.19q-1.74,8.25-3.5,16.48c-.21,1-.22,1-1.2,1H151.2c-.65,0-.71-.08-.59-.74.21-1.16.47-2.32.71-3.48q2-9.26,3.94-18.53c.2-.94.19-1,1.13-1h24.52Z"/><path class="cls-1" d="M123.1,45.32c.3,0,.59,0,.89,0h23.37c.38,0,.94-.25,1,.45l-4.5,21.33a3.67,3.67,0,0,0-.09.43c-.06.47-.26.76-.79.68a3.38,3.38,0,0,0-.45,0H119.53a2,2,0,0,1-1.2-.19Z"/><path class="cls-3" d="M312.81,120.87c-1,5.16-2,10.27-3,15.38l-4.53,23.6q-1.38,7.18-2.75,14.36c-.21,1.06-.22,1.06-1.25,1.06H294c-1,0-1-.05-.83-1,.82-4.32,1.66-8.63,2.49-12.94L300,138.7q1.67-8.64,3.32-17.29c.07-.41.15-.7.66-.69l8.65,0S312.69,120.8,312.81,120.87Z"/><path class="cls-1" d="M112.82,51.57c-.6,2.87-1.17,5.61-1.75,8.35l-2,9.32c-.18.86-.19.87-1.09.87H89.36c-.11,0-.22,0-.33,0-.54,0-.62-.22-.51-.68.28-1.26.54-2.53.81-3.79Q90.74,59,92.14,52.42c.19-.89.21-.9,1-.9q9.49,0,19,0C112.33,51.52,112.51,51.54,112.82,51.57Z"/><path class="cls-1" d="M78.09,129.1c.44-2.17.88-4.31,1.33-6.44.49-2.34,1-4.69,1.48-7,.22-1,.21-1,1.3-1H96.51c.73,0,.76,0,.61.76Q96,121,94.79,126.53c-.13.65-.28,1.3-.4,1.95-.09.49-.29.75-.87.74q-7.55,0-15.09,0A1.83,1.83,0,0,1,78.09,129.1Z"/><path class="cls-1" d="M158.59,73.42c-1.7,0-3.4,0-5.1,0-1,0-1-.07-.83-1,.52-2.53,1.06-5,1.6-7.58.14-.65.28-1.3.4-1.95a.71.71,0,0,1,.82-.68c3.62,0,7.24,0,10.87,0,.71,0,.78.09.64.78q-1,4.83-2,9.65c-.16.77-.19.77-1.06.78C162.14,73.43,160.37,73.42,158.59,73.42Z"/><path class="cls-3" d="M316.88,105a6.19,6.19,0,0,1-7.76,6.23,4.82,4.82,0,0,1-2.73-1.78,6.46,6.46,0,0,1,2.51-9.73C312.58,98.15,316.84,100.1,316.88,105Z"/><path class="cls-1" d="M462.69,117.82c-2.83-9.09-8.56-15.41-17.77-18.28a36.19,36.19,0,0,0-14.49-1.25,38.21,38.21,0,0,0-15.78,5.14,38.79,38.79,0,0,0-15,16.37,54.85,54.85,0,0,0-6,27,34.91,34.91,0,0,0,2.29,11.69,26.88,26.88,0,0,0,14.43,15.48,32.65,32.65,0,0,0,8.63,2.34,1.56,1.56,0,0,0,.71.08h1.09a5.49,5.49,0,0,1,1.76.12h1.78a6.93,6.93,0,0,1,2-.12h.92a2.73,2.73,0,0,0,1.1-.09c1.09-.17,2.19-.3,3.28-.52a36.44,36.44,0,0,0,23.84-15.82c5.87-8.71,8.53-18.43,8.87-28.86A39.82,39.82,0,0,0,462.69,117.82ZM443.77,154.2a22.41,22.41,0,0,1-10.38,9.5,19.88,19.88,0,0,1-13.33,1.08c-5.36-1.36-8.86-4.83-10.84-9.9a29.29,29.29,0,0,1-1.71-12.65,48.78,48.78,0,0,1,2.37-12.37,37.36,37.36,0,0,1,6.61-12.59,21.33,21.33,0,0,1,13.78-8,19.63,19.63,0,0,1,10,1.13,14.66,14.66,0,0,1,8.44,9.17,29.83,29.83,0,0,1,1.6,10.36A49.51,49.51,0,0,1,443.77,154.2Z"/><path class="cls-1" d="M393.91,116.62a18.17,18.17,0,0,0-2.22-7.26,19.05,19.05,0,0,0-9.68-8.12,35.83,35.83,0,0,0-13.54-2.47c-2.44,0-4.88,0-7.32.18a74.74,74.74,0,0,0-10,1.21c-2.13.43-1.74-.06-2.16,2.11,0,.18-.09.36-.12.54l-4.38,23.08q-2,10.67-4.06,21.33L336,170.3c-.28,1.45-.52,2.91-.81,4.36-.09.44,0,.63.47.62h11.87a.54.54,0,0,0,.61-.51,5,5,0,0,1,.14-.65q1.8-9.63,3.61-19.27c.47-2.47.91-4.94,1.39-7.41.2-1,.31-.89,1.05-.8a55.43,55.43,0,0,0,6.68.49,25.64,25.64,0,0,0,2.72-.15,40.75,40.75,0,0,0,13.47-3,26,26,0,0,0,14.34-13.35A26.52,26.52,0,0,0,393.91,116.62Zm-24.07,18.54a20.53,20.53,0,0,1-6.3,1.17,32.22,32.22,0,0,1-7.07-.46c-.9-.18-.93-.16-.75-1.12.58-3.09,1.18-6.17,1.77-9.25.95-4.9,1.92-9.79,2.84-14.69a1,1,0,0,1,1-1,28.74,28.74,0,0,1,5.48-.43,20.47,20.47,0,0,1,7.26.9,9.57,9.57,0,0,1,6.79,9.15C381.16,126.83,376.7,132.77,369.84,135.16Z"/><path class="cls-3" d="M243.4,132.71c-2.56-6.86-7.34-11.24-14.58-12.74a25.91,25.91,0,0,0-15,1.38A30.22,30.22,0,0,0,199.18,134a37.82,37.82,0,0,0-5.47,16.13,29,29,0,0,0,.85,11.53c1.77,5.9,5.25,10.37,10.91,13a24.55,24.55,0,0,0,5.5,1.65l.66,0h5.13l.67,0,.45,0,.87,0a29,29,0,0,0,20.83-14.59,36.88,36.88,0,0,0,5.18-15.2A29.27,29.27,0,0,0,243.4,132.71Zm-15.17,29.82a17.29,17.29,0,0,1-8.07,5.83c-5.53,1.8-12.56.27-15.59-7.24a20.86,20.86,0,0,1-1.31-9.25A33.61,33.61,0,0,1,207,138.29a23.47,23.47,0,0,1,6.85-8.31A14.45,14.45,0,0,1,225,127.14a10.92,10.92,0,0,1,8.12,5.72c1.68,3,2.3,6.21,2.27,10.59A32.19,32.19,0,0,1,228.23,162.53Z"/></svg>