<svg id="Capa_1" data-name="Capa 1" xmlns="http://www.w3.org/2000/svg" viewBox="0 0 545 122"><defs><style>.cls-1{fill:#202020;}.cls-2{fill:#8f8f8f;}.cls-3{fill:#585858;}.cls-4{fill:#fefefe;}.cls-5{fill:#fefe3c;}.cls-6{fill:#e17f1e;}.cls-7{fill:#929292;}.cls-8{fill:#a3a3a3;}</style></defs><title>imagenes todoooo</title><path class="cls-1" d="M19,57.58v-.85c.13-.64.09-1.29.18-1.93a17.11,17.11,0,0,1,6.48-11.89,19.13,19.13,0,0,1,8.71-3.61,27.56,27.56,0,0,1,6.15-.36A4.53,4.53,0,0,1,44.67,42c.24.57.27.6.69.26a17.69,17.69,0,0,1,9.06-3.67,23.73,23.73,0,0,1,10.32.78,15.46,15.46,0,0,1,9.19,7.65.9.9,0,0,0,.26.38,19.39,19.39,0,0,1,1.72-2.65,16,16,0,0,1,8.22-5.32,26.67,26.67,0,0,1,9.74-.81,19.7,19.7,0,0,1,6.49,1.6A15.29,15.29,0,0,1,107.17,46a2.3,2.3,0,0,0,.44.63c.14,0,.17-.13.21-.21a13.6,13.6,0,0,1,9.24-7.28,27.61,27.61,0,0,1,9.15-.61,21.47,21.47,0,0,1,7.56,1.81,11.69,11.69,0,0,1,5.79,5.29c.37.7.39.7.86.11a17.42,17.42,0,0,1,10.13-6.14,26.92,26.92,0,0,1,7.64-.65,4.43,4.43,0,0,1,3.75,2.38c.4.7.4.72,1.08.23A16.09,16.09,0,0,1,171,38.61a29.74,29.74,0,0,1,11.61.83,18.28,18.28,0,0,1,4.39,2c.2-.21.13-.44.13-.65V33.46a4.68,4.68,0,0,1,1.5-3.55,3.93,3.93,0,0,1,2.84-1.21c2.38,0,4.76-.13,7.13.12a6.87,6.87,0,0,1,3,1.19,9.52,9.52,0,0,1,4.26,6.36c0,.22.09.45.11.67a.68.68,0,0,0,.7.74h.06a7.83,7.83,0,0,0,3.54,0,6.22,6.22,0,0,1,1.21-.13c2.92,0,5.83,0,8.74,0A4.91,4.91,0,0,1,225,41.46a15.93,15.93,0,0,1,.13,2.53c.12-.31.19-.56.28-.8a3.93,3.93,0,0,1,1.06-1.69c.55-.46,1.06-.94,1.58-1.43a9.47,9.47,0,0,1,6.44-2.36c1.45-.05,2.89,0,4.34,0a5,5,0,0,1,5.32,4.95,1.42,1.42,0,0,0,0,.36c.13.06.19,0,.25-.11a18,18,0,0,1,10.14-5.11,26.86,26.86,0,0,1,12.44.6,16.9,16.9,0,0,1,8,5s.07.1.17.09a3.82,3.82,0,0,0,0-.83,4.81,4.81,0,0,1,4.75-5c3.13-.08,6.27-.08,9.4,0a4.85,4.85,0,0,1,4.73,4.94c0,.46,0,.92,0,1.3a13.73,13.73,0,0,1,3.27-4.2,10.21,10.21,0,0,1,6.14-2c1.41-.05,2.81,0,4.22,0a5,5,0,0,1,5.36,4.5,2.12,2.12,0,0,0,.6-.47,17.36,17.36,0,0,1,8.21-4,26.56,26.56,0,0,1,11.5.16,16.17,16.17,0,0,1,8,4.38V33.72a5.14,5.14,0,0,1,.81-2.95,4.26,4.26,0,0,1,3.84-2.07c2.05,0,4.11-.06,6.16.05a7.77,7.77,0,0,1,4.68,2,9.46,9.46,0,0,1,3.36,6.31c.06.46.24.64.67.69a5,5,0,0,1,4.27,4.55c.33-.33.63-.62.94-.89a17.64,17.64,0,0,1,8.31-3.75,25,25,0,0,1,11.72.51,16.44,16.44,0,0,1,9.91,7.53l.16.27c.39.65.39.66,1.09.4a13.08,13.08,0,0,1,4.54-.84,13.43,13.43,0,0,1,5.81,1.23c.81.37.82.39,1.26-.38a16.26,16.26,0,0,1,10.45-7.75,23.92,23.92,0,0,1,13.72.33,15.8,15.8,0,0,1,8.37,6.42c.08.12.13.26.27.33s.23-.2.31-.33a16.22,16.22,0,0,1,10.39-7,24.16,24.16,0,0,1,12.49.35,15.76,15.76,0,0,1,8.87,6.42c.4.59.4.59.77,0a14.78,14.78,0,0,1,8.59-6.37,24.29,24.29,0,0,1,15.53.41,3.5,3.5,0,0,0,2.66,0A24.5,24.5,0,0,1,511.82,38a20.65,20.65,0,0,1,6.8,1.59,14.82,14.82,0,0,1,8.4,9.31,18.08,18.08,0,0,1,.92,5.51c.11,7,0,14,.06,21a4.57,4.57,0,0,1-4.33,4.77,28.5,28.5,0,0,1-5.91-.1,8.4,8.4,0,0,1-5.92-3.38,8.69,8.69,0,0,1-1.59-5.11c0-5.17,0-10.34,0-15.51,0-.21,0-.41,0-.61a.76.76,0,0,0-1.15-.72.36.36,0,0,0-.22.33,5.88,5.88,0,0,0,0,.73V74.9a4.89,4.89,0,0,1-5.22,5.25c-2.57,0-5.13,0-7.7,0a4.74,4.74,0,0,1-4.86-5V55.41a.77.77,0,0,0-1.15-.75.38.38,0,0,0-.23.39c0,.24,0,.49,0,.73V74.47a9.34,9.34,0,0,1-.12,1.58,4.8,4.8,0,0,1-4.71,4.09c-2.79,0-5.58,0-8.37,0a4.86,4.86,0,0,1-4.52-3.5c-.2-.65-.22-.66-.71-.21a18.32,18.32,0,0,1-11,4.35,24.75,24.75,0,0,1-8.53-.71,16,16,0,0,1-9.63-6.84c-.37-.55-.37-.55-.75,0a17,17,0,0,1-13.08,7.53,24.19,24.19,0,0,1-9.42-.86,16.23,16.23,0,0,1-9.53-7.28l-.06-.1c-.46-.75-.46-.75-1.23-.38a12,12,0,0,1-3.72,1.15,13.8,13.8,0,0,1-7.09-.7.72.72,0,0,0-1.06.32,16.81,16.81,0,0,1-12,8.07,25.51,25.51,0,0,1-11.78-.47,16.5,16.5,0,0,1-6.87-3.82c-.31-.29-.42-.27-.55.14a4.67,4.67,0,0,1-4.3,3.43,43.56,43.56,0,0,1-10.52-.11,10.14,10.14,0,0,1-4-1.38.62.62,0,0,0-.94.15,5.21,5.21,0,0,1-4.34,1.83,28.48,28.48,0,0,1-5.84-.25,11.57,11.57,0,0,1-6.93-4,5.78,5.78,0,0,1-1.07-2.11c.4,2.75-.48,4.85-2.88,5.93a5.89,5.89,0,0,1-2.45.45c-2.71,0-5.41,0-8.12,0-2.55,0-4.71-1.24-5.33-3.77-.08-.35-.21-.3-.44-.12a21.3,21.3,0,0,1-10.59,4.21A21.78,21.78,0,0,1,285,79.41a14.94,14.94,0,0,1-7.53-6.49c-.27-.5-.32-.49-.64.07a15.7,15.7,0,0,1-6.25,6.11A19,19,0,0,1,263,81.25a17.88,17.88,0,0,1-4.26-.18c-.58-.09-.64,0-.63.55a23.16,23.16,0,0,1-.26,4.32,8.08,8.08,0,0,1-8.53,7.12h-5.25a1.12,1.12,0,0,0-.6.06h-.12c-2.81-.52-4.25-2.26-4.25-5.17,0-3.48,0-7,0-10.45a1.31,1.31,0,0,0-.07-.67,22.87,22.87,0,0,1-14.22,4.5,20.92,20.92,0,0,1-13.92-5.2c-.19.11-.17.29-.21.44a4.92,4.92,0,0,1-4.41,3.72,43.56,43.56,0,0,1-6.46.21,26.3,26.3,0,0,1-5.08-.52,9.43,9.43,0,0,1-6.43-4.93c-.17-.32-.3-.59-.69-.19-2.77,2.85-6.29,4.19-10.11,4.89a26.39,26.39,0,0,1-5.39.51,18,18,0,0,1-8.64-2.09,13.17,13.17,0,0,1-6.79-10.29,15.57,15.57,0,0,1,.7-7,11.43,11.43,0,0,1,3-4.82,1.41,1.41,0,0,0,.42-.5,1,1,0,0,0-.94-.2,9.58,9.58,0,0,1-4,.53c-.36,0-.73,0-1.1,0a1.46,1.46,0,0,0-1.56,1.39,13.4,13.4,0,0,0-.16,2c0,5.08-.06,10.17,0,15.26a4.91,4.91,0,0,1-5,5c-2.17-.08-4.35,0-6.53,0a4.85,4.85,0,0,1-5.12-4.26.31.31,0,0,0-.14-.25c-.36.33-.71.69-1.1,1a18.34,18.34,0,0,1-7.25,3.38,28.13,28.13,0,0,1-7,.84A18.8,18.8,0,0,1,114.17,79a13.26,13.26,0,0,1-6.74-5.49c-.32-.51-.34-.51-.7,0A15.72,15.72,0,0,1,95.32,80a16.69,16.69,0,0,1-6.18-.38c-.62-.15-.66-.12-.66.53,0,1.31,0,2.61,0,3.91a7.69,7.69,0,0,1-8,8h-3.6a4.76,4.76,0,0,1-4.91-4.89c0-4,0-7.94,0-11.91a2.08,2.08,0,0,0,0-.66c-.11,0-.15,0-.2.11a16.78,16.78,0,0,1-10,5.22A22.4,22.4,0,0,1,50.5,79,16,16,0,0,1,40.39,68.9,29,29,0,0,1,38.9,61c-.1-1.49,0-3,0-4.44,0-.7,0-.71-.72-.72-.35,0-.69,0-1,0a1.47,1.47,0,0,0-1.55,1.41,17.69,17.69,0,0,0-.16,2.07q0,7.6,0,15.2a4.74,4.74,0,0,1-5,5H23.72a5,5,0,0,1-4-2A4.27,4.27,0,0,1,19,75.66V58.56A1.64,1.64,0,0,0,19,57.58Z"/><path class="cls-2" d="M249.47,93a.14.14,0,0,0,0,.11h-6c.08-.16.24-.12.37-.12Z"/><path class="cls-3" d="M19,57.58a.93.93,0,0,1,0,1Z"/><path class="cls-4" d="M495.82,64.59V55c0-3.28-1.82-5.13-5.11-5.21a7.61,7.61,0,0,0-3.34.51c-1.94.85-2.54,2.52-2.55,4.47q0,9.91,0,19.84c0,.6-.15.73-.73.72-2.34,0-4.68,0-7,0-.42,0-.55-.1-.54-.54,0-2.68,0-5.37,0-8.06,0-1.16.35-2.32.49-3.48a34.34,34.34,0,0,0,.12-6.33c-.07-1.16-.33-2.3-.37-3.44a9.56,9.56,0,0,1,.87-3.76,10.46,10.46,0,0,1,8.12-6.62,21.3,21.3,0,0,1,10.43.33,11.32,11.32,0,0,1,3.42,1.67c.15.12.28.32.56.12a13.17,13.17,0,0,1,6.69-2.3,22.65,22.65,0,0,1,8,.49c4.5,1.24,7,4.24,8,8.73a20.09,20.09,0,0,1,.37,4.24q0,9.21,0,18.44c0,.48-.08.67-.61.64a37.64,37.64,0,0,1-4.63-.15,3.36,3.36,0,0,1-3-3.63c0-5.42,0-10.83,0-16.24a5.44,5.44,0,0,0-1.49-4.24,5.36,5.36,0,0,0-3.41-1.26,7.78,7.78,0,0,0-3.25.35,4.09,4.09,0,0,0-2.8,3.58,13.34,13.34,0,0,0-.11,2c0,6.27,0,12.54,0,18.81,0,.54-.13.66-.67.66-2.34,0-4.68,0-7,0-.43,0-.54-.11-.53-.54Q495.83,69.68,495.82,64.59Z"/><path class="cls-5" d="M253.24,72.79v.73q0,5.22,0,10.45a6.31,6.31,0,0,1-.18,1.44,3.86,3.86,0,0,1-3.95,3.06c-1.55,0-3.1,0-4.64,0-.46,0-.52-.15-.52-.55,0-3.48,0-7,0-10.44,0-6.78,0-13.56,0-20.34a18.18,18.18,0,0,1,1.53-7.33,11.77,11.77,0,0,1,7.71-6.76A21.71,21.71,0,0,1,265.54,43c4.74,1.34,7.56,4.6,8.83,9.28a28.09,28.09,0,0,1,.7,9.79,20.71,20.71,0,0,1-2,7.9,11.6,11.6,0,0,1-8.85,6.34,12.26,12.26,0,0,1-7.88-1A10.88,10.88,0,0,1,253.24,72.79Z"/><path class="cls-5" d="M322.34,64.76q0,5.28,0,10.57c0,.43-.08.59-.56.58-2.77,0-5.53,0-8.3,0-.42,0-.55-.09-.55-.53,0-6.86,0-13.72.06-20.57a13.05,13.05,0,0,1,3.08-8.66,11.79,11.79,0,0,1,7.2-3.74,21.64,21.64,0,0,1,9.54.33c4.8,1.3,7.46,4.57,8.36,9.37a23.55,23.55,0,0,1,.37,4.36q0,9.41,0,18.81c0,.5-.12.65-.63.63-1.3,0-2.61,0-3.91,0a6.4,6.4,0,0,1-1.45-.18c-2.27-.54-3.38-2-3.38-4.47,0-5.37,0-10.75,0-16.12a6.08,6.08,0,0,0-.09-1.28A3.94,3.94,0,0,0,328,50.39a8.26,8.26,0,0,0-2.84.21,3.55,3.55,0,0,0-2.8,3.54c-.05,3.54,0,7.08,0,10.62Z"/><path class="cls-5" d="M289.3,53.54c0,3.38,0,6.76,0,10.13a10,10,0,0,0,.14,1.82,3.75,3.75,0,0,0,3.65,3.31,8.46,8.46,0,0,0,2.56-.06,3.82,3.82,0,0,0,3.4-4.14c0-4.76,0-9.52,0-14.28a31.31,31.31,0,0,1,.09-4.33,3.69,3.69,0,0,1,3.71-3.41c1.69-.06,3.38,0,5.07,0,.35,0,.4.15.39.44,0,.49,0,1,0,1.46,0,6,0,12.09,0,18.14a21.29,21.29,0,0,1-.83,6.19,9,9,0,0,1-5.13,5.9A20.15,20.15,0,0,1,293,76.49a16.38,16.38,0,0,1-9-3.17,9.55,9.55,0,0,1-3.52-6.07,22.74,22.74,0,0,1-.45-4.72c0-6.43,0-12.86,0-19.29,0-.58.17-.7.71-.69,2.64,0,5.29,0,7.94,0,.56,0,.65.17.64.68C289.29,46.66,289.3,50.1,289.3,53.54Z"/><path class="cls-5" d="M220.39,54c0,3.56,0,7.13,0,10.69a3.67,3.67,0,0,0,2.16,3.71,6.83,6.83,0,0,0,5.34,0A3.56,3.56,0,0,0,230,65.15a7.87,7.87,0,0,0,0-1q0-8.37,0-16.73a9.59,9.59,0,0,1,.12-1.7A3.72,3.72,0,0,1,234,42.57c1.65,0,3.3,0,4.95,0,.52,0,.41.31.41.59V58.22c0,1.83,0,3.66,0,5.49a18.39,18.39,0,0,1-.93,5.5,8.63,8.63,0,0,1-4.7,5.31c-5.26,2.41-10.55,2.76-15.94.4a10.28,10.28,0,0,1-6.4-8.72,29.55,29.55,0,0,1-.24-3.76c0-6.41,0-12.82,0-19.23,0-.55.14-.67.67-.66,2.68,0,5.37,0,8.06,0,.49,0,.59.14.59.61C220.38,46.76,220.39,50.36,220.39,54Z"/><path class="cls-4" d="M83.69,69.24v.65c0,4.62,0,9.24,0,13.86a5.86,5.86,0,0,1-.15,1.39c-.36,1.49-1.38,2.18-3.2,2.2-1,0-2,0-3.06,0-.48,0-.61-.13-.61-.62,0-5.16,0-10.33,0-15.5,0-4.6,0-9.2,0-13.8a19,19,0,0,1,1-6,10.9,10.9,0,0,1,7.74-7.35,20.88,20.88,0,0,1,11-.11,11.22,11.22,0,0,1,8.39,8.46A27.6,27.6,0,0,1,105.5,62a19.82,19.82,0,0,1-1.62,7,10.52,10.52,0,0,1-8.57,6.28A12.38,12.38,0,0,1,90.42,75,9.09,9.09,0,0,1,85,71c-.39-.59-.76-1.2-1.13-1.8Z"/><path class="cls-5" d="M364.12,60.09c0-4.05.37-7.3,1.73-10.37a12.23,12.23,0,0,1,9.93-7.39,20.33,20.33,0,0,1,9.58.61,11.87,11.87,0,0,1,7.16,6.12.54.54,0,0,1-.1.77,13.47,13.47,0,0,0-3.94,11.1,13,13,0,0,0,3.83,8.15.53.53,0,0,1,.1.76,11.69,11.69,0,0,1-7.11,5.92,19.9,19.9,0,0,1-11.64.11c-4.47-1.3-7.18-4.39-8.52-8.77A24.19,24.19,0,0,1,364.12,60.09Z"/><path class="cls-4" d="M458,42.66a16,16,0,0,1,7.72,1.54c3.34,1.68,5.19,4.53,6.19,8a6.22,6.22,0,0,1,.26,2.1c-.22,3.23-.16,6.47-.08,9.7a11.27,11.27,0,0,1-1.87,6.3,11.58,11.58,0,0,1-8.31,5.39,19.77,19.77,0,0,1-9.45-.45,11.68,11.68,0,0,1-8-8.46,27,27,0,0,1-.91-9.52,23,23,0,0,1,1.37-6.76,11.72,11.72,0,0,1,9.55-7.61A18,18,0,0,1,458,42.66Z"/><path class="cls-4" d="M71,66c-1.48,5.27-4.9,8.31-9.78,9.17a18.34,18.34,0,0,1-8.43-.44,11.58,11.58,0,0,1-8.25-8.56,27.25,27.25,0,0,1-.78-9.48,21.2,21.2,0,0,1,1.13-5.58,11.15,11.15,0,0,1,8.53-7.45,19.52,19.52,0,0,1,8.93,0c4.41,1.08,7.11,3.94,8.41,8.21a28.62,28.62,0,0,1,1,8.49c0,.53-.26.56-.68.56-6.51,0-13,0-19.54,0-.57,0-.72.14-.66.7a10.51,10.51,0,0,0,1.77,5.48A5.82,5.82,0,0,0,57,69.42a7.7,7.7,0,0,0,6.35-2.34A3.49,3.49,0,0,1,66,66C67.65,66,69.3,66,71,66Z"/><path class="cls-4" d="M136.24,57.77c-.06,1.8.08,4-.09,6.23-.44,5.51-3.13,9-8.42,10.49a20.62,20.62,0,0,1-10.17.56,8.83,8.83,0,0,1-7.35-9.46c.11-2.81,1-5.26,3.34-7a13.71,13.71,0,0,1,4.79-2c2.09-.51,4.24-.65,6.36-1A7.47,7.47,0,0,0,128,54.4a2.78,2.78,0,0,0-.35-4.88,6,6,0,0,0-2.26-.67,12.05,12.05,0,0,0-4.89.29,3.34,3.34,0,0,0-2.08,1.57c-.13.25-.3.27-.54.27-2,0-4.11,0-6.16,0-.42,0-.47-.12-.37-.49A8.53,8.53,0,0,1,117.62,44a22,22,0,0,1,13.41.43c3.52,1.22,5.21,3.8,5.21,7.53Z"/><path class="cls-4" d="M187.3,57.54v5.92a10.73,10.73,0,0,1-7.85,10.85,20.4,20.4,0,0,1-10.62.75c-5-1.07-7.63-4.54-7.44-9.68.16-4.3,2.37-7.06,6.73-8.4A38.06,38.06,0,0,1,175,55.75a8.5,8.5,0,0,0,4.33-1.44,2.73,2.73,0,0,0-.13-4.58,5.49,5.49,0,0,0-2.62-.88,12,12,0,0,0-4.89.29,3.34,3.34,0,0,0-2,1.54.54.54,0,0,1-.58.3c-2,0-4.07,0-6.11,0-.46,0-.49-.13-.39-.53A8.51,8.51,0,0,1,168.83,44a22.18,22.18,0,0,1,13.41.45,7.05,7.05,0,0,1,5,5.76,4.11,4.11,0,0,1,.07.78Z"/><path class="cls-5" d="M346.3,52.06q0-9,0-18c0-.5.07-.7.64-.68a36.43,36.43,0,0,0,3.91,0,4.72,4.72,0,0,1,4.75,4.7c0,1.34,0,2.69,0,4,0,.37.09.49.47.48,1.28,0,2.57,0,3.85,0,.4,0,.58.07.56.53a14.56,14.56,0,0,1-.2,3.09,4.42,4.42,0,0,1-4.16,3.33c-.45,0-.52.15-.52.56,0,5.49,0,11,0,16.48,0,1.33.72,1.63,1.62,1.66s1.83,0,2.74,0c.39,0,.53.08.53.5q0,3.14,0,6.29c0,.38-.11.52-.51.55a52.14,52.14,0,0,1-8.29,0c-2-.16-3.81-.83-4.74-2.86a7.94,7.94,0,0,1-.63-3.44Q346.31,60.64,346.3,52.06Z"/><path class="cls-5" d="M191.92,57.21c-.1-7.66-.06-15.33-.06-23,0-1-.14-.82.85-.83,1.3,0,2.6,0,3.91,0a4.58,4.58,0,0,1,4.49,4.4c0,1.4,0,2.8,0,4.21,0,.44.08.6.56.58,1.28,0,2.57,0,3.85,0,.36,0,.5.08.47.47a19.33,19.33,0,0,1-.12,3,4.45,4.45,0,0,1-4.2,3.44c-.47,0-.56.15-.56.59,0,5.47,0,10.94,0,16.42,0,1.18.47,1.66,1.66,1.69.93,0,1.87,0,2.81,0,.32,0,.4.09.4.41q0,3.24,0,6.47c0,.3-.06.43-.4.46a49.3,49.3,0,0,1-9.25-.13,5,5,0,0,1-4.4-4.78c-.18-2.62-.08-5.24,0-7.86C192,60.92,191.92,59.07,191.92,57.21Z"/><path class="cls-4" d="M435,53.15h-3.91a.57.57,0,0,1-.63-.34,5.28,5.28,0,0,0-5.56-3,5.45,5.45,0,0,0-5.05,4,18,18,0,0,0-.75,6.73,12.54,12.54,0,0,0,1.09,5.08,5.75,5.75,0,0,0,6.05,3.25,6.3,6.3,0,0,0,4.25-2.12,4,4,0,0,1,3.14-1.34c1.75,0,3.5,0,5.25,0,.57,0,.59.2.47.65-1.48,5.38-4.78,8.9-10.41,9.79a17.83,17.83,0,0,1-10.6-1.27,11.74,11.74,0,0,1-5.69-5.87.52.52,0,0,1,.1-.64,13.27,13.27,0,0,0,2.93-9.89,13.09,13.09,0,0,0-3-7.3.74.74,0,0,1-.1-.92,12,12,0,0,1,8.91-6.85,19.22,19.22,0,0,1,10.39.49c4.07,1.43,6.35,4.47,7.41,8.53.27,1,.26,1-.78,1Z"/><path class="cls-6" d="M411.78,59.33a9.58,9.58,0,1,1-9.53-9.56A9.57,9.57,0,0,1,411.78,59.33Z"/><path class="cls-4" d="M141.26,65.7c0-2.72-.09-5.45,0-8.17a15.12,15.12,0,0,1,2.81-8.72,12.44,12.44,0,0,1,7.41-4.53,27.61,27.61,0,0,1,5.8-.62c.44,0,.54.13.54.55,0,2.07,0,4.15,0,6.22,0,.49-.17.56-.6.56a15.45,15.45,0,0,0-4.18.28,6.15,6.15,0,0,0-4.61,5.37,17.86,17.86,0,0,0-.12,2.19c0,5.1,0,10.21,0,15.31,0,.52-.14.65-.64.64-1.93,0-3.87,0-5.8,0-.51,0-.69-.09-.68-.66,0-2.8,0-5.61,0-8.42Z"/><path class="cls-4" d="M23.64,65.72c0-2.72-.09-5.45,0-8.18a15,15,0,0,1,2.91-8.86,12.46,12.46,0,0,1,7.3-4.4,27.61,27.61,0,0,1,5.8-.62c.44,0,.55.12.54.55,0,2,0,4.11,0,6.16,0,.48-.11.63-.61.62a14.66,14.66,0,0,0-4.18.29,6.12,6.12,0,0,0-4.6,5.38,17.86,17.86,0,0,0-.12,2.19c0,5.09,0,10.18,0,15.26,0,.56-.15.68-.68.67-1.95,0-3.91,0-5.86,0-.45,0-.59-.1-.58-.57,0-2.83,0-5.66,0-8.49Z"/><path class="cls-1" d="M253.24,58.83a15,15,0,0,1,.63-4.56c1.07-3.36,3.47-4.3,6.51-4a5.27,5.27,0,0,1,4.69,4.11,16,16,0,0,1-.12,9.71,5.74,5.74,0,0,1-9.19,2.67,7.2,7.2,0,0,1-2.14-4.15A16.21,16.21,0,0,1,253.24,58.83Z"/><path class="cls-1" d="M83.7,58.82a17.2,17.2,0,0,1,.49-4.28c1-3.83,3.44-5.62,7.38-5.42a6.26,6.26,0,0,1,6,4.56A16.59,16.59,0,0,1,97.42,65,6.21,6.21,0,0,1,91,69.21c-3.6-.11-5.84-2-6.76-5.81A18.14,18.14,0,0,1,83.7,58.82Z"/><path class="cls-1" d="M373.54,59.52a14.16,14.16,0,0,1,1-6.15c1-2.21,2.73-3.17,5.34-3a4.65,4.65,0,0,1,4.27,3.44,16.82,16.82,0,0,1,.71,6.8,14.1,14.1,0,0,1-.82,4.16,5.14,5.14,0,0,1-7.8,2.54,6.23,6.23,0,0,1-2.32-4A15.43,15.43,0,0,1,373.54,59.52Z"/><path class="cls-1" d="M464.21,59.09a16.36,16.36,0,0,1-1.12,6.41c-1.77,4.15-7.21,4-9.34,1.49A8.3,8.3,0,0,1,452,63a19.11,19.11,0,0,1,.32-8.8,5.52,5.52,0,0,1,4.38-4.33c3.49-.64,6,1,6.95,4.49A16.92,16.92,0,0,1,464.21,59.09Z"/><path class="cls-1" d="M57.59,56.25H51.43c-.24,0-.5.07-.44-.35a9,9,0,0,1,2.36-5.53,6.31,6.31,0,0,1,10.34,2.81,14.69,14.69,0,0,1,.54,2.62c0,.41-.06.46-.42.45Z"/><path class="cls-1" d="M129.47,58.28c-.17,2.52.35,5-.65,7.32a6.82,6.82,0,0,1-5.74,4.2,7.54,7.54,0,0,1-2.84,0,4.25,4.25,0,0,1-3.13-4.93,4.8,4.8,0,0,1,3.76-3.88C123.73,60.14,126.66,59.61,129.47,58.28Z"/><path class="cls-1" d="M180.64,58.35c-.14,2.24.26,4.47-.42,6.64a6.9,6.9,0,0,1-5.93,4.81,9.16,9.16,0,0,1-2.91-.06,3.75,3.75,0,0,1-3-3,4.35,4.35,0,0,1,1.43-4.62,7.53,7.53,0,0,1,3.58-1.55,34,34,0,0,0,6.9-2.12Z"/><path class="cls-7" d="M123.3,65.09c-.28.08-.49.24-.83.13C122.76,65.12,123,65,123.3,65.09Z"/><path class="cls-8" d="M173.6,65.22l.58-.16C174,65.31,173.87,65.29,173.6,65.22Z"/></svg>