<svg id="Capa_1" data-name="Capa 1" xmlns="http://www.w3.org/2000/svg" viewBox="0 0 435 435"><defs><style>.cls-1{fill:#efc004;}.cls-2{fill:#fe2a2a;}.cls-3{fill:#020100;}.cls-4{fill:#010100;}.cls-5{fill:#020200;}.cls-6{fill:#010000;}.cls-7{fill:#040300;}.cls-8{fill:#030200;}.cls-9{fill:#0c0900;}.cls-10{fill:#060500;}.cls-11{fill:#050400;}.cls-12{fill:#070500;}.cls-13{fill:#080700;}.cls-14{fill:#070600;}.cls-15{fill:#191400;}.cls-16{fill:#0e0b00;}.cls-17{fill:#e6b903;}.cls-18{fill:#eebf04;}.cls-19{fill:#ebbd04;}.cls-20{fill:#ecbe04;}.cls-21{fill:#e8bb04;}.cls-22{fill:#e0b404;}.cls-23{fill:#e8ba04;}.cls-24{fill:#e4b704;}.cls-25{fill:#e7ba04;}.cls-26{fill:#eabc04;}.cls-27{fill:#e7b904;}.cls-28{fill:#e9bb04;}.cls-29{fill:#d9ae03;}.cls-30{fill:#d5ab03;}.cls-31{fill:#e1b504;}.cls-32{fill:#d7ac03;}.cls-33{fill:#dfb404;}.cls-34{fill:#deb204;}</style></defs><title>imagenes todoooo</title><path class="cls-1" d="M309,351.77a13.26,13.26,0,0,1-13.72,7.85c-2.13-.2-4.05.72-6.11.5a11.1,11.1,0,0,0-5.8,1,12.1,12.1,0,0,1-8,.56,2.82,2.82,0,0,0-2.22.39c-3.57,1.92-7.34,3-11.4,2.2a10.27,10.27,0,0,1-8-7c-.17-.46-.12-1.24-.95-1-.65.17-1.34.15-1.65,1.13-2.22,7.07-5.2,9.17-13,9.62-4.55.26-8.64-1.9-9.67-5.78-.29-1.05-1-.82-1.75-.77-5.62.4-11.27.14-16.83,1.52a12.49,12.49,0,0,1-9.61-1.74c-1.9-1.12-4.25-.83-6.39-1.17a143.63,143.63,0,0,1-44.16-14.36,5.92,5.92,0,0,0-4.45-.54c-10.72,2.52-20.64,1-29.24-6.35a23,23,0,0,1-5.81-7.87c-.24-.51-.26-1.14-1.21-.93-4.94,1.12-10,1.28-15,1.83-11.06,1.23-22.13,2.33-33.19,3.49-2.66.28-5.32.61-8,.85a8.49,8.49,0,0,1-8.67-4.8,8.39,8.39,0,0,1,1.71-9.59c.2-.22.39-.44.78-.86a35.4,35.4,0,0,0-6.8.44c-5,.41-9.19-2.76-9.65-7.53a8.49,8.49,0,0,1,8-9.31l19.78-1.92a2.85,2.85,0,0,0,.48-.13c0-.63-.52-.83-.83-1.17a8.2,8.2,0,0,1-1.82-8.48,7.59,7.59,0,0,1,6.58-5.59c6.28-.7,12.59-1.18,18.88-1.75a44.45,44.45,0,0,1,4.73-.35c2,0,1.26-.91.77-1.83a141.53,141.53,0,0,1-13-35.27,145.87,145.87,0,0,1-3.09-45.12c2.58-29.41,13-55.75,31.42-78.75,22.14-27.59,50.71-44.95,85.33-52.23a134.68,134.68,0,0,1,31.91-2.86c41.36,1.29,76.42,16.87,104.66,47.12,20.35,21.78,32.65,47.67,37.16,77.18a145.41,145.41,0,0,1-5.2,66.48c-.29.94-.49,1.5.8,1.76a15.21,15.21,0,0,1,9.66,6.21,26.38,26.38,0,0,1,15.16-10.21,22.56,22.56,0,0,1,11.19-.27c11.7,2.81,13.61,14,9.66,21.91a2.28,2.28,0,0,0,0,2.57c3.23,5.5,3.09,11.3.86,17-3.75,9.64-10.85,15.79-20.58,19-1.16.38-1.8.7-2,2.09a8.69,8.69,0,0,1-3.25,5.74c-.81.65-.81,1,.15,1.52,3.41,2,4.44,4.52,3.59,8.46-2,9.17-8.1,15-17,16.12a2,2,0,0,1-.72.08c-2.88-.86-5.26.62-7.78,1.57a18.08,18.08,0,0,1-13,.29,2,2,0,0,0-1.84.24c-4.21,2.42-8.64,3.19-13.31,1.5a1.93,1.93,0,0,0-1.85.27,16.12,16.12,0,0,1-6.33,2.17C314.44,357.54,311.36,356.06,309,351.77Z"/><path class="cls-2" d="M135.6,293.59c-.82-.32-1.26-.5-1.7-.66-5.17-1.9-7.21-5.85-5.62-11.13,1.71-5.67,5.57-9.75,10.13-13.26a33.91,33.91,0,0,1,19.41-7,13.18,13.18,0,0,1,6.72,1.36,6.33,6.33,0,0,1,3.49,4.85,14.34,14.34,0,0,1-2.76,11,6.26,6.26,0,0,1-4.48,2.52,17.43,17.43,0,0,1-6.52-.09c-2-.55-2.57-1.52-1.86-3.53.57-1.6,1.34-3.13,2-4.68a19.63,19.63,0,0,0,1.72-5.36c.09-.68.33-1.54-.49-2s-1.27.16-1.83.51a13.87,13.87,0,0,0-3.25,2.91,34.45,34.45,0,0,0-7,11.46,13.86,13.86,0,0,0-.68,5,5.39,5.39,0,0,0,5.26,5.48,17.81,17.81,0,0,0,6.86-.58c1.48-.46,2.19,0,2.52,1.41a27.7,27.7,0,0,1,.76,3.18c.23,2-.29,2.53-2.31,2.51a23.46,23.46,0,0,0-12.42,3,17.17,17.17,0,0,0-8.92,14.6c-.4,7.75,6.62,12.9,14.6,10.79,5.32-1.4,9.08-5,12.2-9.34a.82.82,0,0,0,.08-1.12c-2.11-3.21-1.83-6.64-.57-10A23.19,23.19,0,0,1,176,291c6.12-2,11.66,0,15.22,5.42.17.24.34.48.61.89,2.62-2.76,5.19-5.43,7.7-8.15a6.69,6.69,0,0,1,3.87-2.22c2.58-.41,5.14-.87,7.72-1.27a3.94,3.94,0,0,1,1.45.08c1.28.3,1.62,1,.72,2.07-3.28,4-6.53,8-9.84,12-2.26,2.71-4.58,5.37-6.9,8a1.63,1.63,0,0,0-.36,2c.93,2.12,1.7,4.3,2.66,6.4,1.22,2.67,3.61,3.65,6.17,2.26,3.6-2,6.43-4.46,7.11-9,1.06-7.08,2.61-14.08,4-21.11a4.51,4.51,0,0,1,2.48-3,17.1,17.1,0,0,1,7.08-2.21c3.58-.36,4.5.63,4,4.31a37.14,37.14,0,0,1,6.86-2.87c4.22-1.09,8.45-1.57,12.29,1.11,4.16,2.9,5.24,7.27,4.69,11.93a36.93,36.93,0,0,1-8.8,20.26c-3.65,4.22-8.51,6.33-13.83,7.55a22.1,22.1,0,0,1-6.88.38c-1.37-.13-1.9.26-2.16,1.67-1.35,7.39-2.86,14.77-4.24,22.16a4.39,4.39,0,0,1-2.25,3.14,15.57,15.57,0,0,1-9.06,2.26c-2.19-.16-2.82-1.09-2.39-3.22q3-15,5.91-30a6.47,6.47,0,0,0,0-1.11c-1.72,1.54-3.25,3-4.85,4.34a20.55,20.55,0,0,1-7.24,4.13c-4.42,1.33-8.23.1-10.85-3.7-.92-1.33-1.61-2.82-2.48-4.36-1.61,1.9-3.3,3.66-4.72,5.61-2.74,3.79-6.15,6-11,5.34-.77-.1-1.58,0-2.37,0s-1.72.21-2.13-.65.32-1.5.78-2.1c4.63-6,9.25-12.06,14-18,1-1.28,1.38-2.4.63-3.91-.65-1.3-.91-2.78-1.76-4a3.49,3.49,0,0,0-4.61-1.42c-4,1.84-6.32,5.21-7.77,9.22-.53,1.48.75,1.15,1.52,1.12.92,0,1.78-.2,1.17,1.25-3.92,9.31-9.68,17.07-19,21.53-8.89,4.26-17.86,4.62-26.4-.93-7.46-4.84-9.74-13.88-5.71-21.82.55-1.09,1.91-1.82,2.34-2.94,1.39-3.67,4-6.34,6.82-8.83A71.08,71.08,0,0,1,135.6,293.59Z"/><path class="cls-2" d="M341,262.56c1.38-4,2.73-7.76,3.81-11.6a133.92,133.92,0,0,0,4.67-27A133.48,133.48,0,0,0,275,94.5a130.82,130.82,0,0,0-39.18-12.09A135.65,135.65,0,0,0,211,81.09,133.35,133.35,0,0,0,83.19,221.55a130.85,130.85,0,0,0,17.66,59.53c1,1.63.31,1.78-1,1.86-.79,0-1.58,0-2.37.11-3.3.28-3.28.28-4.87-2.72a140.22,140.22,0,0,1-14.86-44.95,136.12,136.12,0,0,1-1.45-27.28A140.44,140.44,0,0,1,195.73,75.67a133,133,0,0,1,25.45-1.48c30.57,1.3,58,11.21,82.11,30.12a140.34,140.34,0,0,1,51.84,89.13A134,134,0,0,1,356.59,220a141.38,141.38,0,0,1-7.07,38.76,2.28,2.28,0,0,1-2.1,1.84A30.33,30.33,0,0,0,341,262.56Z"/><path class="cls-2" d="M361.45,297.33c-.91,4.92-3.78,8.65-7.46,11.76a24.66,24.66,0,0,1-17.34,6c-5.58-.21-9-2.45-10.46-7.6a54,54,0,0,1-5.66,4.9c-5,3.49-10.33,5.82-16.57,5.75-7.58-.1-12.15-3.81-13.65-11.28-2.36-11.74,4.66-25.67,15.5-30.74a19.67,19.67,0,0,1,12.81-1.43c5.48,1.2,8.26,5.69,7.27,11.61a1.16,1.16,0,0,0,0,.18c-.26,3.76-2,6.23-5.57,7.93-4.69,2.27-9.08,5.16-13.64,7.71-1.06.6-1.22,1.12-.58,2.12a7.11,7.11,0,0,0,5.46,3.23,14.83,14.83,0,0,0,15.36-9.77c.56-1.62,1.2-3.06,3.33-3.27,3.12-.29,6.22-.84,9.55-1.31-.64,1.91-1.57,3.42-1.92,5.16-.65,3.24.93,5.25,4.22,5.22a7.18,7.18,0,0,0,7.17-5.32c.56-2.58-.46-4.31-3-4.93a25,25,0,0,0-3.76-.64c-5.84-.52-9.28-5.49-7.84-12.16C336,274,342,268.77,348.86,267.67a15.46,15.46,0,0,1,7.73.3,7.51,7.51,0,0,1,4.12,10.63,1.72,1.72,0,0,1-.69.8,17.27,17.27,0,0,1-7.33.94c-1-.07-1-1.32-1-2.11.06-2.08-1.59-2.48-3.18-2a4.81,4.81,0,0,0-3.18,2.79c-1.16,2.66,0,4.67,2.94,4.79,3.22.14,6.47.11,9.35,1.86a8,8,0,0,1,4.18,6.84c.33,1,.11,2.09.59,3.11C362.74,296.35,362.06,296.91,361.45,297.33Z"/><path d="M253.61,322.84c2,3.09,2.53,6.61,3,10.21a49,49,0,0,1,6.54-10.29c1.77-2.17,3.6-4.32,6.48-5.1,3.53-1,5.86.81,5.25,4.37-1.14,6.77-2.57,13.49-3.88,20.22-.56,2.93-1.14,5.85-1.69,8.77-.15.78-.32,1.74.52,2.1s1.49-.54,2-1.2a3.31,3.31,0,0,0,.49-2.59c-.54-5.56,1-10.35,5.43-14a11.9,11.9,0,0,1,4-2.14c2.77-.87,4.13-.63,6.44,1.14a6.24,6.24,0,0,1,6.3-4c1.76,0,2.12.49,1.78,2.24q-1.2,6.17-2.39,12.34a10,10,0,0,0-.22,1.62c0,.72-.07,1.61.94,1.68s.95-.68,1.08-1.38c.84-4.6,1.72-9.19,2.61-13.79.5-2.57,4.71-4.76,7.19-3.83,1.19.45.68,1.38.8,2.19.69.07,1-.51,1.5-.81a8.64,8.64,0,0,1,7.49-1.18,4.12,4.12,0,0,1,3,4.42c-.22,2.24-1.18,3.25-3.55,3.54-1,.11-1.94,0-2.91.05s-1.49-.26-1.71-1.38c-.38-2-1.61-2.34-3.07-.9a9.71,9.71,0,0,0-2.61,5.13c-.64,3.21-1.25,6.43-1.86,9.65-.53,2.78-5.53,4.87-7.78,3.16-.59-.45-.84-.29-1.33-.1-.9.34-1.82.65-2.75.93-1.9.55-3.6.36-4.75-1.48-5.46,4.55-9,4.79-12.47.73a10.05,10.05,0,0,1-8,5.23c-3.19.45-5.15-1.15-5.25-4.42-.1-3.57,1-7,1.66-10.42.81-4.48,1.78-8.93,2.66-13.4a1.82,1.82,0,0,0-.1-1.53,8.84,8.84,0,0,0-2,2.3,44.12,44.12,0,0,0-5.84,13.47,2.46,2.46,0,0,1-2.84,2.16c-1.4-.08-2.09-.67-2-2.19a42.8,42.8,0,0,0,0-10.18,6.47,6.47,0,0,0-1.77-3.95c-1,5-2,9.74-3,14.53-.89,4.4-1.76,8.81-2.65,13.21-.13.65-.25,1.34-.95,1.68a12.48,12.48,0,0,1-7.11,1.12c-1.45-.18-1.08-1.42-.91-2.33.86-4.54,1.77-9.06,2.68-13.59,1.11-5.59,2.25-11.18,3.36-16.78.09-.46.08-.95.15-1.84-3.4,3.23-5.44,6.72-5.68,11.11a3.08,3.08,0,0,0,.9,2.51c.77.69,1.1,1.31.43,2.29-.94,1.38-1.51,3.17-3.65,3.1a2.77,2.77,0,0,1-2.53-2.06,13,13,0,0,1-.51-6.11c.75-7.77,6.76-14.86,14.08-16.61a16.81,16.81,0,0,1,5.25-.16A3.83,3.83,0,0,1,253.61,322.84Z"/><path d="M361.7,330.11c.49-2.32,1-4.63,1.45-6.95.17-.8.41-1.6-1-1.42-.72.1-1.08-.43-1.12-1.14-.06-1.21.4-2.46,1.49-2.65,1.88-.32,2.09-1.55,2.16-2.93.16-2.93,2.44-3.44,4.57-4.16a2.35,2.35,0,0,1,3.41.3c.37,1.5-.37,2.86-.54,4.29,0,.42-.44,1.08.43,1.05s1.75-.22,1.7,1.15-.19,2.65-1.52,2.77c-1.69.16-1.84,1.15-2.08,2.36-.86,4.48-1.75,8.94-2.62,13.41a5.44,5.44,0,0,0-.1,1.27c0,1.42.81,1.81,2,1a5.17,5.17,0,0,0,1.95-3.19c.57-1.91.55-1.92,2.73-1.83a12.24,12.24,0,0,1-10.33,11.22c-1.41.17-2.83.2-3.73-1.26-.62-1-1,0-1.37.23-3.11,2.39-6.49,4-10.52,4-2.85,0-5.24-.93-6.82-3.62-2.45,2.88-5.22,5.22-9.18,5.2-4.35,0-6.33-3-7.69-6.75a12.47,12.47,0,0,0-.89,3.45c-.66,3.37-2,4.62-5.43,5-2.58.27-3-.23-2.56-2.72q2.76-14.11,5.5-28.24c.49-2.52,5-4.71,7.34-3.57.89.43.7,1.14.55,1.87q-1,5.18-2.05,10.36a1.69,1.69,0,0,0,.05.31,38.85,38.85,0,0,1,3.87-2.92c1.67-.87,3.39-1.59,5.18-.52s2.25,2.94,2.18,4.91a11.54,11.54,0,0,1-4.66,8.72c-1.09.88-1.47,1.62-.86,2.89a2.93,2.93,0,0,0,3.12,2,5.72,5.72,0,0,0,4.6-5.1c.06-6.75,4.8-13.13,10.95-14.75A11.89,11.89,0,0,1,357,324c3,.52,4.21,2.18,4.42,5.73a10.15,10.15,0,0,1-.52,2.94c-.17.95-.91,1.37-1.65,1.82-2.44,1.48-5,2.79-7.44,4.22-.45.27-1.13.42-1.05,1.1s.71.94,1.26,1.19a6.05,6.05,0,0,0,7.94-4.24,24.84,24.84,0,0,1,1-4.07C361.36,331.88,361.08,330.86,361.7,330.11Z"/><path class="cls-2" d="M372.69,311.16a6,6,0,0,0-3.42-.3c-1-.49-2.09-.89-3.06-1.47-3.15-1.89-4.17-4.93-4.41-8.4-.09-1.22.42-2.51-.36-3.66,1.08-1.54.06-3.24.36-4.84.52.53.07,1.31.6,2.19.47-3.78,3-4.55,6-4.76,1.93-.13,3.84-.55,5.76-.86.41-.07.91-.36,1.2,0s-.12.89-.34,1.29a13.38,13.38,0,0,0-1.43,3.92c-.63,3.17,1.36,5.39,4.59,5.14,3.71-.3,6.43-2.61,6.92-5.88a3.52,3.52,0,0,0-2.67-4.32,15.83,15.83,0,0,0-3.38-.68c-6.88-.48-10.23-5.85-8.56-12.56,1.85-7.39,7.31-11,14.35-12.65a13.27,13.27,0,0,1,7.54.35,7.48,7.48,0,0,1,4.14,10.62,2.77,2.77,0,0,1-2.4,1.41,41,41,0,0,0-4.16.48c-1.61.34-2.22-.39-2.46-1.83-.47-2.72-1.65-3.25-4.14-2a4.75,4.75,0,0,0-2.28,2.5c-1,2.35-.13,4.08,2.33,4.7a15.33,15.33,0,0,0,3.64.16c7.93.12,12.38,6,10.28,13.67a24.58,24.58,0,0,1-20.65,17.4Z"/><path d="M275.17,205.67q3-20.56,5.94-41.12c.17-1.2.54-1.8,1.93-1.69a46.3,46.3,0,0,0,5.65,0c1.16-.06,1.43.22,1.22,1.41-1.2,6.82-2.28,13.66-3.43,20.49-1.9,11.26-3.85,22.5-5.71,33.77-.2,1.2-.65,1.48-1.75,1.46q-4.2-.09-8.39,0c-1.07,0-1.45-.35-1.63-1.42q-4.49-26.86-9.07-53.71c-.29-1.64.08-2.15,1.76-2a48.57,48.57,0,0,0,5.66,0c.9,0,1.24.25,1.38,1.19q2.65,18.31,5.4,36.6c.25,1.68.52,3.35.78,5Z"/><path d="M145.63,190.26c.19-4.93-.4-11,.25-17.09s4.21-10,10.4-10.88c5.21-.72,10.12,0,13.63,4.59,2.07,2.68,2.47,5.88,2.62,9.12.23,4.94.21,4.95-4.71,5.17-3.66.16-3.63.16-3.7-3.61a20.85,20.85,0,0,0-.35-3.62,4.66,4.66,0,0,0-9.14-.08,8.28,8.28,0,0,0-.23,1.79q0,15.79,0,31.58c0,3.69,2,5.74,5.28,5.48,2.29-.19,3.71-1.6,4.17-4.11a41.39,41.39,0,0,0,.27-7.46c0-1,.19-1.46,1.3-1.36,1.94.16,3.88.22,5.82.32.68,0,1.33,0,1.31,1,0,3.28.24,6.59-.45,9.82-1.56,7.29-7.1,10.24-13.92,9.82-8.33-.53-12.51-5.29-12.55-13.68C145.61,201.87,145.63,196.63,145.63,190.26Z"/><path d="M208.45,191.34c0-8.88,0-17.76,0-26.64,0-1.41.32-1.9,1.8-1.83,4.49.18,9-.34,13.48.23,7.11.91,10.56,4.37,11.54,11.48a37.7,37.7,0,0,1,0,10c-1,7.63-5.54,11.58-13.25,11.8h-.18c-1.45,0-3.37-.47-4.24.27-1,.86-.33,2.85-.34,4.34,0,5.72-.08,11.44,0,17.15,0,1.59-.47,2-1.94,1.87a40.6,40.6,0,0,0-5.29,0c-1.33.08-1.61-.44-1.6-1.67C208.47,209.34,208.45,200.34,208.45,191.34Z"/><path class="cls-2" d="M253.61,322.84a10.67,10.67,0,0,0-3.63-2.53c1.66-7,2.58-14.21,4-21.28,1.06-5.17,2-10.36,2.95-15.55a3.72,3.72,0,0,1,1.63-2.53,15,15,0,0,1,9.26-2.76c2.7.11,3.28.95,2.71,3.59a1.15,1.15,0,0,0,.07,1.05c.73-.07,1.13-.65,1.64-1.05,4.07-3.18,8.58-4.45,13.67-3.12,4.55,1.19,6.57,4.4,6.07,9.58-.29,3.05-3.12,5.08-7.46,5.32-1,.05-1.95,0-2.92,0-3.27-.12-3.37-.2-4.12-3.26-.71-2.9-2.7-3.55-4.93-1.55a15.68,15.68,0,0,0-4.92,8.78c-1.28,6.42-2.43,12.87-3.66,19.31a5.25,5.25,0,0,1-2.9,3.9A17.82,17.82,0,0,1,253.61,322.84Z"/><path class="cls-2" d="M106.82,300.55c3.48-.1,5.36,1.39,5.51,3.91s-1.47,4.21-4.24,4.49c-9.84,1-19.69,1.95-29.53,2.95q-17.3,1.75-34.6,3.55c-1.51.15-3,.34-4.53.37a4.32,4.32,0,0,1-4.42-4,4,4,0,0,1,3.53-4.37c4.39-.59,8.81-1,13.21-1.42q10.43-1.07,20.84-2.1c6.64-.66,13.29-1.29,19.94-1.94C97.48,301.51,102.43,301,106.82,300.55Z"/><path class="cls-2" d="M115.47,285.25c1.53,0,3.5,1.76,3.74,3.88A4.1,4.1,0,0,1,116,293.6c-3.29.52-6.63.75-9.95,1q-14.31,1.28-28.64,2.51c-4.17.37-8.34.76-12.51,1.08a4.34,4.34,0,0,1-4.63-3.78,4,4,0,0,1,3.27-4.56c3.23-.52,6.51-.72,9.77-1q14.13-1.27,28.28-2.5C106,286,110.41,285.66,115.47,285.25Z"/><path class="cls-2" d="M55,330.5c-3.19.09-5.07-1.4-5.24-3.92s1.56-4.2,4.4-4.51c10.73-1.17,21.46-2.39,32.19-3.55,5.25-.57,10.5-1.13,15.76-1.55,2.84-.23,4.66,1.36,4.78,3.79.14,2.75-1.46,4.32-4.44,4.64-8.38.88-16.76,1.86-25.14,2.76C69.77,329,62.23,329.75,55,330.5Z"/><path class="cls-2" d="M155.14,340.27c1.33-.91,2.68-1.79,4-2.75a1,1,0,0,1,1.31.08,10.32,10.32,0,0,0,6.59,1.63,11.16,11.16,0,0,1,4.61.87,118.9,118.9,0,0,0,24.29,6.1c1.43.21,1.82.8,1.43,2.11a9.85,9.85,0,0,0-.7,3.37c.11,1.46-.64,1.56-1.8,1.36-5-.86-10-1.86-14.93-3.2a139,139,0,0,1-23.54-8.67A2.11,2.11,0,0,1,155.14,340.27Z"/><path class="cls-3" d="M123.85,241.31c0,2.42,0,4.85,0,7.27,0,1-.2,1.42-1.3,1.42s-1.12-.55-1.12-1.36c0-4.38,0-8.76,0-13.14,0-.57-.19-1.36.79-1.24.79.09,1.86-.57,2.25.83a54,54,0,0,0,2.43,7c0-2.2,0-4.39,0-6.58,0-.82,0-1.36,1.12-1.36s1.31.45,1.3,1.42c0,4.32,0,8.63,0,12.95,0,.65.17,1.39-.91,1.41-.9,0-1.59,0-1.89-1.15-.67-2.56-1.5-5.07-2.27-7.6Z"/><path class="cls-3" d="M243.14,242c0-2.18,0-4.37,0-6.55,0-1,.33-1.25,1.26-1.26s1.24.36,1.23,1.29c0,4.37,0,8.75,0,13.12,0,.69.08,1.37-1,1.35-.8,0-1.55.12-1.85-.95a63.94,63.94,0,0,0-2.68-8c0,2.48,0,5,0,7.43,0,.84,0,1.51-1.17,1.53s-1.31-.63-1.3-1.59c0-4.19,0-8.38,0-12.57,0-.64-.37-1.58.86-1.6,1,0,2-.21,2.35,1.26.53,2.22,1.28,4.38,1.93,6.57Z"/><path class="cls-3" d="M138.8,242.09c0-2.12.06-4.25,0-6.37-.05-1.24.4-1.65,1.57-1.5a6.61,6.61,0,0,0,1.09,0c1.75-.06,3.62,0,4.38,1.83.85,2.06,1,4.3-.53,6.19a1.64,1.64,0,0,0-.27,1.8c.46,1.44.93,2.89,1.29,4.35.12.49,1,1.33-.25,1.52-.79.12-1.84.44-2.16-.93-.36-1.53-.83-3-1.27-4.54-.13-.44-.18-1-.85-1s-.51.71-.51,1.15c0,1.39,0,2.79,0,4.18,0,.84-.22,1.21-1.12,1.19s-1.39-.09-1.36-1.16C138.84,246.58,138.8,244.34,138.8,242.09Z"/><path d="M273.71,242.36c0-2.25,0-4.5,0-6.75,0-.79,0-1.38,1.11-1.38s1.17.46,1.16,1.32c0,4.38,0,8.76,0,13.14,0,.57.19,1.3-.8,1.24-.74-.05-1.55.26-1.86-.91-.67-2.52-1.47-5-2.25-7.49-.1-.3,0-.75-.56-.92,0,2.7,0,5.36,0,8,0,.84-.08,1.33-1.15,1.33s-1.12-.56-1.12-1.37c0-4.32,0-8.64,0-13,0-.62-.23-1.45.88-1.37.84.06,1.8-.35,2.15,1,.61,2.39,1.41,4.73,2.13,7.09Z"/><path class="cls-3" d="M188.1,242.1c0-2.13.07-4.25,0-6.37-.06-1.24.39-1.64,1.56-1.51.66.07,1.34,0,2,0,2.62.07,3.9,1.31,4,4s0,5.09,0,7.64c0,2.85-1.28,4.06-4.14,4.15-3.36.1-3.36.1-3.36-3.32Z"/><path class="cls-4" d="M169.73,242c0-2.13,0-4.26,0-6.39,0-.5-.21-1.1.55-1.36,1.7-.58,5.34.15,6.17,1.28,1.08,1.46,1,5.21-.29,6.71a1.43,1.43,0,0,0-.31,1.6c.49,1.5,1,3,1.36,4.53.12.45.85,1.25-.12,1.46-.77.16-1.89.55-2.27-.77-.45-1.58-.88-3.16-1.34-4.73-.12-.45-.17-1.06-.87-.93s-.37.68-.38,1c0,1.4-.05,2.8,0,4.2,0,.9-.18,1.29-1.19,1.29s-1.38-.34-1.35-1.38C169.78,246.41,169.73,244.22,169.73,242Z"/><path class="cls-4" d="M228.17,242.08c0-1.39,0-2.79,0-4.18.1-2.45,1.4-3.8,3.66-3.89,2.44-.09,3.93,1.12,4,3.62.15,3,.15,6,0,8.91-.12,2.52-1.59,3.71-4.05,3.62-2.24-.08-3.56-1.45-3.67-3.89C228.12,244.88,228.17,243.48,228.17,242.08Z"/><path class="cls-4" d="M237.24,219.88c-4.44.11-4.46.11-4.43-4.27,0-1.56-.67-3.57.3-4.55s3-.29,4.55-.3c4.33,0,4.33,0,4.33,4.27a1.08,1.08,0,0,1,0,.18c-.11,1.56.68,3.63-.35,4.52C240.78,220.48,238.76,219.88,237.24,219.88Z"/><path class="cls-4" d="M182.11,210.74c4.79,0,4.81,0,4.78,4.48,0,1.51.64,3.45-.25,4.4s-3,.34-4.52.34-3.31.68-4.14-.32c-.7-.84-.23-2.66-.27-4v-.18c.11-1.5-.64-3.43.3-4.38S180.89,210.89,182.11,210.74Z"/><path class="cls-3" d="M204.68,241.07c0,1.77,0,3.53,0,5.29-.06,2.52-1.29,3.78-3.65,3.81s-3.73-1.14-3.78-3.65c-.06-3.71,0-7.42,0-11.13,0-1,.49-1.15,1.34-1.18s1.09.41,1.08,1.21c0,3.47,0,6.93,0,10.4,0,1,0,2,1.26,2s1.31-1,1.3-2c0-3.4,0-6.81,0-10.21,0-.9,0-1.48,1.22-1.44s1.35.4,1.31,1.4C204.64,237.42,204.68,239.25,204.68,241.07Z"/><path class="cls-5" d="M293.54,241.07c0-1.76,0-3.52,0-5.28,0-1,0-1.62,1.3-1.6s1.18.69,1.17,1.54c0,3.4,0,6.8,0,10.2,0,.89,0,1.85,1.15,1.89s1.4-.92,1.4-1.9c0-3.4,0-6.8,0-10.2,0-.83-.09-1.52,1.15-1.53s1.32.64,1.32,1.59c0,3.46,0,6.92,0,10.39,0,2.77-1.27,4-3.8,4s-3.61-1.34-3.63-4C293.53,244.47,293.54,242.77,293.54,241.07Z"/><path class="cls-6" d="M147.76,242.1c0-1.52,0-3,0-4.55a3.44,3.44,0,0,1,3.76-3.54c2.28,0,3.81,1.23,3.88,3.43.09,3.09.08,6.19,0,9.28-.06,2.19-1.59,3.47-3.86,3.46a3.46,3.46,0,0,1-3.78-3.53C147.72,245.13,147.76,243.61,147.76,242.1Z"/><path class="cls-4" d="M178.67,242c0-1.52-.08-3,0-4.55a3.37,3.37,0,0,1,3.5-3.42c2.28-.11,3.77.84,4,3a42,42,0,0,1,0,10.15c-.26,2.17-1.72,3.09-4,3a3.37,3.37,0,0,1-3.49-3.43C178.59,245.15,178.67,243.56,178.67,242Z"/><path class="cls-4" d="M317.92,249.27c.76-4.66,1.54-9.32,2.27-14,.18-1.19,1-1,1.76-1s1.6-.16,1.79,1c.73,4.49,1.52,9,2.26,13.45.08.49.36,1.21-.57,1.2-.65,0-1.54.38-1.8-.69a7.69,7.69,0,0,1-.21-1.44c0-.93-.33-1.4-1.41-1.39s-1.44.32-1.55,1.42c-.22,2.35-.31,2.35-2.5,1.9C317.74,249.59,317.73,249.44,317.92,249.27Z"/><path class="cls-7" d="M113.23,242c0-2.13,0-4.26,0-6.39,0-1,.33-1.4,1.36-1.35,1.4.07,2.8.06,4.2,0,.93,0,1.26.24,1.27,1.22s-.48,1.23-1.33,1.14h-.37c-2.72,0-3.2.67-2.66,3.45.25,1.28,1.23.6,1.89.78s1.52-.4,1.66.83-.3,1.62-1.51,1.55c-.65,0-1.76-.46-1.93.4a6.67,6.67,0,0,0,.12,3.74c.35.79,1.79.32,2.72.27,1.18-.05,1.47.38,1.4,1.47,0,.74-.34.93-1,.92-1.52,0-3,0-4.56,0-1,0-1.27-.35-1.25-1.28C113.26,246.46,113.23,244.21,113.23,242Z"/><path class="cls-4" d="M206.26,242.56c0-1.94-.08-3.47,0-5,.17-2.65,1.77-3.86,4.45-3.53a3.81,3.81,0,0,1,3.11,4.42c-.11,1-.8.68-1.32.8s-1.12.19-1.15-.65c0-.31,0-.61-.05-.91-.07-.83-.47-1.45-1.34-1.41s-1.21.74-1.21,1.55c0,2.79,0,5.59,0,8.39,0,.89.32,1.63,1.31,1.62s1.3-.79,1.26-1.66c-.06-1.25.09-2.23,1.73-1.8a.91.91,0,0,1,.71.48c.68,1.48-.63,4.48-2.24,5.08a3.67,3.67,0,0,1-5-2.2C206,245.91,206.4,244,206.26,242.56Z"/><path class="cls-5" d="M161.08,242c0-2.12,0-4.24,0-6.36,0-.5-.2-1.09.56-1.35,1.56-.53,5.16.14,6,1.17,1.07,1.28,1.23,4.84.29,6.43a3.49,3.49,0,0,1-3.25,1.63c-1,0-1.24.38-1.2,1.28.06,1.34,0,2.67,0,4,.06,1-.34,1.23-1.26,1.24s-1.24-.4-1.22-1.31C161.11,246.45,161.08,244.21,161.08,242Z"/><path class="cls-8" d="M259.94,242c0-2.13.06-4.26,0-6.38-.05-1.15.36-1.49,1.45-1.44,1.46.08,2.92.06,4.38,0,1,0,1,.53,1,1.28s-.25,1.14-1.05,1.07c-.3,0-.61,0-.91,0-2.46,0-2.38,0-2.47,2.55-.05,1.36.33,1.86,1.71,1.71.74-.08,1.72-.41,1.76,1.08s-1,1.31-1.8,1.21c-1.44-.19-1.84.42-1.65,1.73a5.49,5.49,0,0,1,0,1.46c-.12,1,.24,1.46,1.3,1.33.6-.07,1.22,0,1.83,0,.91-.08,1.29.21,1.3,1.21s-.55,1.19-1.37,1.14c-1.75-.11-4,.71-5.13-.32s-.25-3.21-.36-4.88C259.89,243.86,259.94,243,259.94,242Z"/><path class="cls-8" d="M302.93,242.11c0-2.19,0-4.38,0-6.56,0-1.05.33-1.39,1.36-1.34,1.39.08,2.79,0,4.19,0,.82,0,1.19.2,1.2,1.11s-.27,1.38-1.24,1.24a2.29,2.29,0,0,0-.37,0c-2.73,0-3.18.65-2.66,3.43.24,1.3,1.21.62,1.87.8s1.5-.42,1.6.85-.31,1.6-1.51,1.53c-.63,0-1.69-.48-1.87.46a5.72,5.72,0,0,0,.14,3.73c.37.67,1.58.21,2.41.25s1.67-.15,1.64,1.23-.77,1.16-1.56,1.11c-1.68-.1-3.91.75-4.88-.36-.83-.94-.26-3.12-.29-4.76C302.91,243.93,302.93,243,302.93,242.11Z"/><path class="cls-8" d="M278.09,242.05c0-2.19,0-4.37,0-6.56,0-.93.24-1.32,1.22-1.28,1.46.07,2.92.06,4.38,0,.89,0,1.15.32,1.14,1.17s-.19,1.3-1.12,1.18a5.77,5.77,0,0,0-.72,0c-2.26,0-3.23,1.47-2.38,3.67.4,1,1.39.58,2.06.52,1.46-.14,1.44.72,1.33,1.68-.14,1.23-1.13.51-1.71.7s-1.55-.43-1.66.55c-.13,1.24-.47,2.65.2,3.72.4.63,1.6.16,2.43.21s1.56-.21,1.58,1.1-.73,1.29-1.61,1.25c-1.63-.08-3.72.67-4.77-.29s-.25-3.1-.34-4.71C278,244,278.09,243,278.09,242.05Z"/><path class="cls-4" d="M215,242c0-1.46,0-2.92,0-4.38.09-2.6,1.71-3.9,4.37-3.58,2.13.25,3.33,2.07,3.06,4.37-.13,1.12-.91.73-1.47.87-.75.18-1-.25-.92-.92a4.45,4.45,0,0,0,0-.73c-.09-.73-.43-1.34-1.22-1.34a1.25,1.25,0,0,0-1.31,1.43c0,2.91,0,5.83,0,8.74,0,.85.44,1.46,1.32,1.39s1.27-.85,1.22-1.72c-.06-1.12-.08-2.14,1.55-1.78.38.09.75.23.77.65.09,1.45.25,3-.89,4.13a4,4,0,0,1-4.24.81,3.12,3.12,0,0,1-2.22-3.21C215,245.17,215,243.59,215,242Z"/><path class="cls-4" d="M104.3,242c0-1.4,0-2.8,0-4.19.09-2.63,1.49-3.91,4-3.78,2.29.11,3.55,1.76,3.45,4.24,0,1.05-.67.92-1.32,1s-1.15-.12-1.07-.94a3,3,0,0,0,0-.73c-.13-.72-.47-1.32-1.26-1.32s-1.28.58-1.29,1.43v8.57c0,.81.28,1.5,1.17,1.56s1.32-.68,1.4-1.55c0-.3,0-.6,0-.91,0-.57,0-1.13.82-1.05.64.06,1.45-.14,1.52.85.19,2.65-.45,5.16-4.13,5a3.28,3.28,0,0,1-3.29-3.43c-.09-1.57,0-3.15,0-4.73Z"/><path class="cls-6" d="M254.67,245.13c.49-3.22,1.06-6.44,1.43-9.68.16-1.43,1-1.24,1.9-1.16,1.26.11.54,1,.46,1.5-.69,4.31-1.48,8.6-2.13,12.91-.16,1.05-.59,1.33-1.53,1.24s-1.82.34-2-1.08c-.73-4.55-1.53-9.08-2.32-13.62-.12-.71.13-1,.86-1s1.56-.25,1.7,1c.26,2.41.69,4.8,1.05,7.2.14.89.29,1.77.44,2.66Z"/><path class="cls-5" d="M288.76,250c-4,0-4.07-.09-2.62-3.92,1-2.72,2-5.46,3.08-8.15.44-1.07.27-1.44-.89-1.34-.48,0-1,0-1.45,0-1,.1-1.29-.28-1.28-1.23s.37-1.16,1.2-1.13c1.28,0,2.55,0,3.83,0,1.89,0,2.3.52,1.67,2.43s-1.48,4-2.23,6c-.49,1.3-1,2.61-1.5,3.89-.41.94-.08,1.21.83,1.14a5,5,0,0,1,1.09,0c.82.11,2-.55,2,1.2s-1.3,1-2.09,1.11A8.85,8.85,0,0,1,288.76,250Z"/><path class="cls-4" d="M217.94,145.66c0-1.82,0-3.64,0-5.47,0-.38-.16-.83.42-1.06,1-.4,4.36.12,5.06.84,1,1,1.39,4,.36,5.31s-.65,2.06-.28,3.16a26.08,26.08,0,0,1,.81,2.6c.11.45.61,1.16-.22,1.34s-1.6.36-1.86-.83c-.31-1.36-.74-2.69-1.12-4-.1-.35-.22-.76-.68-.69s-.35.56-.35.88c0,1.21,0,2.43,0,3.64,0,.73-.13,1.13-1,1.12s-1.2-.25-1.18-1.16C218,149.43,217.94,147.55,217.94,145.66Z"/><path class="cls-4" d="M174.84,145.65c0-1.82,0-3.64,0-5.47,0-.38-.15-.82.43-1.05,1.14-.44,4.48.12,5.2.94s1.19,4.13.28,5.2a2.71,2.71,0,0,0-.31,3.12,17,17,0,0,1,.78,2.61c.09.45.86,1.22-.26,1.41-.75.13-1.58.24-1.82-.93s-.72-2.56-1.07-3.85c-.12-.42-.18-.9-.76-.79s-.32.57-.33.89c0,1.15,0,2.31,0,3.46,0,.72,0,1.29-1,1.29s-1.18-.51-1.16-1.36C174.87,149.3,174.84,147.47,174.84,145.65Z"/><path class="cls-3" d="M276.74,145.68c0-1.82,0-3.64,0-5.46,0-.87.27-1.19,1.14-1.13s1.58,0,2.36,0a2.63,2.63,0,0,1,2.71,2.43,37.51,37.51,0,0,1,0,8.34c-.23,1.93-4.42,3.57-5.92,2.41-.42-.32-.25-.77-.26-1.17C276.73,149.31,276.74,147.49,276.74,145.68Z"/><path class="cls-8" d="M201.14,145.15c0,1.52,0,3,0,4.56a2.72,2.72,0,0,1-2.84,2.89c-1.77.1-3.19-.77-3.28-2.43-.18-3.45-.1-6.92-.13-10.38,0-.93.68-.62,1.16-.69.87-.11,1,.38,1,1.1,0,2.61,0,5.23,0,7.84,0,.43,0,.85,0,1.28,0,.69.22,1.22,1,1.22s1-.56,1-1.23q0-3.56,0-7.11c0-.73,0-1.46,0-2.19-.05-.92.52-.89,1.18-.92s.94.27.92,1C201.12,141.75,201.14,143.45,201.14,145.15Z"/><path class="cls-4" d="M149.22,145.63c0-1.76,0-3.52,0-5.29,0-.9.17-1.37,1.19-1.25.6.07,1.22,0,1.82,0,2.12,0,3.16,1,3.24,3.09s.06,4.25,0,6.38c0,2.83-.87,3.67-3.67,3.83-2.59.15-2.59.15-2.59-2.4Z"/><path class="cls-4" d="M268.35,145.66c0-1.15-.05-2.31,0-3.47.1-2.17,1.27-3.3,3.31-3.28a2.93,2.93,0,0,1,3.21,3.17c.08,2.49.08,5,0,7.48a3,3,0,0,1-3.17,3.05,3.12,3.12,0,0,1-3.33-3.12C268.28,148.22,268.35,146.94,268.35,145.66Z"/><path d="M187.15,145.65c0-1.76.06-3.52,0-5.28-.05-1.08.36-1.4,1.36-1.27a9.91,9.91,0,0,0,1.09,0c3.24,0,4.81,2.83,3.11,5.66-.31.51-.53.66,0,1.24,1.24,1.35,1,3.08.5,4.64s-2,1.72-3.45,1.78c-2.59.1-2.59.11-2.59-2.41Z"/><path class="cls-4" d="M216.09,145.78c0,1.28.07,2.56,0,3.84a3,3,0,0,1-3.05,3,2.93,2.93,0,0,1-3.37-2.62,41.41,41.41,0,0,1,0-8.55c.21-1.82,1.49-2.6,3.43-2.49a2.83,2.83,0,0,1,3,2.83C216.16,143.1,216.09,144.45,216.09,145.78Z"/><path class="cls-4" d="M260.22,145.73c0-1.34-.07-2.69,0-4a2.82,2.82,0,0,1,2.83-2.77c1.87-.15,3.17.55,3.46,2.21a30.64,30.64,0,0,1,0,9.07c-.22,1.66-1.64,2.5-3.37,2.38a2.87,2.87,0,0,1-2.95-2.86C260.15,148.41,260.22,147.06,260.22,145.73Z"/><path class="cls-5" d="M132.84,243.12c0-1.7-.05-3.4,0-5.1,0-1-.13-1.67-1.36-1.46-.95.16-1.25-.29-1.24-1.23s.42-1.12,1.22-1.11c1.7,0,3.4,0,5.1,0,.91,0,1.32.22,1.29,1.22s-.33,1.26-1.18,1.12c-1.18-.19-1.39.37-1.37,1.43.06,3.52,0,7,0,10.57,0,.91-.06,1.48-1.23,1.44s-1.34-.41-1.31-1.41C132.89,246.77,132.84,245,132.84,243.12Z"/><path class="cls-9" d="M114.48,180.7H103.9c-.7,0-1.47.23-1.46-1s.78-1,1.47-1c7.11,0,14.22,0,21.33,0,.79,0,1.41,0,1.37,1.11s-.75.89-1.38.89Z"/><path class="cls-9" d="M316.13,180.7H305.39c-.76,0-1.44.08-1.4-1.07s.72-.93,1.37-.93h21.48c.69,0,1.32,0,1.32,1s-.57,1-1.29,1Z"/><path class="cls-4" d="M232,139.12c.85-.07,1.44,0,1.6,1,.55,3.65,1.22,7.28,1.82,10.93.08.5.56,1.26-.54,1.34-.8.07-1.48,0-1.5-1,0-.24-.12-.48-.12-.72,0-.87-.26-1.28-1.26-1.3s-1.1.69-1.26,1.39.21,1.7-1.09,1.69c-.77,0-1.27,0-1.07-1.08.7-3.69,1.36-7.39,1.94-11.1C230.69,139.19,231.16,138.94,232,139.12Z"/><path class="cls-5" d="M317.92,249.27l0,.44c-2,.51-4,.16-6,.25-.72,0-.91-.36-.91-1,0-4.55,0-9.1,0-13.66,0-1.16.71-1,1.44-1.06.92-.08,1.1.36,1.09,1.18,0,3.52.06,7,0,10.56,0,1.37.33,1.94,1.7,1.67S317.61,247.76,317.92,249.27Z"/><path class="cls-4" d="M163.94,138.91c1.49.05,2.6.58,2.87,2.21.09.53.31,1.18-.55,1.23-.51,0-1.24.45-1.39-.59a.9.9,0,0,0-1.34-.77c-.69.3-.62,1-.47,1.58a4.08,4.08,0,0,0,1.64,2.11c1.61,1.35,2.71,2.92,2.43,5.19a2.88,2.88,0,0,1-3.39,2.73,2.82,2.82,0,0,1-2.89-3.06c0-.53,0-1,.73-1,.5,0,1.13-.29,1.23.6s.59,1.81,1.64,1.23.71-1.69.24-2.41a14,14,0,0,0-2.25-2.37,4.73,4.73,0,0,1-1.59-3.73C160.92,139.89,162,138.88,163.94,138.91Z"/><path d="M315.94,196.08c-3.46,0-6.93,0-10.39,0-.61,0-1.51.43-1.55-.86s.95-1,1.63-1c6.92,0,13.85,0,20.77,0,.64,0,1.7-.54,1.74.87,0,1.58-1.14.95-1.81,1C322.87,196.11,319.4,196.08,315.94,196.08Z"/><path d="M114.52,196.08H103.76c-.66,0-1.32.17-1.32-.94s.65-.94,1.32-.94h21.53c.67,0,1.31-.14,1.32.94s-.66.94-1.32.94Z"/><path class="cls-8" d="M253.62,145.72c0-1.83,0-3.66,0-5.48,0-.85.22-1.21,1.12-1.15,1.16.06,2.32,0,3.47,0,.66,0,1,.14,1,.9s-.31,1-1.07,1c-1.35-.08-2.68-.3-2.46,1.91.12,1.26.24,2,1.69,1.74.68-.12,1.15,0,1.17.92s-.53,1.13-1.27,1c-1.38-.19-1.64.51-1.55,1.7.08,1,0,2.07,0,3.1,0,.79-.31,1-1.08,1.07s-1-.34-1-1.09C253.64,149.49,253.62,147.6,253.62,145.72Z"/><path class="cls-10" d="M226.35,242.08c0,2.24,0,4.48,0,6.73,0,.83-.21,1.21-1.11,1.18s-1.39-.07-1.38-1.14c0-4.49,0-9,0-13.46,0-1,.47-1.18,1.34-1.18s1.18.26,1.16,1.14C226.32,237.59,226.35,239.84,226.35,242.08Z"/><path class="cls-11" d="M204.42,146.71c0-1.28,0-2.55,0-3.83,0-1,.2-2.15-1.48-1.91-.69.1-.71-.45-.72-1s.15-.91.8-.9q2.46,0,4.92,0c.69,0,.76.4.76,1s-.1,1-.77.92c-1.54-.22-1.45.74-1.44,1.78,0,2.79,0,5.59,0,8.38,0,.71,0,1.31-1,1.34s-1.15-.57-1.13-1.38C204.45,149.63,204.42,148.17,204.42,146.71Z"/><path class="cls-10" d="M243.61,145.66c0-1.82,0-3.64,0-5.46,0-.89.32-1.12,1.16-1.13s1,.44,1,1.13c0,2.79.08,5.58-.05,8.36-.07,1.52.36,2.11,1.88,1.87,1-.16,2.18.21,1.49,1.33-1,1.55-2.84.4-4.29.68-.85.17-1.17-.3-1.15-1.15C243.64,149.41,243.61,147.54,243.61,145.66Z"/><path class="cls-7" d="M169.47,146.74c0-1.27,0-2.55,0-3.83,0-1,.18-2.13-1.49-2-.75.08-.51-.64-.56-1.08s.18-.78.73-.77c1.58,0,3.16,0,4.74,0,.66,0,.81.3.81.89s-.06,1.12-.86,1c-1.29-.19-1.31.6-1.3,1.55,0,2.85,0,5.71,0,8.57,0,.66.15,1.34-.93,1.37s-1.19-.5-1.17-1.36C169.5,149.66,169.47,148.2,169.47,146.74Z"/><path class="cls-7" d="M236.93,145.73c0-1.82,0-3.64,0-5.46,0-.81.16-1.19,1.09-1.2s1.09.37,1.08,1.18c0,2.67.09,5.34-.06,8-.09,1.66.25,2.55,2.1,2.16.06,0,.12,0,.18,0,1.32-.21,1.43,1,1,1.43-1.18,1.38-2.91.32-4.38.59-.94.16-1.05-.49-1-1.25C237,149.37,236.93,147.55,236.93,145.73Z"/><path class="cls-12" d="M102.63,187.68c0-.91,0-1.83,0-2.73s-.5-2,1.23-2c2,0,2.95.54,3,2.07.08,1.75,0,3.51,0,5.27a1.65,1.65,0,0,1-1.14,1.69,4.23,4.23,0,0,1-2.85.14c-.38-.14-.28-.63-.29-1Z"/><path class="cls-7" d="M117.13,187.6a24.84,24.84,0,0,1,0-2.73c.08-.7-.6-1.87.92-1.88s3.07-.1,3.3,1.74a29,29,0,0,1,0,5.82c-.1,1.3-2.7,2.29-3.89,1.63-.5-.28-.35-.72-.36-1.12C117.12,189.91,117.13,188.75,117.13,187.6Z"/><path class="cls-11" d="M316,187.69a24.65,24.65,0,0,1,0,2.72,2.07,2.07,0,0,1-2.22,2,2,2,0,0,1-2.25-1.91,37.52,37.52,0,0,1,0-5.61,2,2,0,0,1,2.22-1.92A2,2,0,0,1,316,184.8,23.21,23.21,0,0,1,316,187.69Z"/><path class="cls-7" d="M159.45,145.69c0,1.88,0,3.76,0,5.64,0,.69-.06,1.16-1,1.14s-1.23-.16-1.22-1.11q.06-5.62,0-11.27c0-.82.34-1,1.08-1s1.11.12,1.09,1C159.41,141.94,159.45,143.82,159.45,145.69Z"/><path class="cls-13" d="M185.08,145.83c0,1.82,0,3.64,0,5.46,0,.67,0,1.19-.93,1.19s-1.2-.25-1.19-1.15c0-3.7,0-7.41,0-11.11,0-.87.29-1.14,1.16-1.15s1,.4,1,1.11C185.06,142.06,185.08,144,185.08,145.83Z"/><path class="cls-8" d="M325.3,187.7c0,1,.06,2,0,2.92a1.88,1.88,0,0,1-2,1.73A2,2,0,0,1,321,190.9c-.13-.4-.28-.9.23-1.12s1-.28,1.12.45c.13.52.48.93,1.06.62s.36-1.08.39-1.66c.05-.74-.45-.45-.85-.45-1.85,0-2.11-1.22-2.12-2.71s.07-2.91,2-3.08a2,2,0,0,1,2.45,2c0,.91,0,1.82,0,2.74Z"/><path class="cls-12" d="M308.56,190.47c.66.76,2.3-.41,2.21,1s-1.54.61-2.37.73c-.57.08-1.43.42-1.77-.41-.27-.66.14-1.27.49-1.87.76-1.3,1.82-2.44,2.14-4,.11-.58.33-1.28-.44-1.55s-.75.41-.89.86a.69.69,0,0,1-.84.51c-.64-.08-.5-.59-.5-1a1.69,1.69,0,0,1,1.62-1.85c1.08-.14,2.11,0,2.5,1.27a4.06,4.06,0,0,1-.41,3.16C309.73,188.45,309.12,189.48,308.56,190.47Z"/><path class="cls-7" d="M114.38,182.91a1.87,1.87,0,0,1,1.85,1c.23.42.39,1-.08,1.33a.66.66,0,0,1-1.14-.34c-.19-.5-.56-.68-1-.33a.84.84,0,0,0-.08,1.16,15.4,15.4,0,0,0,1.59,1.74,3.41,3.41,0,0,1,1,3.48,2,2,0,0,1-2.42,1.43,1.78,1.78,0,0,1-1.8-1.72c0-.39-.18-.91.4-1.06s1-.09,1,.63.38.95,1,.65a1,1,0,0,0,.37-1.28,4.27,4.27,0,0,0-1.38-1.66,3.61,3.61,0,0,1-1.42-3C112.37,183.49,113.16,183,114.38,182.91Z"/><path class="cls-11" d="M108,187.57v-2c0-2.74,0-2.74,2.76-2.58.5,0,1.16-.17,1.19.69s-.66.77-1.13.69c-1.42-.22-1.37.62-1.38,1.61s.52.94,1.17.91c.45,0,.88,0,.86.65s-.36.76-.84.7c-1.42-.18-1.1.81-1.18,1.62-.11,1.17.65,1,1.4,1.06.43,0,1-.21,1.1.56s-.58.77-1.12.78a11.67,11.67,0,0,0-1.45,0c-1.15.15-1.49-.34-1.4-1.44S108,188.66,108,187.57Z"/><path class="cls-10" d="M122.5,187.63v-2c0-2.78.38-3.1,3.09-2.66.5.08.78.21.81.75s-.35.64-.82.69c-.66.07-1.67-.46-1.63,1,0,1,0,1.71,1.32,1.53.44-.06.64.21.63.66s-.24.72-.67.67c-1.52-.2-1.23.87-1.26,1.75,0,1.24.87.86,1.52.92.42,0,.89,0,.91.6s-.44.77-1,.77-1.21,0-1.82,0c-.9.07-1.15-.35-1.12-1.19C122.53,189.94,122.5,188.78,122.5,187.63Z"/><path class="cls-14" d="M319.85,187.5c0,1.15,0,2.31,0,3.46,0,.55.26,1.34-.77,1.28-.85,0-.69-.69-.69-1.21,0-1.46,0-2.92,0-4.38,0-.83.08-1.64-1.17-1.49a.63.63,0,0,1-.56-.29c-.07-.16.07-.6.17-.61,1-.17,1.65-1,2.57-1.22.47-.11.45.46.45.81C319.86,185.07,319.85,186.28,319.85,187.5Z"/><path class="cls-15" d="M330.05,248.64c.25,1.23-.38,1.37-1.31,1.39-1.09,0-1.25-.48-1.28-1.42,0-1.11.48-1.27,1.41-1.29S330.3,247.73,330.05,248.64Z"/><path class="cls-16" d="M231,233.22c.56-1.44,1-2.79,2.9-2.42.54.11.65.29.33.67C233.45,232.44,232.93,234,231,233.22Z"/><path class="cls-17" d="M361.7,330.11a8.51,8.51,0,0,1-.6,2.58c-.13.18-.25.17-.37,0l.68-2.95Z"/><path class="cls-1" d="M240.18,299.57c-.44,5.79-2.22,11-6.41,15.24a7.19,7.19,0,0,1-2.57,1.69,3.58,3.58,0,0,1-4.85-1.91,5.1,5.1,0,0,1-.68-1.87c-.48-7.42,1.06-14.17,7.05-19.16,3-2.53,6.22-1.27,7.07,2.57A10.77,10.77,0,0,1,240.18,299.57Z"/><path class="cls-1" d="M305.13,295.74c1-3.84,2.19-7.17,5.1-9.56,1.61-1.33,3.42-2.11,5.53-1.2a2.91,2.91,0,0,1,1.81,2.53c.13,1.18-.78,1.51-1.57,2Z"/><path class="cls-1" d="M279.57,345.79a11.12,11.12,0,0,1,3.19-7.68c1.89-1.81,3.73-1.31,4.55,1.16,1.05,3.2-.66,8.54-3.39,10.51-1.56,1.13-3,.77-3.84-1A6.54,6.54,0,0,1,279.57,345.79Z"/><path class="cls-18" d="M360.73,332.68h.37c-.36,2-.74,4.05-1.06,6.08-.13.87-.84,1.15-1.41,1.54-2.56,1.76-5.84,2-7.68.66-1.38-1-1.37-1.53.1-2.36l8.07-4.53A3.23,3.23,0,0,0,360.73,332.68Z"/><path class="cls-19" d="M349.59,335.45c.66-2.39,1.41-4.2,3.18-5.37a2.56,2.56,0,0,1,2.88-.34c1.05.59,1.1,1.61.09,2.21C353.82,333.08,351.87,334.16,349.59,335.45Z"/><path class="cls-20" d="M325.58,338.46c.54-2.6,1.47-4.69,3.48-6.15.7-.52,1.6-.91,2.3-.15s.14,1.51-.34,2.14C329.64,336.1,327.72,337.21,325.58,338.46Z"/><path class="cls-1" d="M217.21,179.49c0-2.44,0-4.87,0-7.3,0-.94.26-1.39,1.23-1.26a3.37,3.37,0,0,0,.55,0c6,0,7.67,1.63,7.67,7.67,0,1.34.06,2.68,0,4-.22,3.65-2.12,5.51-5.78,5.72s-3.64.2-3.64-3.39Z"/><path class="cls-21" d="M141.13,238.71c.47-.72-.67-2.16,1.14-2.14,1.49,0,1.52,1.08,1.53,2.16s-.08,2.32-1.6,2.29C140.29,241,141.75,239.39,141.13,238.71Z"/><path class="cls-19" d="M190.55,242.1c0-1.4,0-2.79,0-4.18,0-.54-.3-1.31.72-1.35.78,0,1.62.09,1.69,1a52.83,52.83,0,0,1,0,9.07c-.08.85-.88,1-1.69,1-1,0-.69-.82-.71-1.35C190.53,244.89,190.55,243.49,190.55,242.1Z"/><path class="cls-19" d="M172.1,238.74c.55-.69-.73-2.13,1.07-2.16,1.44,0,1.56,1,1.56,2.12s0,2.33-1.57,2.32C171.23,241,172.78,239.4,172.1,238.74Z"/><path class="cls-20" d="M233.52,242.16c0,1.34,0,2.67,0,4,0,.9-.38,1.74-1.47,1.71s-1.37-.84-1.37-1.78v-8c0-1,.32-1.74,1.36-1.81s1.43.81,1.47,1.7C233.57,239.38,233.52,240.77,233.52,242.16Z"/><path class="cls-19" d="M152.93,242.19v4.19a1.32,1.32,0,0,1-1.27,1.5,1.29,1.29,0,0,1-1.41-1.35,56.52,56.52,0,0,1,0-8.92,1.27,1.27,0,0,1,1.43-1.32c.86.07,1.24.67,1.24,1.52Z"/><path class="cls-20" d="M181.06,242.1c0-1.39,0-2.79,0-4.18,0-.84.39-1.6,1.36-1.63s1.46.75,1.47,1.7q0,4.08,0,8.17c0,.94-.37,1.72-1.45,1.7s-1.37-.86-1.39-1.77c0-1.33,0-2.66,0-4Z"/><path class="cls-22" d="M322.17,239.35c.19,1.39.39,2.79.58,4.18.09.76-.44.7-.94.72-.68,0-.79-.29-.68-.91.22-1.3.37-2.62.55-3.93Z"/><path class="cls-23" d="M163.42,238.76c.49-.71-.71-2.16,1.07-2.18,1.61,0,1.51,1.18,1.55,2.3s-.13,2.36-1.61,2.28C162.64,241.05,164,239.51,163.42,238.76Z"/><path class="cls-24" d="M220,142.94c.5-.59-.61-1.87.87-1.92,1.17,0,1.39.91,1.39,1.9s-.19,1.94-1.36,1.94C219.37,144.85,220.43,143.56,220,142.94Z"/><path class="cls-25" d="M176.88,143c.48-.6-.59-1.85.81-2,1.16-.09,1.48.82,1.49,1.84s-.23,2-1.52,2S177.31,143.59,176.88,143Z"/><path class="cls-26" d="M278.88,145.71c0-1.15,0-2.31,0-3.45,0-.46-.36-1.21.56-1.25a1.31,1.31,0,0,1,1.39.93,8.24,8.24,0,0,1,.16,2.71c0,1.45,0,2.91-.05,4.36,0,.85-.5,1.53-1.52,1.4s-.5-.94-.54-1.43C278.82,147.89,278.88,146.8,278.88,145.71Z"/><path class="cls-27" d="M151.35,145.73c0-1.21,0-2.43,0-3.64,0-.44-.2-1.07.59-1.08.58,0,1.17.21,1.27.82a26.76,26.76,0,0,1,0,7.79c-.09.62-.65.83-1.26.8-.91,0-.59-.76-.61-1.23C151.32,148,151.35,146.89,151.35,145.73Z"/><path class="cls-28" d="M272.78,145.77c0,1.21,0,2.43,0,3.64a1.06,1.06,0,0,1-1.12,1.17c-.8,0-1.17-.55-1.17-1.32,0-2.37,0-4.75,0-7.12a1.08,1.08,0,0,1,1-1.24c.88-.07,1.22.49,1.25,1.23.05,1.21,0,2.43,0,3.64Z"/><path class="cls-29" d="M189.09,148.43c.34-.69-.5-1.93.94-2s1.43,1.05,1.42,2.06-.1,1.9-1.38,1.89C188.39,150.4,189.56,149,189.09,148.43Z"/><path class="cls-30" d="M191.2,142.72c0,.92-.22,1.75-1.29,1.82s-.79-.92-.71-1.41c.12-.74-.71-2,.8-2.1C190.94,141,191.2,141.86,191.2,142.72Z"/><path class="cls-28" d="M211.68,145.74c0-1.16,0-2.31,0-3.47,0-.75.27-1.32,1.11-1.37s1.21.57,1.22,1.27c.05,2.37,0,4.74,0,7.11,0,.72-.33,1.36-1.2,1.31s-1.13-.62-1.13-1.38C211.67,148.05,211.67,146.9,211.68,145.74Z"/><path class="cls-28" d="M264.64,145.81c0,1.09,0,2.19,0,3.28,0,.82-.27,1.49-1.21,1.5s-1.13-.65-1.14-1.36c0-2.31,0-4.63,0-6.94,0-.7.23-1.37,1.11-1.39s1.23.65,1.25,1.44C264.66,143.5,264.64,144.65,264.64,145.81Z"/><path class="cls-31" d="M232.29,144c.15.92.28,1.85.46,2.77.11.54-.05.78-.61.79s-.82-.06-.77-.67A4.77,4.77,0,0,1,232.29,144Z"/><path class="cls-32" d="M104.07,187.43c0-.72,0-1.44,0-2.16,0-.35,0-.79.44-.85a.72.72,0,0,1,.88.69c0,1.68,0,3.37,0,5a.76.76,0,0,1-.9.68c-.43-.06-.43-.52-.43-.88C104.07,189.12,104.08,188.28,104.07,187.43Z"/><path class="cls-33" d="M118.59,187.45c0-.72,0-1.44,0-2.17,0-.34-.09-.78.41-.85a.74.74,0,0,1,.92.66c.06,1.69.06,3.38,0,5.07a.81.81,0,0,1-.93.68c-.49,0-.41-.51-.42-.85C118.58,189.15,118.59,188.3,118.59,187.45Z"/><path class="cls-34" d="M314.66,187.64c0,.85,0,1.7-.14,2.54a.77.77,0,0,1-.68.75.74.74,0,0,1-.85-.75c-.06-1.7-.05-3.39,0-5.09a.74.74,0,0,1,.69-.73.76.76,0,0,1,.87.74c.07.84,0,1.7,0,2.54Z"/><path class="cls-21" d="M322.33,185.8c0-.73,0-1.5.85-1.41s.64,1,.66,1.6.15,1.4-.78,1.29S322.45,186.28,322.33,185.8Z"/></svg>