<svg id="Capa_7" data-name="Capa 7" xmlns="http://www.w3.org/2000/svg" viewBox="0 0 154 150"><defs><style>.cls-1{opacity:0.8;}.cls-2{fill:#662d91;}</style></defs><title>iconos</title><g class="cls-1"><path class="cls-2" d="M96.09,26.51h4.24V44.84a2.55,2.55,0,1,0,5.1,0V26.44h4.29A2.55,2.55,0,0,0,111.47,22l-6.85-7.4a2.51,2.51,0,0,0-1.74-.7,2.54,2.54,0,0,0-1.8.75l-6.49,7.15a2.9,2.9,0,0,0-1,2.06v0a2.68,2.68,0,0,0,.19,1A2.55,2.55,0,0,0,96.09,26.51Z"/><path class="cls-2" d="M116,60.18a47.36,47.36,0,0,0-7-24.82v12a4.76,4.76,0,0,1-.42,1.92A41.69,41.69,0,1,1,88.79,23.9h0a4.67,4.67,0,0,1,1.93-3.79L92,18.84a47.61,47.61,0,1,0-44.91,83.93v19.48a3,3,0,0,0,6,0v-17a47.08,47.08,0,0,0,12.32,2.43v27a3,3,0,1,0,6,0v-27a47.16,47.16,0,0,0,11.69-2.22v21.18a3,3,0,0,0,6,0V103.08A47.67,47.67,0,0,0,116,60.18Z"/><path class="cls-2" d="M71.45,87.44V80.55c7.68-1.27,11.83-6.35,11.83-12.3s-3.14-9.76-11.1-12.57c-5.75-2.07-8.09-3.54-8.09-5.68,0-1.88,1.41-3.81,5.75-3.81a20.84,20.84,0,0,1,9.63,2.33l2-7.55a24.24,24.24,0,0,0-9.76-2.21V32.88H65.16v6.35c-7.15,1.34-11.3,6-11.3,11.9,0,6.49,4.88,9.83,12,12.24,5,1.67,7.15,3.27,7.15,5.81s-2.61,4.15-6.48,4.15a23.7,23.7,0,0,1-11.1-2.94l-2,7.82a28,28,0,0,0,11.37,2.87v6.36Z"/></g></svg>