<?xml version="1.0" encoding="utf-8"?>
<!-- Generator: Adobe Illustrator 23.0.0, SVG Export Plug-In . SVG Version: 6.00 Build 0)  -->
<svg version="1.1" xmlns="http://www.w3.org/2000/svg" xmlns:xlink="http://www.w3.org/1999/xlink" x="0px" y="0px"
	 viewBox="0 0 523.67 159.72" style="enable-background:new 0 0 523.67 159.72;" xml:space="preserve">
<style type="text/css">
	.st0{display:none;}
	.st1{display:inline;opacity:0.53;}
	.st2{display:inline;fill:url(#SVGID_1_);}
	.st3{display:inline;opacity:0.15;}
	.st4{opacity:0.15;}
	.st5{clip-path:url(#SVGID_3_);}
	.st6{opacity:0.1311;fill:#FFFFFF;}
	.st7{opacity:0.5108;fill:#FFFFFF;}
	.st8{opacity:0.6212;fill:#FFFFFF;}
	.st9{opacity:0.584;fill:#FFFFFF;}
	.st10{opacity:0.387;fill:#FFFFFF;}
	.st11{opacity:0.6757;fill:#FFFFFF;}
	.st12{opacity:0.3374;fill:#FFFFFF;}
	.st13{opacity:0.9367;fill:#FFFFFF;}
	.st14{opacity:0.1895;fill:#FFFFFF;}
	.st15{opacity:0.8328;fill:#FFFFFF;}
	.st16{opacity:0.8997;fill:#FFFFFF;}
	.st17{opacity:0.6294;fill:#FFFFFF;}
	.st18{opacity:0.7036;fill:#FFFFFF;}
	.st19{opacity:0.367;fill:#FFFFFF;}
	.st20{opacity:0.4388;fill:#FFFFFF;}
	.st21{opacity:0.9264;fill:#FFFFFF;}
	.st22{opacity:0.944;fill:#FFFFFF;}
	.st23{opacity:0.8446;fill:#FFFFFF;}
	.st24{opacity:0.8701;fill:#FFFFFF;}
	.st25{opacity:0.7271;fill:#FFFFFF;}
	.st26{opacity:0.4819;fill:#FFFFFF;}
	.st27{opacity:0.7238;fill:#FFFFFF;}
	.st28{opacity:0.9189;fill:#FFFFFF;}
	.st29{opacity:0.2023;fill:#FFFFFF;}
	.st30{opacity:0.8949;fill:#FFFFFF;}
	.st31{opacity:0.6839;fill:#FFFFFF;}
	.st32{opacity:0.3073;fill:#FFFFFF;}
	.st33{opacity:0.412;fill:#FFFFFF;}
	.st34{opacity:0.7573;fill:#FFFFFF;}
	.st35{opacity:0.3077;fill:#FFFFFF;}
	.st36{opacity:0.2216;fill:#FFFFFF;}
	.st37{opacity:0.5614;fill:#FFFFFF;}
	.st38{opacity:0.117;fill:#FFFFFF;}
	.st39{opacity:0.6014;fill:#FFFFFF;}
	.st40{opacity:0.9359;fill:#FFFFFF;}
	.st41{opacity:0.4064;fill:#FFFFFF;}
	.st42{opacity:0.2564;fill:#FFFFFF;}
	.st43{opacity:0.2871;fill:#FFFFFF;}
	.st44{opacity:0.6094;fill:#FFFFFF;}
	.st45{opacity:0.4658;fill:#FFFFFF;}
	.st46{opacity:0.2841;fill:#FFFFFF;}
	.st47{opacity:0.3517;fill:#FFFFFF;}
	.st48{opacity:0.6333;fill:#FFFFFF;}
	.st49{opacity:0.3526;fill:#FFFFFF;}
	.st50{opacity:0.6536;fill:#FFFFFF;}
	.st51{opacity:0.2857;fill:#FFFFFF;}
	.st52{opacity:0.847;fill:#FFFFFF;}
	.st53{opacity:0.4805;fill:#FFFFFF;}
	.st54{opacity:0.7569;fill:#FFFFFF;}
	.st55{opacity:0.4986;fill:#FFFFFF;}
	.st56{opacity:0.795;fill:#FFFFFF;}
	.st57{opacity:0.2578;fill:#FFFFFF;}
	.st58{opacity:0.6891;fill:#FFFFFF;}
	.st59{opacity:0.6425;fill:#FFFFFF;}
	.st60{opacity:0.2486;fill:#FFFFFF;}
	.st61{opacity:0.7254;fill:#FFFFFF;}
	.st62{opacity:0.6316;fill:#FFFFFF;}
	.st63{opacity:0.2311;fill:#FFFFFF;}
	.st64{opacity:0.7619;fill:#FFFFFF;}
	.st65{opacity:0.2514;fill:#FFFFFF;}
	.st66{opacity:0.7498;fill:#FFFFFF;}
	.st67{opacity:0.2852;fill:#FFFFFF;}
	.st68{opacity:0.5859;fill:#FFFFFF;}
	.st69{opacity:0.2383;fill:#FFFFFF;}
	.st70{opacity:0.4529;fill:#FFFFFF;}
	.st71{opacity:0.693;fill:#FFFFFF;}
	.st72{opacity:0.9109;fill:#FFFFFF;}
	.st73{opacity:0.455;fill:#FFFFFF;}
	.st74{opacity:0.8127;fill:#FFFFFF;}
	.st75{opacity:0.1156;fill:#FFFFFF;}
	.st76{opacity:0.4604;fill:#FFFFFF;}
	.st77{opacity:0.9514;fill:#FFFFFF;}
	.st78{opacity:0.8879;fill:#FFFFFF;}
	.st79{opacity:0.3249;fill:#FFFFFF;}
	.st80{opacity:0.9075;fill:#FFFFFF;}
	.st81{opacity:0.9649;fill:#FFFFFF;}
	.st82{opacity:0.7509;fill:#FFFFFF;}
	.st83{opacity:0.2076;fill:#FFFFFF;}
	.st84{opacity:0.1367;fill:#FFFFFF;}
	.st85{opacity:0.9799;fill:#FFFFFF;}
	.st86{opacity:0.1638;fill:#FFFFFF;}
	.st87{opacity:0.2182;fill:#FFFFFF;}
	.st88{opacity:0.3213;fill:#FFFFFF;}
	.st89{opacity:0.1469;fill:#FFFFFF;}
	.st90{opacity:0.3016;fill:#FFFFFF;}
	.st91{opacity:0.7179;fill:#FFFFFF;}
	.st92{opacity:0.6398;fill:#FFFFFF;}
	.st93{opacity:0.6234;fill:#FFFFFF;}
	.st94{opacity:0.1671;fill:#FFFFFF;}
	.st95{opacity:0.5817;fill:#FFFFFF;}
	.st96{opacity:0.7031;fill:#FFFFFF;}
	.st97{opacity:0.2438;fill:#FFFFFF;}
	.st98{opacity:0.4973;fill:#FFFFFF;}
	.st99{opacity:0.2091;fill:#FFFFFF;}
	.st100{opacity:0.7131;fill:#FFFFFF;}
	.st101{opacity:0.3791;fill:#FFFFFF;}
	.st102{opacity:0.5058;fill:#FFFFFF;}
	.st103{opacity:0.9218;fill:#FFFFFF;}
	.st104{opacity:0.1259;fill:#FFFFFF;}
	.st105{opacity:0.4951;fill:#FFFFFF;}
	.st106{opacity:0.2591;fill:#FFFFFF;}
	.st107{opacity:0.3848;fill:#FFFFFF;}
	.st108{opacity:0.6408;fill:#FFFFFF;}
	.st109{opacity:0.8684;fill:#FFFFFF;}
	.st110{opacity:0.3341;fill:#FFFFFF;}
	.st111{opacity:0.333;fill:#FFFFFF;}
	.st112{opacity:0.8871;fill:#FFFFFF;}
	.st113{opacity:0.2698;fill:#FFFFFF;}
	.st114{opacity:0.7525;fill:#FFFFFF;}
	.st115{opacity:0.1384;fill:#FFFFFF;}
	.st116{opacity:0.3311;fill:#FFFFFF;}
	.st117{opacity:0.1752;fill:#FFFFFF;}
	.st118{opacity:0.7396;fill:#FFFFFF;}
	.st119{opacity:0.6034;fill:#FFFFFF;}
	.st120{opacity:0.6739;fill:#FFFFFF;}
	.st121{opacity:0.5112;fill:#FFFFFF;}
	.st122{opacity:0.4054;fill:#FFFFFF;}
	.st123{opacity:0.5128;fill:#FFFFFF;}
	.st124{opacity:0.6634;fill:#FFFFFF;}
	.st125{opacity:0.2976;fill:#FFFFFF;}
	.st126{opacity:0.4926;fill:#FFFFFF;}
	.st127{opacity:0.4307;fill:#FFFFFF;}
	.st128{opacity:0.4911;fill:#FFFFFF;}
	.st129{opacity:0.7941;fill:#FFFFFF;}
	.st130{opacity:0.3899;fill:#FFFFFF;}
	.st131{opacity:0.7742;fill:#FFFFFF;}
	.st132{opacity:0.8968;fill:#FFFFFF;}
	.st133{opacity:0.2111;fill:#FFFFFF;}
	.st134{opacity:0.4583;fill:#FFFFFF;}
	.st135{opacity:0.5518;fill:#FFFFFF;}
	.st136{opacity:0.5513;fill:#FFFFFF;}
	.st137{opacity:0.9948;fill:#FFFFFF;}
	.st138{opacity:0.7647;fill:#FFFFFF;}
	.st139{opacity:0.897;fill:#FFFFFF;}
	.st140{opacity:0.2416;fill:#FFFFFF;}
	.st141{opacity:0.7447;fill:#FFFFFF;}
	.st142{opacity:0.4718;fill:#FFFFFF;}
	.st143{opacity:0.8846;fill:#FFFFFF;}
	.st144{opacity:0.3275;fill:#FFFFFF;}
	.st145{opacity:0.3738;fill:#FFFFFF;}
	.st146{opacity:0.7813;fill:#FFFFFF;}
	.st147{opacity:0.5624;fill:#FFFFFF;}
	.st148{opacity:0.8937;fill:#FFFFFF;}
	.st149{opacity:0.5702;fill:#FFFFFF;}
	.st150{opacity:0.3747;fill:#FFFFFF;}
	.st151{opacity:0.4825;fill:#FFFFFF;}
	.st152{opacity:0.9685;fill:#FFFFFF;}
	.st153{opacity:0.3705;fill:#FFFFFF;}
	.st154{opacity:0.6525;fill:#FFFFFF;}
	.st155{opacity:0.8306;fill:#FFFFFF;}
	.st156{opacity:0.4027;fill:#FFFFFF;}
	.st157{opacity:0.7149;fill:#FFFFFF;}
	.st158{opacity:0.3004;fill:#FFFFFF;}
	.st159{opacity:0.1767;fill:#FFFFFF;}
	.st160{opacity:0.3104;fill:#FFFFFF;}
	.st161{opacity:0.2833;fill:#FFFFFF;}
	.st162{opacity:0.4537;fill:#FFFFFF;}
	.st163{opacity:0.6707;fill:#FFFFFF;}
	.st164{opacity:0.1146;fill:#FFFFFF;}
	.st165{opacity:0.4087;fill:#FFFFFF;}
	.st166{opacity:0.6752;fill:#FFFFFF;}
	.st167{opacity:0.2479;fill:#FFFFFF;}
	.st168{opacity:0.4255;fill:#FFFFFF;}
	.st169{opacity:0.3638;fill:#FFFFFF;}
	.st170{opacity:0.1322;fill:#FFFFFF;}
	.st171{opacity:0.2945;fill:#FFFFFF;}
	.st172{opacity:0.4617;fill:#FFFFFF;}
	.st173{opacity:0.3656;fill:#FFFFFF;}
	.st174{opacity:0.7166;fill:#FFFFFF;}
	.st175{opacity:0.4748;fill:#FFFFFF;}
	.st176{opacity:0.4865;fill:#FFFFFF;}
	.st177{opacity:0.4257;fill:#FFFFFF;}
	.st178{opacity:0.6415;fill:#FFFFFF;}
	.st179{opacity:0.5289;fill:#FFFFFF;}
	.st180{opacity:0.4218;fill:#FFFFFF;}
	.st181{opacity:0.4751;fill:#FFFFFF;}
	.st182{opacity:0.5117;fill:#FFFFFF;}
	.st183{opacity:0.9113;fill:#FFFFFF;}
	.st184{opacity:0.3475;fill:#FFFFFF;}
	.st185{opacity:0.1601;fill:#FFFFFF;}
	.st186{opacity:0.804;fill:#FFFFFF;}
	.st187{opacity:0.8935;fill:#FFFFFF;}
	.st188{opacity:0.9463;fill:#FFFFFF;}
	.st189{opacity:0.7565;fill:#FFFFFF;}
	.st190{opacity:0.742;fill:#FFFFFF;}
	.st191{opacity:0.4011;fill:#FFFFFF;}
	.st192{opacity:0.6039;fill:#FFFFFF;}
	.st193{opacity:0.3986;fill:#FFFFFF;}
	.st194{opacity:0.8989;fill:#FFFFFF;}
	.st195{opacity:0.6095;fill:#FFFFFF;}
	.st196{opacity:0.7231;fill:#FFFFFF;}
	.st197{opacity:0.3708;fill:#FFFFFF;}
	.st198{opacity:0.6126;fill:#FFFFFF;}
	.st199{opacity:0.5674;fill:#FFFFFF;}
	.st200{opacity:0.6617;fill:#FFFFFF;}
	.st201{opacity:0.1568;fill:#FFFFFF;}
	.st202{opacity:0.6486;fill:#FFFFFF;}
	.st203{opacity:0.1716;fill:#FFFFFF;}
	.st204{opacity:0.1534;fill:#FFFFFF;}
	.st205{opacity:0.7957;fill:#FFFFFF;}
	.st206{opacity:0.3938;fill:#FFFFFF;}
	.st207{opacity:0.4656;fill:#FFFFFF;}
	.st208{opacity:0.5206;fill:#FFFFFF;}
	.st209{opacity:0.5399;fill:#FFFFFF;}
	.st210{opacity:0.9163;fill:#FFFFFF;}
	.st211{opacity:0.7815;fill:#FFFFFF;}
	.st212{opacity:0.9401;fill:#FFFFFF;}
	.st213{opacity:0.5625;fill:#FFFFFF;}
	.st214{opacity:0.4756;fill:#FFFFFF;}
	.st215{opacity:0.7991;fill:#FFFFFF;}
	.st216{opacity:0.8685;fill:#FFFFFF;}
	.st217{opacity:0.2112;fill:#FFFFFF;}
	.st218{opacity:0.1168;fill:#FFFFFF;}
	.st219{opacity:0.7444;fill:#FFFFFF;}
	.st220{opacity:0.3892;fill:#FFFFFF;}
	.st221{opacity:0.4553;fill:#FFFFFF;}
	.st222{opacity:0.5344;fill:#FFFFFF;}
	.st223{opacity:0.5964;fill:#FFFFFF;}
	.st224{opacity:0.5889;fill:#FFFFFF;}
	.st225{opacity:0.4228;fill:#FFFFFF;}
	.st226{opacity:0.6391;fill:#FFFFFF;}
	.st227{opacity:0.5285;fill:#FFFFFF;}
	.st228{opacity:0.2232;fill:#FFFFFF;}
	.st229{opacity:0.274;fill:#FFFFFF;}
	.st230{opacity:0.6124;fill:#FFFFFF;}
	.st231{opacity:0.7517;fill:#FFFFFF;}
	.st232{opacity:0.681;fill:#FFFFFF;}
	.st233{opacity:0.7094;fill:#FFFFFF;}
	.st234{opacity:0.9828;fill:#FFFFFF;}
	.st235{opacity:0.2859;fill:#FFFFFF;}
	.st236{opacity:0.2073;fill:#FFFFFF;}
	.st237{opacity:0.6581;fill:#FFFFFF;}
	.st238{opacity:0.5093;fill:#FFFFFF;}
	.st239{opacity:0.9274;fill:#FFFFFF;}
	.st240{opacity:0.1922;fill:#FFFFFF;}
	.st241{opacity:0.5435;fill:#FFFFFF;}
	.st242{opacity:0.6051;fill:#FFFFFF;}
	.st243{opacity:0.637;fill:#FFFFFF;}
	.st244{opacity:0.8882;fill:#FFFFFF;}
	.st245{opacity:0.9741;fill:#FFFFFF;}
	.st246{opacity:0.1866;fill:#FFFFFF;}
	.st247{opacity:0.6195;fill:#FFFFFF;}
	.st248{opacity:0.3626;fill:#FFFFFF;}
	.st249{opacity:0.6543;fill:#FFFFFF;}
	.st250{opacity:0.3822;fill:#FFFFFF;}
	.st251{opacity:0.4166;fill:#FFFFFF;}
	.st252{opacity:0.1454;fill:#FFFFFF;}
	.st253{opacity:0.4652;fill:#FFFFFF;}
	.st254{opacity:0.2845;fill:#FFFFFF;}
	.st255{opacity:0.7853;fill:#FFFFFF;}
	.st256{opacity:0.7829;fill:#FFFFFF;}
	.st257{opacity:0.4084;fill:#FFFFFF;}
	.st258{opacity:0.3834;fill:#FFFFFF;}
	.st259{opacity:0.6546;fill:#FFFFFF;}
	.st260{opacity:0.8635;fill:#FFFFFF;}
	.st261{opacity:0.9512;fill:#FFFFFF;}
	.st262{opacity:0.6338;fill:#FFFFFF;}
	.st263{opacity:0.1642;fill:#FFFFFF;}
	.st264{opacity:0.253;fill:#FFFFFF;}
	.st265{opacity:0.1491;fill:#FFFFFF;}
	.st266{opacity:0.2908;fill:#FFFFFF;}
	.st267{opacity:0.5641;fill:#FFFFFF;}
	.st268{opacity:0.7842;fill:#FFFFFF;}
	.st269{opacity:0.378;fill:#FFFFFF;}
	.st270{opacity:0.8201;fill:#FFFFFF;}
	.st271{opacity:0.2219;fill:#FFFFFF;}
	.st272{opacity:0.3044;fill:#FFFFFF;}
	.st273{opacity:0.1216;fill:#FFFFFF;}
	.st274{opacity:0.1824;fill:#FFFFFF;}
	.st275{opacity:0.1628;fill:#FFFFFF;}
	.st276{opacity:0.3856;fill:#FFFFFF;}
	.st277{opacity:0.9504;fill:#FFFFFF;}
	.st278{opacity:0.662;fill:#FFFFFF;}
	.st279{opacity:0.8039;fill:#FFFFFF;}
	.st280{opacity:0.8539;fill:#FFFFFF;}
	.st281{opacity:0.984;fill:#FFFFFF;}
	.st282{opacity:0.982;fill:#FFFFFF;}
	.st283{opacity:0.4554;fill:#FFFFFF;}
	.st284{opacity:0.6278;fill:#FFFFFF;}
	.st285{opacity:0.6065;fill:#FFFFFF;}
	.st286{opacity:0.7736;fill:#FFFFFF;}
	.st287{opacity:0.2706;fill:#FFFFFF;}
	.st288{opacity:0.7102;fill:#FFFFFF;}
	.st289{opacity:0.9999;fill:#FFFFFF;}
	.st290{opacity:0.1337;fill:#FFFFFF;}
	.st291{opacity:0.395;fill:#FFFFFF;}
	.st292{opacity:0.9847;fill:#FFFFFF;}
	.st293{opacity:0.3404;fill:#FFFFFF;}
	.st294{opacity:0.8804;fill:#FFFFFF;}
	.st295{opacity:0.6167;fill:#FFFFFF;}
	.st296{opacity:0.141;fill:#FFFFFF;}
	.st297{opacity:0.9679;fill:#FFFFFF;}
	.st298{opacity:0.6259;fill:#FFFFFF;}
	.st299{opacity:0.8265;fill:#FFFFFF;}
	.st300{opacity:0.626;fill:#FFFFFF;}
	.st301{opacity:0.189;fill:#FFFFFF;}
	.st302{opacity:0.3021;fill:#FFFFFF;}
	.st303{opacity:0.7921;fill:#FFFFFF;}
	.st304{opacity:0.9972;fill:#FFFFFF;}
	.st305{opacity:0.9412;fill:#FFFFFF;}
	.st306{opacity:0.2607;fill:#FFFFFF;}
	.st307{opacity:0.7023;fill:#FFFFFF;}
	.st308{opacity:0.3396;fill:#FFFFFF;}
	.st309{opacity:0.3636;fill:#FFFFFF;}
	.st310{opacity:0.9608;fill:#FFFFFF;}
	.st311{opacity:0.3191;fill:#FFFFFF;}
	.st312{opacity:0.4275;fill:#FFFFFF;}
	.st313{opacity:0.5874;fill:#FFFFFF;}
	.st314{opacity:0.1834;fill:#FFFFFF;}
	.st315{opacity:0.502;fill:#FFFFFF;}
	.st316{opacity:0.6955;fill:#FFFFFF;}
	.st317{opacity:0.4274;fill:#FFFFFF;}
	.st318{opacity:0.2358;fill:#FFFFFF;}
	.st319{opacity:0.3596;fill:#FFFFFF;}
	.st320{opacity:0.293;fill:#FFFFFF;}
	.st321{opacity:0.8754;fill:#FFFFFF;}
	.st322{opacity:0.6606;fill:#FFFFFF;}
	.st323{opacity:0.9671;fill:#FFFFFF;}
	.st324{opacity:0.6273;fill:#FFFFFF;}
	.st325{opacity:0.3126;fill:#FFFFFF;}
	.st326{opacity:0.7314;fill:#FFFFFF;}
	.st327{opacity:0.8378;fill:#FFFFFF;}
	.st328{opacity:0.4705;fill:#FFFFFF;}
	.st329{opacity:0.2368;fill:#FFFFFF;}
	.st330{opacity:0.4724;fill:#FFFFFF;}
	.st331{opacity:0.9116;fill:#FFFFFF;}
	.st332{opacity:0.5858;fill:#FFFFFF;}
	.st333{opacity:0.4398;fill:#FFFFFF;}
	.st334{opacity:0.8615;fill:#FFFFFF;}
	.st335{opacity:0.8506;fill:#FFFFFF;}
	.st336{opacity:0.3097;fill:#FFFFFF;}
	.st337{opacity:0.1219;fill:#FFFFFF;}
	.st338{opacity:0.207;fill:#FFFFFF;}
	.st339{opacity:0.9212;fill:#FFFFFF;}
	.st340{opacity:0.8023;fill:#FFFFFF;}
	.st341{opacity:0.33;fill:#FFFFFF;}
	.st342{opacity:0.4321;fill:#FFFFFF;}
	.st343{opacity:0.3752;fill:#FFFFFF;}
	.st344{opacity:0.4989;fill:#FFFFFF;}
	.st345{opacity:0.7431;fill:#FFFFFF;}
	.st346{opacity:0.572;fill:#FFFFFF;}
	.st347{opacity:0.3314;fill:#FFFFFF;}
	.st348{opacity:0.2308;fill:#FFFFFF;}
	.st349{opacity:0.3346;fill:#FFFFFF;}
	.st350{opacity:0.8899;fill:#FFFFFF;}
	.st351{opacity:0.2537;fill:#FFFFFF;}
	.st352{opacity:0.9509;fill:#FFFFFF;}
	.st353{opacity:0.4285;fill:#FFFFFF;}
	.st354{opacity:0.5588;fill:#FFFFFF;}
	.st355{opacity:0.9935;fill:#FFFFFF;}
	.st356{opacity:0.8514;fill:#FFFFFF;}
	.st357{opacity:0.8938;fill:#FFFFFF;}
	.st358{opacity:0.1993;fill:#FFFFFF;}
	.st359{opacity:0.2016;fill:#FFFFFF;}
	.st360{opacity:0.6792;fill:#FFFFFF;}
	.st361{opacity:0.6432;fill:#FFFFFF;}
	.st362{opacity:0.9033;fill:#FFFFFF;}
	.st363{opacity:0.5209;fill:#FFFFFF;}
	.st364{opacity:0.7013;fill:#FFFFFF;}
	.st365{opacity:0.6554;fill:#FFFFFF;}
	.st366{opacity:0.9386;fill:#FFFFFF;}
	.st367{opacity:0.7473;fill:#FFFFFF;}
	.st368{opacity:0.1626;fill:#FFFFFF;}
	.st369{opacity:0.8172;fill:#FFFFFF;}
	.st370{opacity:0.5146;fill:#FFFFFF;}
	.st371{opacity:0.204;fill:#FFFFFF;}
	.st372{opacity:0.7412;fill:#FFFFFF;}
	.st373{opacity:0.2354;fill:#FFFFFF;}
	.st374{opacity:0.2903;fill:#FFFFFF;}
	.st375{opacity:0.1008;fill:#FFFFFF;}
	.st376{opacity:0.8074;fill:#FFFFFF;}
	.st377{opacity:0.3119;fill:#FFFFFF;}
	.st378{opacity:0.4622;fill:#FFFFFF;}
	.st379{opacity:0.5009;fill:#FFFFFF;}
	.st380{opacity:0.1471;fill:#FFFFFF;}
	.st381{opacity:0.4324;fill:#FFFFFF;}
	.st382{opacity:0.5136;fill:#FFFFFF;}
	.st383{opacity:0.1593;fill:#FFFFFF;}
	.st384{opacity:0.8629;fill:#FFFFFF;}
	.st385{opacity:0.1618;fill:#FFFFFF;}
	.st386{opacity:0.8083;fill:#FFFFFF;}
	.st387{opacity:0.2861;fill:#FFFFFF;}
	.st388{opacity:0.9021;fill:#FFFFFF;}
	.st389{opacity:0.6863;fill:#FFFFFF;}
	.st390{opacity:0.6995;fill:#FFFFFF;}
	.st391{opacity:0.8854;fill:#FFFFFF;}
	.st392{opacity:0.5864;fill:#FFFFFF;}
	.st393{opacity:0.8729;fill:#FFFFFF;}
	.st394{opacity:0.6958;fill:#FFFFFF;}
	.st395{opacity:0.7052;fill:#FFFFFF;}
	.st396{opacity:0.2942;fill:#FFFFFF;}
	.st397{opacity:0.2586;fill:#FFFFFF;}
	.st398{opacity:0.9142;fill:#FFFFFF;}
	.st399{opacity:0.969;fill:#FFFFFF;}
	.st400{opacity:0.247;fill:#FFFFFF;}
	.st401{opacity:0.3098;fill:#FFFFFF;}
	.st402{opacity:0.6323;fill:#FFFFFF;}
	.st403{opacity:0.5525;fill:#FFFFFF;}
	.st404{opacity:0.9207;fill:#FFFFFF;}
	.st405{opacity:0.5687;fill:#FFFFFF;}
	.st406{opacity:0.2176;fill:#FFFFFF;}
	.st407{opacity:0.1891;fill:#FFFFFF;}
	.st408{opacity:0.8643;fill:#FFFFFF;}
	.st409{opacity:0.6949;fill:#FFFFFF;}
	.st410{opacity:0.5903;fill:#FFFFFF;}
	.st411{opacity:0.9764;fill:#FFFFFF;}
	.st412{opacity:0.4814;fill:#FFFFFF;}
	.st413{opacity:0.4016;fill:#FFFFFF;}
	.st414{opacity:0.5821;fill:#FFFFFF;}
	.st415{opacity:0.5299;fill:#FFFFFF;}
	.st416{opacity:0.8416;fill:#FFFFFF;}
	.st417{opacity:0.8906;fill:#FFFFFF;}
	.st418{opacity:0.5229;fill:#FFFFFF;}
	.st419{opacity:0.946;fill:#FFFFFF;}
	.st420{opacity:0.3603;fill:#FFFFFF;}
	.st421{opacity:0.7353;fill:#FFFFFF;}
	.st422{opacity:0.2899;fill:#FFFFFF;}
	.st423{opacity:0.1153;fill:#FFFFFF;}
	.st424{opacity:0.2078;fill:#FFFFFF;}
	.st425{opacity:0.94;fill:#FFFFFF;}
	.st426{opacity:0.7334;fill:#FFFFFF;}
	.st427{opacity:0.5092;fill:#FFFFFF;}
	.st428{opacity:0.5919;fill:#FFFFFF;}
	.st429{opacity:0.7416;fill:#FFFFFF;}
	.st430{opacity:0.6893;fill:#FFFFFF;}
	.st431{opacity:0.5386;fill:#FFFFFF;}
	.st432{opacity:0.1512;fill:#FFFFFF;}
	.st433{opacity:0.7741;fill:#FFFFFF;}
	.st434{opacity:0.2359;fill:#FFFFFF;}
	.st435{opacity:0.6308;fill:#FFFFFF;}
	.st436{opacity:0.3422;fill:#FFFFFF;}
	.st437{opacity:0.9691;fill:#FFFFFF;}
	.st438{opacity:0.6071;fill:#FFFFFF;}
	.st439{opacity:0.8208;fill:#FFFFFF;}
	.st440{opacity:0.9546;fill:#FFFFFF;}
	.st441{opacity:0.813;fill:#FFFFFF;}
	.st442{opacity:0.6187;fill:#FFFFFF;}
	.st443{opacity:0.4053;fill:#FFFFFF;}
	.st444{opacity:0.3387;fill:#FFFFFF;}
	.st445{opacity:0.1336;fill:#FFFFFF;}
	.st446{opacity:0.7188;fill:#FFFFFF;}
	.st447{opacity:0.7545;fill:#FFFFFF;}
	.st448{opacity:0.8813;fill:#FFFFFF;}
	.st449{opacity:0.8376;fill:#FFFFFF;}
	.st450{opacity:0.1211;fill:#FFFFFF;}
	.st451{opacity:0.9115;fill:#FFFFFF;}
	.st452{opacity:0.5707;fill:#FFFFFF;}
	.st453{opacity:0.8305;fill:#FFFFFF;}
	.st454{opacity:0.3091;fill:#FFFFFF;}
	.st455{opacity:0.5732;fill:#FFFFFF;}
	.st456{opacity:0.3233;fill:#FFFFFF;}
	.st457{opacity:0.4212;fill:#FFFFFF;}
	.st458{opacity:0.1468;fill:#FFFFFF;}
	.st459{opacity:0.1478;fill:#FFFFFF;}
	.st460{opacity:0.7513;fill:#FFFFFF;}
	.st461{opacity:0.8743;fill:#FFFFFF;}
	.st462{opacity:0.5001;fill:#FFFFFF;}
	.st463{opacity:0.361;fill:#FFFFFF;}
	.st464{opacity:0.237;fill:#FFFFFF;}
	.st465{opacity:0.9379;fill:#FFFFFF;}
	.st466{opacity:0.5334;fill:#FFFFFF;}
	.st467{opacity:0.2588;fill:#FFFFFF;}
	.st468{opacity:0.959;fill:#FFFFFF;}
	.st469{opacity:0.2154;fill:#FFFFFF;}
	.st470{opacity:0.3873;fill:#FFFFFF;}
	.st471{opacity:0.8954;fill:#FFFFFF;}
	.st472{opacity:0.444;fill:#FFFFFF;}
	.st473{opacity:0.6735;fill:#FFFFFF;}
	.st474{opacity:0.559;fill:#FFFFFF;}
	.st475{opacity:0.5304;fill:#FFFFFF;}
	.st476{opacity:0.672;fill:#FFFFFF;}
	.st477{opacity:0.5275;fill:#FFFFFF;}
	.st478{opacity:0.8425;fill:#FFFFFF;}
	.st479{opacity:0.3871;fill:#FFFFFF;}
	.st480{opacity:0.5929;fill:#FFFFFF;}
	.st481{opacity:0.5772;fill:#FFFFFF;}
	.st482{opacity:0.4578;fill:#FFFFFF;}
	.st483{opacity:0.1582;fill:#FFFFFF;}
	.st484{opacity:0.6482;fill:#FFFFFF;}
	.st485{opacity:0.8125;fill:#FFFFFF;}
	.st486{opacity:0.5126;fill:#FFFFFF;}
	.st487{opacity:0.7562;fill:#FFFFFF;}
	.st488{opacity:0.5565;fill:#FFFFFF;}
	.st489{opacity:0.6695;fill:#FFFFFF;}
	.st490{opacity:0.764;fill:#FFFFFF;}
	.st491{opacity:0.2559;fill:#FFFFFF;}
	.st492{opacity:0.1783;fill:#FFFFFF;}
	.st493{opacity:0.2051;fill:#FFFFFF;}
	.st494{opacity:0.8397;fill:#FFFFFF;}
	.st495{opacity:0.349;fill:#FFFFFF;}
	.st496{opacity:0.7771;fill:#FFFFFF;}
	.st497{opacity:0.2391;fill:#FFFFFF;}
	.st498{opacity:0.6026;fill:#FFFFFF;}
	.st499{opacity:0.7859;fill:#FFFFFF;}
	.st500{opacity:0.6847;fill:#FFFFFF;}
	.st501{opacity:0.7613;fill:#FFFFFF;}
	.st502{opacity:0.195;fill:#FFFFFF;}
	.st503{opacity:0.2229;fill:#FFFFFF;}
	.st504{opacity:0.5309;fill:#FFFFFF;}
	.st505{opacity:0.7439;fill:#FFFFFF;}
	.st506{opacity:0.7497;fill:#FFFFFF;}
	.st507{fill:#FFFFFF;}
	.st508{display:inline;opacity:0.61;}
	.st509{display:inline;fill:url(#SVGID_4_);}
	.st510{display:inline;opacity:0.8;fill:#E2E2E2;}
	.st511{display:inline;opacity:0.5;fill:url(#SVGID_5_);}
	.st512{display:inline;fill:url(#SVGID_6_);}
	.st513{display:inline;opacity:0.2;}
	.st514{display:inline;fill:url(#SVGID_7_);}
	.st515{display:inline;opacity:0.8;fill:#E4E4E4;}
	.st516{display:inline;opacity:0.8;fill:#F2F2F2;}
	.st517{display:inline;fill:#FFFFFF;}
	.st518{display:inline;fill:none;stroke:#CCCCCC;stroke-width:0.805;stroke-miterlimit:10;}
	.st519{display:inline;fill:#999999;}
	.st520{display:inline;fill:none;stroke:#FFFFFF;stroke-width:0.4025;stroke-miterlimit:10;}
	.st521{display:inline;fill:#FFFFFF;stroke:#4178EF;stroke-width:0.805;stroke-miterlimit:10;}
	.st522{display:inline;fill:#82039A;}
	.st523{display:inline;}
	.st524{fill:#82039A;}
	.st525{display:inline;fill:none;stroke:#CCCCCC;stroke-width:0.6037;stroke-miterlimit:10;}
	.st526{display:inline;opacity:0.3;}
	.st527{fill:#EFC90A;}
	.st528{display:inline;fill:#CCCCCC;}
	.st529{fill:#666666;}
	.st530{display:inline;opacity:0.5;fill:#82039A;}
	.st531{display:inline;opacity:0.5;fill:none;stroke:#4178EF;stroke-width:0.6037;stroke-miterlimit:10;}
	.st532{display:inline;opacity:0.2;fill:url(#SVGID_8_);}
	.st533{opacity:0.53;}
	.st534{fill:url(#SVGID_9_);}
	.st535{fill:url(#SVGID_10_);}
	.st536{fill:none;}
	.st537{opacity:0.2;fill:#FFFFFF;}
	.st538{opacity:0.2;}
	.st539{opacity:0.5;}
	.st540{clip-path:url(#SVGID_12_);}
	.st541{fill:#008E6A;}
	.st542{clip-path:url(#SVGID_12_);fill:#008E6A;}
	.st543{opacity:0.8;}
	.st544{fill:#262626;}
	.st545{fill:#4F99F0;}
	.st546{fill:#DFDEDC;}
	.st547{clip-path:url(#SVGID_12_);fill:#333333;}
	.st548{fill:none;stroke:#000000;stroke-width:0.2731;stroke-linecap:round;stroke-linejoin:round;stroke-miterlimit:10;}
	.st549{clip-path:url(#SVGID_12_);fill:#FF0000;}
	
		.st550{clip-path:url(#SVGID_12_);fill:none;stroke:#000000;stroke-width:0.2731;stroke-linecap:round;stroke-linejoin:round;stroke-miterlimit:10;}
	.st551{fill:#DDDDDD;}
	.st552{fill:#585858;}
	.st553{clip-path:url(#SVGID_14_);fill:#FFFFFF;}
	.st554{clip-path:url(#SVGID_14_);}
	.st555{fill:#F4F4F4;}
	.st556{fill:none;stroke:#EDEDED;stroke-width:0.175;stroke-miterlimit:10;}
	.st557{fill:none;stroke:#BCBCBC;stroke-width:0.1763;stroke-miterlimit:10;}
	.st558{fill:none;stroke:#000000;stroke-width:0.35;stroke-linecap:round;stroke-linejoin:round;stroke-miterlimit:10;}
	.st559{stroke:#000000;stroke-width:0.5423;stroke-linecap:round;stroke-linejoin:round;stroke-miterlimit:10;}
	.st560{fill:#BC586E;}
	.st561{fill:url(#SVGID_15_);}
	.st562{clip-path:url(#SVGID_17_);}
	.st563{fill:#B0B0B0;}
	.st564{fill:#EDEDED;}
	.st565{fill:url(#SVGID_18_);}
	.st566{fill:url(#SVGID_19_);}
	.st567{fill:url(#SVGID_20_);}
	.st568{fill:url(#SVGID_21_);}
	.st569{clip-path:url(#SVGID_23_);}
	.st570{fill:none;stroke:#000000;stroke-width:0.2803;stroke-linecap:round;stroke-linejoin:round;stroke-miterlimit:10;}
	.st571{fill:#FF0000;}
	.st572{clip-path:url(#SVGID_25_);}
	.st573{fill:none;stroke:#000000;stroke-width:0.2806;stroke-linecap:round;stroke-linejoin:round;stroke-miterlimit:10;}
	.st574{fill:#323232;}
	.st575{opacity:0.63;fill:url(#SVGID_26_);}
	.st576{fill:#701C34;}
	.st577{fill:#691B2E;}
	.st578{fill:#612033;}
	.st579{fill:#601D37;}
	.st580{fill:#671E30;}
	.st581{fill:#661D35;}
	.st582{fill:#5E333E;}
	.st583{fill:#58A45F;}
	.st584{fill:#691C31;}
	.st585{fill:#67243C;}
	.st586{fill:#722B32;}
	.st587{fill:#A8C3A5;}
	.st588{fill:#46221E;}
	.st589{fill:#6D2943;}
	.st590{fill:#FCCD04;}
	.st591{fill:#EB984F;}
	.st592{fill:#C4704F;}
	.st593{fill:#D2961A;}
	.st594{fill:#CC8048;}
	.st595{fill:#CB8B30;}
	.st596{fill:#F7D3BE;}
	.st597{fill:#C78733;}
	.st598{fill:#C97C56;}
	.st599{fill:#CD8E93;}
	.st600{fill:#5D1008;}
	.st601{fill:#D3961B;}
	.st602{fill:#D29420;}
	.st603{fill:#CE8D35;}
	.st604{fill:#C47666;}
	.st605{fill:#BE7166;}
	.st606{fill:#D18F44;}
	.st607{fill:#F8E8A0;}
	.st608{fill:#F2D887;}
	.st609{fill:#5DB164;}
	.st610{fill:#EDC573;}
	.st611{fill:#99AF92;}
	.st612{fill:#EEB9A8;}
	.st613{fill:#F3DD97;}
	.st614{fill:#7B3313;}
	.st615{fill:#56B861;}
	.st616{fill:#5A4923;}
	.st617{fill:#D08B4A;}
	.st618{fill:#AA605C;}
	.st619{fill:#FBDCCB;}
	.st620{fill:#7E1C25;}
	.st621{fill:#7E2129;}
	.st622{fill:#5F3725;}
	.st623{fill:#563424;}
	.st624{fill:#593428;}
	.st625{fill:#F4C527;}
	.st626{fill:#62AF66;}
	.st627{fill:#6E4119;}
	.st628{fill:#5DAC66;}
	.st629{fill:#7D1722;}
	.st630{fill:#F2C01B;}
	.st631{fill:#9A551A;}
	.st632{fill:#DAA208;}
	.st633{fill:#A64E32;}
	.st634{fill:#C6161F;}
	.st635{fill:#C21821;}
	.st636{fill:#DD1B27;}
	.st637{fill:#D8697E;}
	.st638{fill:#C62C4A;}
	.st639{fill:#C0171F;}
	.st640{fill:#E01A25;}
	.st641{fill:#CA1D2F;}
	.st642{fill:#DE6D7F;}
	.st643{fill:#5CB266;}
	.st644{fill:#5DB364;}
	.st645{fill:#5B5235;}
	.st646{opacity:0.7;fill:#FFFFFF;}
	.st647{opacity:0.35;}
	.st648{fill:#131D1F;}
	.st649{fill:#19373B;}
	.st650{fill:#142521;}
	.st651{fill:#FEFDFD;}
	.st652{fill:#01986B;}
	.st653{fill:#009670;}
	.st654{fill:#00E3D9;}
	.st655{fill:#099664;}
	.st656{fill:#039669;}
	.st657{fill:#F90922;}
	.st658{fill:#FA0922;}
	.st659{fill:#F30E21;}
	.st660{fill:#FB061D;}
	.st661{fill:#F90920;}
	.st662{fill:#EB1B2C;}
	.st663{fill:#F75361;}
	.st664{fill:#EB182A;}
	.st665{fill:#FD022F;}
	.st666{fill:#FD012E;}
	.st667{fill:#FE012F;}
	.st668{fill:#FE012E;}
	.st669{fill:#02935D;}
	.st670{fill:#049E71;}
	.st671{fill:#FED4DC;}
	.st672{fill:#009865;}
	.st673{fill:#00A477;}
	.st674{fill:#E61325;}
	.st675{fill:#F0FCFB;}
	.st676{fill:#F7FDFD;}
	.st677{fill:#E7FBFA;}
	.st678{fill:#FBFDFD;}
	.st679{fill:#D9F8F6;}
	.st680{fill:#B5F5F1;}
	.st681{fill:#09D3C2;}
	.st682{fill:#FDFEFE;}
	.st683{fill:#009D77;}
	.st684{fill:#7FEFEA;}
	.st685{fill:#039864;}
	.st686{fill:#F8FDFD;}
	.st687{fill:#006850;}
	.st688{fill:#00CAB0;}
	.st689{fill:#FEEBEE;}
	.st690{fill:#F9F1F2;}
	.st691{fill:#00AA80;}
	.st692{fill:#F0F5F5;}
	.st693{fill:#0DA07A;}
	.st694{fill:#FE002E;}
	.st695{fill:#FE6B89;}
	.st696{fill:#00A87D;}
	.st697{fill:#00976A;}
	.st698{fill:#1A8C65;}
	.st699{fill:#009061;}
	.st700{fill:#009C72;}
	.st701{fill:#92E5D9;}
	.st702{fill:#008F5E;}
	.st703{fill:#00976D;}
	.st704{fill:#F8E7EA;}
	.st705{opacity:0.22;}
	.st706{fill:#F1B336;}
	.st707{fill:#BC6921;}
	.st708{fill:#BA671F;}
	.st709{fill:#C37226;}
	.st710{fill:#BD6B26;}
	.st711{fill:#C67125;}
	.st712{fill:#B1530E;}
	.st713{fill:#AA5B31;}
	.st714{fill:#CC0D0A;}
	.st715{fill:#C90605;}
	.st716{fill:#C90506;}
	.st717{fill:#E5181E;}
	.st718{fill:#F1AE35;}
	.st719{fill:#F7CD6E;}
	.st720{fill:#C70806;}
	.st721{fill:#E6151C;}
	.st722{fill:#CA0C0A;}
	.st723{fill:#F5CB70;}
	.st724{fill:#D41610;}
	.st725{fill:#F4C264;}
	.st726{fill:#F8CD72;}
	.st727{fill:#C90806;}
	.st728{fill:#DF251E;}
	.st729{fill:#DE1A17;}
	.st730{fill:#F3C266;}
	.st731{fill:#F4C86A;}
	.st732{fill:#F6C161;}
	.st733{fill:#F5C364;}
	.st734{fill:#F5C15D;}
	.st735{fill:#C40E06;}
	.st736{fill:#EFB84B;}
	.st737{fill:#E2302C;}
	.st738{fill:#F8D587;}
	.st739{fill:#F6CC69;}
	.st740{fill:#FAE590;}
	.st741{fill:#F8DF90;}
	.st742{fill:#F4C262;}
	.st743{fill:#F7E389;}
	.st744{fill:#F8CA66;}
	.st745{fill:#F8C969;}
	.st746{fill:#F8DA98;}
	.st747{fill:#F8DE8E;}
	.st748{fill:#FDE5A2;}
	.st749{fill:#F9D78A;}
	.st750{fill:#F7D98B;}
	.st751{fill:#B86824;}
	.st752{fill:#B56826;}
	.st753{fill:#BD6822;}
	.st754{fill:#BA6B2F;}
	.st755{fill:#F5C86F;}
	.st756{fill:#F9C874;}
	.st757{fill:#152423;}
	.st758{fill:#E21C1D;}
	.st759{fill:#DF191A;}
	.st760{fill:#D9914F;}
	.st761{fill:#E2191F;}
	.st762{fill:#9CC137;}
	.st763{fill:#F8CA68;}
	.st764{fill:#1E2524;}
	.st765{fill:#F7C86D;}
	.st766{fill:#808622;}
	.st767{fill:#131D1D;}
	.st768{fill:#F9C76E;}
	.st769{fill:#F3B569;}
	.st770{fill:#ED4544;}
	.st771{fill:#F4C86F;}
	.st772{fill:#F3C56A;}
	.st773{fill:#F7C966;}
	.st774{fill:#FAEBAC;}
	.st775{fill:#FADA98;}
	.st776{fill:#F8C66B;}
	.st777{fill:#E51719;}
	.st778{fill:#959625;}
	.st779{fill:#C97E42;}
	.st780{fill:#F4BF6B;}
	.st781{fill:#F1C473;}
	.st782{fill:#DB1314;}
	.st783{fill:#F9C872;}
	.st784{fill:#D98F54;}
	.st785{fill:#DE181D;}
	.st786{fill:#F59D6E;}
	.st787{fill:#F5C36D;}
	.st788{fill:#E32224;}
	.st789{fill:#F9B17A;}
	.st790{fill:#DD9258;}
	.st791{fill:#E6413D;}
	.st792{fill:#E09D38;}
	.st793{fill:#E3953B;}
	.st794{fill:#708718;}
	.st795{fill:#6D8E1A;}
	.st796{fill:#172728;}
	.st797{fill:#F4BA78;}
	.st798{fill:#EB974F;}
	.st799{fill:#BB7231;}
	.st800{fill:#C78843;}
	.st801{fill:#16170F;}
	.st802{fill:#C31814;}
	.st803{fill:#DBC075;}
	.st804{fill:#F9C096;}
	.st805{fill:#7A8622;}
	.st806{fill:#6E7D14;}
	.st807{fill:#B56834;}
	.st808{fill:#E0995D;}
	.st809{fill:#EEC567;}
	.st810{fill:#F28636;}
	.st811{fill:#F9F3E6;}
	.st812{fill:#E5B9AE;}
	.st813{fill:#96471A;}
	.st814{fill:#192726;}
	.st815{fill:#F7414C;}
	.st816{fill:#F1BF79;}
	.st817{fill:#7B9724;}
	.st818{fill:#BC424A;}
	.st819{fill:#7B8428;}
	.st820{fill:#5D7E07;}
	.st821{fill:#DCC175;}
	.st822{fill:#203435;}
	.st823{fill:#697F15;}
	.st824{fill:#B54E3E;}
	.st825{fill:#AC4E37;}
	.st826{fill:#F9BB93;}
	.st827{fill:#EAC258;}
	.st828{fill:#F4C46F;}
	.st829{fill:#B56A36;}
	.st830{fill:#EBA751;}
	.st831{fill:#F48F3D;}
	.st832{fill:#AE3D33;}
	.st833{fill:#56690A;}
	.st834{fill:#A25414;}
	.st835{fill:#F3B083;}
	.st836{fill:#865C15;}
	.st837{fill:#BD813E;}
	.st838{fill:#AF3141;}
	.st839{fill:#15353A;}
	.st840{fill:#C65561;}
	.st841{fill:#C57B43;}
	.st842{fill:#8E341B;}
	.st843{fill:#E83631;}
	.st844{fill:#C61E0F;}
	.st845{fill:#ABBE3C;}
	.st846{fill:#DC231B;}
	.st847{fill:#B46E2F;}
	.st848{fill:#F9BF93;}
	.st849{fill:#E9A05C;}
	.st850{fill:#97471A;}
	.st851{fill:#F6AA74;}
	.st852{fill:#96471C;}
	.st853{fill:#944817;}
	.st854{fill:#1D2525;}
	.st855{fill:#B94753;}
	.st856{fill:#788D16;}
	.st857{fill:#A0C13B;}
	.st858{fill:#7F9F20;}
	.st859{fill:#79441D;}
	.st860{fill:#E4B855;}
	.st861{fill:#962B27;}
	.st862{fill:#162728;}
	.st863{fill:#CC1514;}
	.st864{fill:#FAD695;}
	.st865{fill:#B44E4C;}
	.st866{fill:#BB7734;}
	.st867{fill:#5A540E;}
	.st868{fill:#A73B35;}
	.st869{fill:#D5C6AA;}
	.st870{fill:#F9BC91;}
	.st871{fill:#BB723B;}
	.st872{fill:#E87E32;}
	.st873{fill:#8F4014;}
	.st874{fill:#F3C862;}
	.st875{fill:#64740F;}
	.st876{fill:#C11612;}
	.st877{fill:#EB3A32;}
	.st878{fill:#F7DEA1;}
	.st879{fill:#82470C;}
	.st880{fill:#BDB54C;}
	.st881{fill:#767317;}
	.st882{fill:#B1333F;}
	.st883{fill:#F7C858;}
	.st884{fill:#BE4A58;}
	.st885{fill:#F2D5D0;}
	.st886{fill:#DB803C;}
	.st887{fill:#D9BD72;}
	.st888{fill:#B7601D;}
	.st889{fill:#F4BB57;}
	.st890{fill:#A2561D;}
	.st891{fill:#954B12;}
	.st892{fill:#F2B080;}
	.st893{fill:#C67B41;}
	.st894{fill:#E09357;}
	.st895{fill:#E59C60;}
	.st896{fill:#F5B176;}
	.st897{fill:#AA313E;}
	.st898{fill:#EE493E;}
	.st899{fill:#C9585D;}
	.st900{fill:#F0C264;}
	.st901{fill:#F47061;}
	.st902{fill:#BF4A54;}
	.st903{fill:#F6BF55;}
	.st904{fill:#F8EAD5;}
	.st905{fill:#E77631;}
	.st906{fill:#C5120F;}
	.st907{fill:#FAE8DD;}
	.st908{fill:#EDBA4C;}
	.st909{fill:#F4CB75;}
	.st910{fill:#DC9453;}
	.st911{fill:#949E49;}
	.st912{fill:#EDBE56;}
	.st913{fill:#E0BF71;}
	.st914{fill:#F2CA5F;}
	.st915{fill:#954530;}
	.st916{fill:#B36C27;}
	.st917{fill:#984512;}
	.st918{fill:#DEC477;}
	.st919{fill:#E17A82;}
	.st920{fill:#7B7B28;}
	.st921{fill:#BE544D;}
	.st922{fill:#AC3744;}
	.st923{fill:#777F1C;}
	.st924{fill:#976C2A;}
	.st925{fill:#C04551;}
	.st926{fill:#D67178;}
	.st927{fill:#BE1F12;}
	.st928{fill:#FCECBA;}
	.st929{fill:#F5C355;}
	.st930{fill:#B93D44;}
	.st931{fill:#D0180C;}
	.st932{fill:#97B031;}
	.st933{fill:#F2C353;}
	.st934{fill:#AB4A3C;}
	.st935{fill:#ED413B;}
	.st936{fill:#F36859;}
	.st937{fill:#B61109;}
	.st938{fill:#E95B42;}
	.st939{fill:#FAC856;}
	.st940{fill:#F5CF72;}
	.st941{fill:#C2180E;}
	.st942{fill:#B35731;}
	.st943{fill:#C97945;}
	.st944{fill:#CE1412;}
	.st945{fill:#C13039;}
	.st946{fill:#ED863C;}
	.st947{fill:#E88588;}
	.st948{fill:#99B24D;}
	.st949{fill:#B2303C;}
	.st950{fill:#F4CB5E;}
	.st951{fill:#939E3A;}
	.st952{fill:#F1C45B;}
	.st953{fill:#F4D9DB;}
	.st954{fill:#EA8644;}
	.st955{fill:#C01214;}
	.st956{fill:#D2B883;}
	.st957{fill:#7B701F;}
	.st958{fill:#B0D065;}
	.st959{fill:#8A9B48;}
	.st960{fill:#9D4C25;}
	.st961{fill:#AF3842;}
	.st962{fill:#A9363B;}
	.st963{fill:#C71110;}
	.st964{fill:#B43E3B;}
	.st965{fill:#90A83B;}
	.st966{fill:#8EAB40;}
	.st967{fill:#E41C1F;}
	.st968{fill:#E49D65;}
	.st969{fill:#F5BA90;}
	.st970{fill:#F2DCD7;}
	.st971{fill:#A1B633;}
	.st972{fill:#809416;}
	.st973{fill:#943321;}
	.st974{fill:#F7A13C;}
	.st975{fill:#9E3B3C;}
	.st976{fill:#E7B0B2;}
	.st977{fill:#914312;}
	.st978{fill:#944015;}
	.st979{fill:#F6C156;}
	.st980{fill:#F4E5E0;}
	.st981{fill:#BE4B58;}
	.st982{fill:#F3D1CC;}
	.st983{fill:#F0BCBB;}
	.st984{fill:#BB4845;}
	.st985{fill:#C51710;}
	.st986{fill:#BA7525;}
	.st987{fill:#BC4951;}
	.st988{fill:#F8BE94;}
	.st989{fill:#CE844A;}
	.st990{fill:#BD703A;}
	.st991{fill:#954513;}
	.st992{fill:#98481A;}
	.st993{fill:#C65054;}
	.st994{fill:#DF272A;}
	.st995{fill:#817E2A;}
	.st996{fill:#C5180B;}
	.st997{fill:#BD762E;}
	.st998{fill:#D92118;}
	.st999{fill:#EC4239;}
	.st1000{fill:#FB8E84;}
	.st1001{fill:#AD363D;}
	.st1002{fill:#83A824;}
	.st1003{fill:#DF4D2E;}
	.st1004{fill:#DF9657;}
	.st1005{fill:#ED8E32;}
	.st1006{fill:#869E26;}
	.st1007{fill:#D0191F;}
	.st1008{fill:#A9C53A;}
	.st1009{fill:#BF5852;}
	.st1010{fill:#A66A32;}
	.st1011{fill:#F56656;}
	.st1012{fill:#B50805;}
	.st1013{fill:#FA654E;}
	.st1014{fill:#10201C;}
	.st1015{fill:#15363E;}
	.st1016{fill:#983634;}
	.st1017{fill:#85A423;}
	.st1018{fill:#F7E3A2;}
	.st1019{fill:#DF965B;}
	.st1020{fill:#B26731;}
	.st1021{fill:#BB5B45;}
	.st1022{fill:#C14148;}
	.st1023{fill:#D15D69;}
	.st1024{fill:#51680B;}
	.st1025{fill:#BE1A0E;}
	.st1026{fill:#F39833;}
	.st1027{fill:#687C12;}
	.st1028{fill:#806412;}
	.st1029{fill:#B13343;}
	.st1030{fill:#B3533F;}
	.st1031{fill:#7A7719;}
	.st1032{fill:#E5A54F;}
	.st1033{fill:#A2C13F;}
	.st1034{fill:#8E5B3A;}
	.st1035{fill:#F7C252;}
	.st1036{fill:#F9E7E7;}
	.st1037{fill:#F8BC91;}
	.st1038{fill:#D11010;}
	.st1039{fill:#BC6828;}
	.st1040{fill:#F3A73D;}
	.st1041{fill:#F9D46E;}
	.st1042{fill:#C03C47;}
	.st1043{fill:#B75359;}
	.st1044{fill:#F7D780;}
	.st1045{fill:#F38031;}
	.st1046{fill:#974415;}
	.st1047{fill:#B85C1A;}
	.st1048{fill:#EE413B;}
	.st1049{fill:#F2B74C;}
	.st1050{fill:#F16D5A;}
	.st1051{fill:#F4AF79;}
	.st1052{fill:#F1857C;}
	.st1053{fill:#BF150E;}
	.st1054{fill:#B80D08;}
	.st1055{fill:#A0C53A;}
	.st1056{fill:#F8CA53;}
	.st1057{fill:#83A022;}
	.st1058{fill:#BB5560;}
	.st1059{fill:#EDB5AB;}
	.st1060{fill:#83A722;}
	.st1061{fill:#DAC067;}
	.st1062{fill:#A4C13A;}
	.st1063{fill:#F54841;}
	.st1064{fill:#B4120A;}
	.st1065{fill:#F57468;}
	.st1066{fill:#EF959B;}
	.st1067{fill:#8E360E;}
	.st1068{fill:#BC303B;}
	.st1069{fill:#EAD06D;}
	.st1070{fill:#EBC350;}
	.st1071{fill:#ED6153;}
	.st1072{fill:#DA3B2A;}
	.st1073{fill:#C2150E;}
	.st1074{fill:#FCDB78;}
	.st1075{fill:#C5180F;}
	.st1076{fill:#C21910;}
	.st1077{opacity:0.27;}
	.st1078{fill:#C4C4C4;}
	.st1079{fill:#5E0079;}
	.st1080{fill:#4D4D4D;}
	.st1081{opacity:0.6;fill:#82039A;}
	.st1082{fill:#4178EF;}
	.st1083{fill:#6E27B4;}
</style>
<g id="web" class="st0">
</g>
<g id="Capa_4">
</g>
<g id="Capa_3">
</g>
<g id="logo">
	<g>
		<g>
			<path class="st524" d="M309.71,125.81l-1.62,1.24c-0.89-1.16-1.97-2.04-3.22-2.64c-1.25-0.6-2.63-0.9-4.12-0.9
				c-1.64,0-3.15,0.39-4.55,1.18c-1.39,0.79-2.48,1.84-3.24,3.17c-0.77,1.33-1.15,2.82-1.15,4.47c0,2.5,0.86,4.59,2.57,6.26
				c1.72,1.67,3.88,2.51,6.49,2.51c2.87,0,5.28-1.13,7.21-3.38l1.62,1.23c-1.02,1.3-2.3,2.31-3.83,3.02
				c-1.53,0.71-3.24,1.07-5.13,1.07c-3.59,0-6.42-1.19-8.5-3.59c-1.74-2.02-2.61-4.46-2.61-7.31c0-3,1.05-5.53,3.16-7.58
				c2.11-2.05,4.75-3.08,7.92-3.08c1.92,0,3.65,0.38,5.19,1.14C307.46,123.38,308.73,124.44,309.71,125.81z"/>
			<path class="st524" d="M312.77,127.34h1.99v2.22c0.6-0.87,1.22-1.53,1.88-1.96s1.35-0.65,2.07-0.65c0.54,0,1.12,0.17,1.73,0.52
				l-1.02,1.65c-0.41-0.18-0.75-0.27-1.03-0.27c-0.65,0-1.28,0.27-1.88,0.8c-0.6,0.54-1.06,1.37-1.38,2.49
				c-0.24,0.86-0.36,2.61-0.36,5.25v5.13h-1.99V127.34z"/>
			<path class="st524" d="M334.88,137.48l1.65,0.87c-0.54,1.06-1.16,1.92-1.87,2.57c-0.71,0.65-1.5,1.15-2.39,1.49
				c-0.88,0.34-1.89,0.51-3,0.51c-2.48,0-4.41-0.81-5.81-2.43c-1.4-1.62-2.09-3.46-2.09-5.5c0-1.93,0.59-3.64,1.77-5.15
				c1.5-1.92,3.5-2.87,6.02-2.87c2.59,0,4.65,0.98,6.2,2.94c1.1,1.39,1.66,3.12,1.68,5.19h-13.66c0.04,1.76,0.6,3.21,1.69,4.34
				c1.09,1.13,2.44,1.69,4.04,1.69c0.77,0,1.53-0.13,2.26-0.4c0.73-0.27,1.35-0.63,1.87-1.07
				C333.73,139.19,334.29,138.48,334.88,137.48z M334.88,133.4c-0.26-1.04-0.64-1.87-1.14-2.5c-0.5-0.62-1.16-1.13-1.98-1.51
				s-1.68-0.57-2.58-0.57c-1.49,0-2.77,0.48-3.84,1.44c-0.78,0.7-1.37,1.74-1.77,3.14H334.88z"/>
			<path class="st524" d="M355.79,127.34v15.18h-1.92v-2.61c-0.82,1-1.74,1.74-2.76,2.25s-2.13,0.75-3.34,0.75
				c-2.15,0-3.98-0.78-5.5-2.34c-1.52-1.56-2.28-3.45-2.28-5.69c0-2.19,0.77-4.06,2.3-5.61c1.53-1.55,3.38-2.33,5.54-2.33
				c1.25,0,2.37,0.26,3.38,0.79s1.9,1.33,2.66,2.39v-2.79H355.79z M347.99,128.83c-1.09,0-2.09,0.27-3.01,0.8
				c-0.92,0.53-1.65,1.28-2.2,2.25c-0.54,0.97-0.82,1.99-0.82,3.07c0,1.07,0.27,2.09,0.82,3.07c0.55,0.98,1.28,1.73,2.21,2.28
				c0.92,0.54,1.92,0.82,2.98,0.82c1.07,0,2.08-0.27,3.04-0.81c0.96-0.54,1.69-1.27,2.21-2.19s0.77-1.96,0.77-3.11
				c0-1.76-0.58-3.22-1.73-4.4C351.1,129.42,349.68,128.83,347.99,128.83z"/>
			<path class="st524" d="M360.18,127.34h1.95v2.62c0.68-0.97,1.38-1.67,2.09-2.12c0.99-0.6,2.03-0.89,3.12-0.89
				c0.74,0,1.43,0.14,2.09,0.43c0.66,0.29,1.2,0.67,1.62,1.15s0.78,1.16,1.09,2.06c0.65-1.19,1.46-2.09,2.44-2.71
				s2.02-0.93,3.15-0.93c1.05,0,1.97,0.26,2.78,0.79c0.8,0.53,1.4,1.27,1.79,2.22s0.58,2.37,0.58,4.27v8.29h-2v-8.29
				c0-1.63-0.12-2.75-0.35-3.36c-0.23-0.61-0.63-1.1-1.19-1.47c-0.56-0.37-1.23-0.56-2.01-0.56c-0.95,0-1.81,0.28-2.59,0.84
				s-1.36,1.3-1.72,2.23s-0.54,2.48-0.54,4.66v5.94h-1.95v-7.77c0-1.83-0.11-3.08-0.34-3.73c-0.23-0.66-0.63-1.18-1.19-1.58
				s-1.24-0.59-2.02-0.59c-0.9,0-1.75,0.27-2.53,0.82s-1.37,1.28-1.74,2.2s-0.56,2.33-0.56,4.23v6.43h-1.95V127.34z"/>
			<path class="st524" d="M394.18,126.95c2.34,0,4.28,0.85,5.81,2.54c1.4,1.54,2.1,3.37,2.1,5.48c0,2.12-0.74,3.97-2.22,5.56
				c-1.48,1.59-3.38,2.38-5.7,2.38c-2.33,0-4.23-0.79-5.71-2.38c-1.48-1.59-2.21-3.44-2.21-5.56c0-2.1,0.7-3.92,2.1-5.47
				C389.88,127.8,391.83,126.95,394.18,126.95z M394.17,128.86c-1.62,0-3.02,0.6-4.19,1.8c-1.17,1.2-1.75,2.65-1.75,4.35
				c0,1.1,0.27,2.12,0.8,3.07c0.53,0.95,1.25,1.68,2.16,2.2s1.9,0.77,2.98,0.77s2.08-0.26,2.98-0.77s1.62-1.25,2.16-2.2
				c0.53-0.95,0.8-1.97,0.8-3.07c0-1.7-0.59-3.15-1.76-4.35C397.18,129.46,395.78,128.86,394.17,128.86z"/>
			<path class="st524" d="M413.33,129l-1.25,1.3c-1.04-1.01-2.07-1.52-3.06-1.52c-0.63,0-1.18,0.21-1.63,0.63
				c-0.45,0.42-0.68,0.91-0.68,1.47c0,0.49,0.19,0.96,0.56,1.41c0.37,0.46,1.16,0.99,2.35,1.6c1.45,0.75,2.44,1.48,2.96,2.18
				c0.51,0.71,0.77,1.5,0.77,2.39c0,1.25-0.44,2.3-1.31,3.17c-0.88,0.86-1.97,1.3-3.28,1.3c-0.88,0-1.71-0.19-2.51-0.57
				c-0.8-0.38-1.46-0.91-1.98-1.58l1.23-1.4c1,1.13,2.06,1.69,3.17,1.69c0.78,0,1.45-0.25,2-0.75c0.55-0.5,0.83-1.09,0.83-1.77
				c0-0.56-0.18-1.06-0.55-1.49c-0.36-0.43-1.18-0.97-2.46-1.62c-1.37-0.71-2.3-1.4-2.8-2.09c-0.49-0.69-0.74-1.47-0.74-2.36
				c0-1.15,0.39-2.11,1.18-2.87c0.79-0.76,1.78-1.14,2.98-1.14C410.51,126.95,411.92,127.64,413.33,129z"/>
			<path class="st524" d="M425.38,121.09c0.44,0,0.82,0.16,1.14,0.47c0.31,0.32,0.47,0.7,0.47,1.14c0,0.44-0.16,0.81-0.47,1.13
				s-0.69,0.47-1.14,0.47c-0.44,0-0.81-0.16-1.13-0.47c-0.31-0.32-0.47-0.69-0.47-1.13c0-0.45,0.16-0.83,0.47-1.14
				C424.57,121.25,424.94,121.09,425.38,121.09z M424.41,127.34h1.95v15.18h-1.95V127.34z"/>
			<path class="st524" d="M445.57,121.48v21.04h-1.93v-2.61c-0.82,1-1.74,1.74-2.75,2.25s-2.13,0.75-3.34,0.75
				c-2.15,0-3.98-0.78-5.5-2.34c-1.52-1.56-2.28-3.45-2.28-5.69c0-2.19,0.77-4.06,2.3-5.61c1.53-1.55,3.38-2.33,5.54-2.33
				c1.25,0,2.37,0.26,3.38,0.79c1.01,0.53,1.89,1.33,2.66,2.39v-8.65H445.57z M437.77,128.83c-1.09,0-2.09,0.27-3.01,0.8
				s-1.65,1.28-2.19,2.25c-0.54,0.97-0.82,1.99-0.82,3.07c0,1.07,0.27,2.09,0.82,3.07c0.55,0.98,1.28,1.73,2.21,2.28
				c0.92,0.54,1.92,0.82,2.98,0.82c1.07,0,2.08-0.27,3.04-0.81c0.96-0.54,1.69-1.27,2.21-2.19s0.77-1.96,0.77-3.11
				c0-1.76-0.58-3.22-1.74-4.4C440.88,129.42,439.46,128.83,437.77,128.83z"/>
			<path class="st524" d="M462.78,137.48l1.65,0.87c-0.54,1.06-1.16,1.92-1.87,2.57c-0.71,0.65-1.5,1.15-2.39,1.49
				c-0.88,0.34-1.89,0.51-3,0.51c-2.48,0-4.41-0.81-5.81-2.43c-1.4-1.62-2.09-3.46-2.09-5.5c0-1.93,0.59-3.64,1.77-5.15
				c1.5-1.92,3.5-2.87,6.02-2.87c2.59,0,4.65,0.98,6.2,2.94c1.1,1.39,1.66,3.12,1.68,5.19h-13.66c0.04,1.76,0.6,3.21,1.69,4.34
				c1.09,1.13,2.44,1.69,4.04,1.69c0.77,0,1.53-0.13,2.26-0.4c0.73-0.27,1.35-0.63,1.87-1.07
				C461.63,139.19,462.18,138.48,462.78,137.48z M462.78,133.4c-0.26-1.04-0.64-1.87-1.14-2.5c-0.5-0.62-1.16-1.13-1.98-1.51
				s-1.68-0.57-2.58-0.57c-1.49,0-2.77,0.48-3.84,1.44c-0.78,0.7-1.37,1.74-1.77,3.14H462.78z"/>
			<path class="st524" d="M483.69,127.34v15.18h-1.92v-2.61c-0.82,1-1.74,1.74-2.76,2.25s-2.13,0.75-3.34,0.75
				c-2.15,0-3.98-0.78-5.5-2.34c-1.52-1.56-2.28-3.45-2.28-5.69c0-2.19,0.77-4.06,2.3-5.61c1.53-1.55,3.38-2.33,5.54-2.33
				c1.25,0,2.37,0.26,3.38,0.79s1.9,1.33,2.66,2.39v-2.79H483.69z M475.88,128.83c-1.09,0-2.09,0.27-3.01,0.8
				c-0.92,0.53-1.65,1.28-2.2,2.25c-0.54,0.97-0.82,1.99-0.82,3.07c0,1.07,0.27,2.09,0.82,3.07c0.55,0.98,1.28,1.73,2.21,2.28
				c0.92,0.54,1.92,0.82,2.98,0.82c1.07,0,2.08-0.27,3.04-0.81c0.96-0.54,1.69-1.27,2.21-2.19s0.77-1.96,0.77-3.11
				c0-1.76-0.58-3.22-1.73-4.4C479,129.42,477.57,128.83,475.88,128.83z"/>
			<path class="st524" d="M495.72,129l-1.25,1.3c-1.04-1.01-2.07-1.52-3.06-1.52c-0.63,0-1.18,0.21-1.63,0.63
				c-0.45,0.42-0.68,0.91-0.68,1.47c0,0.49,0.19,0.96,0.56,1.41c0.37,0.46,1.16,0.99,2.35,1.6c1.45,0.75,2.44,1.48,2.96,2.18
				c0.51,0.71,0.77,1.5,0.77,2.39c0,1.25-0.44,2.3-1.31,3.17c-0.88,0.86-1.97,1.3-3.28,1.3c-0.88,0-1.71-0.19-2.51-0.57
				c-0.8-0.38-1.46-0.91-1.98-1.58l1.23-1.4c1,1.13,2.06,1.69,3.17,1.69c0.78,0,1.45-0.25,2-0.75c0.55-0.5,0.83-1.09,0.83-1.77
				c0-0.56-0.18-1.06-0.55-1.49c-0.36-0.43-1.18-0.97-2.46-1.62c-1.37-0.71-2.3-1.4-2.8-2.09c-0.49-0.69-0.74-1.47-0.74-2.36
				c0-1.15,0.39-2.11,1.18-2.87c0.79-0.76,1.78-1.14,2.98-1.14C492.89,126.95,494.3,127.64,495.72,129z"/>
		</g>
		<g>
			<g>
				<g>
					<path class="st527" d="M97.86,48.4l11.88-6.02c-3.7-7.42-9.73-13.46-17.13-17.18l-5.89,11.95
						C91.54,39.59,95.47,43.55,97.86,48.4z"/>
				</g>
				<g>
					<path class="st524" d="M90.03,108.49h13.31V69.67h-0.14c-0.04-6.02-1.48-11.7-4-16.75l-11.87,6.02
						c1.64,3.32,2.57,7.06,2.57,11.01c0,13.76-11.2,24.96-24.96,24.96c-13.76,0-24.96-11.2-24.96-24.96
						C39.98,56.19,51.18,45,64.94,45c4.04,0,7.86,0.97,11.25,2.69c0,0,0,0,0,0l5.89-11.95c-5.15-2.59-10.97-4.05-17.13-4.05h0
						c-21.13,0-38.26,17.13-38.26,38.26v0c0,21.13,17.13,38.26,38.26,38.26h0c9.6,0,18.37-3.55,25.09-9.39V108.49z"/>
				</g>
			</g>
			<g>
				<path class="st524" d="M317.45,36.89c-0.01-0.01-0.02-0.01-0.03-0.02c-0.52-0.29-1.06-0.56-1.59-0.82
					c-0.02-0.01-0.05-0.02-0.07-0.03c-0.52-0.25-1.05-0.49-1.58-0.72c-0.04-0.02-0.09-0.04-0.13-0.06
					c-0.51-0.22-1.03-0.42-1.55-0.62c-0.07-0.03-0.13-0.05-0.2-0.08c-0.5-0.18-1-0.35-1.51-0.52c-0.09-0.03-0.19-0.07-0.28-0.1
					c-0.49-0.15-0.98-0.29-1.48-0.42c-0.12-0.03-0.23-0.07-0.35-0.1c-0.47-0.12-0.94-0.23-1.42-0.33c-0.15-0.03-0.3-0.07-0.45-0.1
					c-0.45-0.09-0.91-0.17-1.37-0.25c-0.17-0.03-0.35-0.07-0.52-0.09c-0.44-0.07-0.89-0.12-1.34-0.17c-0.2-0.02-0.39-0.05-0.59-0.07
					c-0.46-0.05-0.93-0.08-1.4-0.11c-0.18-0.01-0.36-0.03-0.55-0.04c-0.65-0.03-1.31-0.05-1.98-0.05h0
					c-21.12,0-38.24,17.12-38.24,38.24v0c0,21.12,17.12,38.24,38.24,38.24h0c0.62,0,1.24-0.02,1.85-0.05c0.2-0.01,0.4-0.03,0.6-0.04
					c0.41-0.03,0.82-0.05,1.23-0.09c0.23-0.02,0.47-0.05,0.7-0.08c0.37-0.04,0.74-0.09,1.11-0.14c0.24-0.03,0.48-0.07,0.72-0.11
					c0.36-0.06,0.71-0.12,1.07-0.19c0.24-0.05,0.48-0.09,0.71-0.14c0.36-0.08,0.71-0.16,1.07-0.25c0.22-0.05,0.45-0.11,0.67-0.17
					c0.38-0.1,0.76-0.21,1.14-0.32c0.19-0.06,0.38-0.11,0.56-0.16c0.54-0.17,1.08-0.35,1.61-0.54c0.02-0.01,0.05-0.02,0.07-0.02
					c0.54-0.2,1.08-0.41,1.62-0.63c0.18-0.07,0.35-0.16,0.53-0.23c0.36-0.16,0.71-0.31,1.07-0.48c0.2-0.1,0.41-0.2,0.61-0.3
					c0.32-0.16,0.64-0.32,0.95-0.49c0.21-0.11,0.41-0.22,0.62-0.34c0.31-0.17,0.61-0.34,0.91-0.52c0.2-0.12,0.4-0.24,0.6-0.36
					c0.31-0.19,0.61-0.38,0.91-0.58c0.18-0.12,0.37-0.24,0.55-0.36c0.33-0.22,0.65-0.45,0.97-0.68c0.15-0.11,0.3-0.21,0.44-0.32
					c0.46-0.35,0.92-0.7,1.36-1.07h0c0.94-0.77,1.84-1.59,2.71-2.44l-9.41-9.41c-4.51,4.46-10.7,7.22-17.53,7.22
					c-1.25,0-2.49-0.1-3.69-0.28c-0.26-0.04-0.53-0.09-0.79-0.14c-0.13-0.02-0.26-0.04-0.38-0.07c-0.24-0.05-0.48-0.1-0.72-0.16
					c-0.14-0.03-0.29-0.06-0.43-0.1c-0.23-0.06-0.46-0.12-0.69-0.18c-0.15-0.04-0.3-0.08-0.44-0.13c-0.22-0.07-0.44-0.14-0.66-0.21
					c-0.15-0.05-0.3-0.1-0.44-0.15c-0.22-0.08-0.43-0.15-0.64-0.24c-0.15-0.06-0.29-0.11-0.44-0.17c-0.21-0.09-0.42-0.17-0.63-0.26
					c-0.14-0.06-0.28-0.13-0.43-0.19c-0.21-0.09-0.41-0.19-0.62-0.29c-0.14-0.07-0.27-0.14-0.41-0.21c-0.2-0.11-0.41-0.21-0.61-0.32
					c-0.13-0.07-0.25-0.14-0.38-0.22c-0.21-0.12-0.41-0.24-0.61-0.36c-0.08-0.05-0.17-0.11-0.25-0.16c-0.45-0.29-0.9-0.59-1.33-0.9
					c-0.08-0.06-0.17-0.12-0.25-0.18c-0.18-0.13-0.35-0.27-0.52-0.4c-0.13-0.1-0.26-0.2-0.38-0.3c-0.16-0.13-0.32-0.27-0.48-0.4
					c-0.13-0.11-0.27-0.23-0.39-0.34c-0.15-0.14-0.3-0.27-0.45-0.41c-0.13-0.12-0.26-0.25-0.39-0.37c-0.14-0.14-0.28-0.28-0.42-0.42
					c-0.13-0.13-0.25-0.26-0.38-0.4c-0.13-0.14-0.26-0.29-0.39-0.43c-0.13-0.14-0.25-0.28-0.37-0.43c-0.12-0.15-0.25-0.29-0.37-0.44
					c-0.12-0.15-0.24-0.3-0.36-0.46c-0.11-0.15-0.23-0.29-0.34-0.44c-0.12-0.16-0.24-0.33-0.35-0.49c-0.1-0.15-0.21-0.29-0.31-0.44
					c-0.12-0.18-0.24-0.36-0.35-0.55c-0.09-0.14-0.18-0.28-0.26-0.42c-0.15-0.25-0.3-0.51-0.44-0.77c-0.07-0.12-0.14-0.25-0.2-0.37
					c-0.15-0.29-0.3-0.58-0.45-0.87c-0.06-0.13-0.12-0.27-0.18-0.4c-0.1-0.22-0.2-0.44-0.3-0.66c-0.06-0.15-0.12-0.3-0.18-0.45
					c-0.08-0.21-0.17-0.42-0.25-0.63c-0.06-0.16-0.11-0.32-0.17-0.48c-0.07-0.21-0.15-0.42-0.21-0.63c-0.05-0.16-0.1-0.33-0.15-0.49
					c-0.02-0.06-0.04-0.13-0.05-0.19h47.91c-0.01,0.03-0.02,0.07-0.03,0.1h13.66c0.42-2.28,0.66-4.63,0.66-7.03v0
					C337.3,55.97,329.28,43.39,317.45,36.89z M299.05,45.48c0.43,0,0.86,0.01,1.29,0.03c0.12,0.01,0.23,0.02,0.35,0.03
					c0.31,0.02,0.62,0.04,0.93,0.07c0.12,0.01,0.25,0.03,0.37,0.05c0.3,0.04,0.59,0.07,0.89,0.11c0.12,0.02,0.24,0.04,0.35,0.06
					c0.3,0.05,0.59,0.1,0.88,0.16c0.1,0.02,0.21,0.05,0.31,0.07c0.3,0.07,0.61,0.14,0.91,0.21c0.08,0.02,0.17,0.05,0.25,0.07
					c0.32,0.09,0.63,0.17,0.95,0.27c0.07,0.02,0.13,0.05,0.2,0.07c0.33,0.11,0.65,0.22,0.98,0.34c0.05,0.02,0.1,0.04,0.15,0.06
					c0.34,0.13,0.67,0.26,1,0.4c0.04,0.02,0.07,0.03,0.11,0.05c0.34,0.15,0.68,0.3,1.01,0.46c0.02,0.01,0.04,0.02,0.07,0.03
					c0.34,0.17,0.69,0.35,1.02,0.53c0.01,0.01,0.02,0.01,0.04,0.02c0.35,0.19,0.69,0.39,1.02,0.6c0,0,0,0,0.01,0
					c1.73,1.07,3.31,2.34,4.73,3.78l0,0c2.98,3.04,5.19,6.83,6.31,11.07h-48.23C277.77,53.37,287.5,45.48,299.05,45.48z"/>
			</g>
			<g>
				<path class="st524" d="M385.35,32.18L385.35,32.18c-9.68,0-18.51,3.6-25.24,9.53v-9.25h-13.3v76.48h13.3V70.49h0.3
					c0-0.02,0-0.05,0-0.07c0-13.75,11.19-24.94,24.94-24.94c13.75,0,24.94,11.19,24.94,24.94c0,0.02,0,0.04,0,0.07h0.25v38.45h13.3
					v-38.8h-0.26C423.43,49.15,406.38,32.18,385.35,32.18z"/>
			</g>
			<g>
				<path class="st524" d="M497,45.2V31.9h-50.44v0h-13.3v38.8h0.14c0.15,20.99,17.21,37.97,38.24,37.97h0c0,0,0,0,0,0v-13.3
					c0,0,0,0,0,0c-13.75,0-24.94-11.19-24.94-24.94c0-0.19,0.01-0.37,0.01-0.56h-0.15V45.2H497z"/>
			</g>
			<g>
				<path class="st524" d="M155.75,45.48c6.88,0,13.12,2.8,17.64,7.33l9.41-9.41c-6.92-6.93-16.49-11.21-27.05-11.21h0
					c-21.12,0-38.24,17.12-38.24,38.24v0c0,21.12,17.12,38.24,38.24,38.24h0c10.43,0,19.87-4.18,26.77-10.94l-9.41-9.41
					c-4.49,4.36-10.62,7.06-17.36,7.06c-13.75,0-24.94-11.19-24.94-24.94C130.8,56.67,141.99,45.48,155.75,45.48z"/>
			</g>
			<g>
				<path class="st524" d="M226.1,45.48c7.07,0,13.45,2.96,17.99,7.7l9.41-9.41c-6.95-7.14-16.66-11.58-27.41-11.58h0
					c-21.12,0-38.24,17.12-38.24,38.24v0c0,21.12,17.12,38.24,38.24,38.24h0c10.61,0,20.21-4.32,27.14-11.3l-9.41-9.41
					c-4.52,4.57-10.8,7.41-17.72,7.41c-13.75,0-24.94-11.19-24.94-24.94C201.16,56.67,212.35,45.48,226.1,45.48z"/>
			</g>
		</g>
	</g>
</g>
<g id="Capa_2">
</g>
</svg>
